<svg xmlns="http://www.w3.org/2000/svg" viewBox="0 0 283.46 141.73"><defs><style>.cls-1{fill:#014694;}.cls-2{fill:#fff;}.cls-3{fill:#9fa8d4;}</style></defs><title>Fichier 1BASF</title><g id="Calque_2" data-name="Calque 2"><g id="Capa_1" data-name="Capa 1"><rect class="cls-1" width="283.46" height="141.73"/><path class="cls-2" d="M111.63,35.66h21.2c7.78,0,11.33,5.19,11.33,9.93,0,3.42-1.31,5.63-4.84,7.67,4.44,1.65,6.86,4.61,6.86,9.18,0,5.47-4,11.27-13.33,11.27H111.62ZM123.2,65.12h7.67a3.67,3.67,0,0,0,4-3.68,3.28,3.28,0,0,0-3.57-3.15H123.2Zm0-14.48h6.16c2.82,0,4-1.31,4-3.23a2.84,2.84,0,0,0-3.14-2.93h-7Z"/><path class="cls-2" d="M158.24,35.66H170.5l14,38H171.87L170,68H158.29l-1.56,5.67H144.24Zm5.63,11.28-3.24,12.69h6.91Z"/><path class="cls-2" d="M204,47h11.68c0-6.45-4.85-12.43-16.36-12.43-12.64,0-16.55,7-16.55,12.07,0,8.23,10.07,10.42,10.38,10.52,1.51.47,7.76,2.15,9.32,2.7,1.35.49,2.64,1.57,2.64,3,0,2.21-2.64,3.28-4.85,3.28-1.41,0-6.16-.46-6.16-5.5H182c0,6.69,4.6,14.18,17.52,14.18,14.25,0,17.23-8.51,17.23-13A10.48,10.48,0,0,0,209.86,52c-2.9-1.17-7.71-2.19-10.12-2.9-1.22-.35-5.28-1.18-5.28-3.65,0-3.17,5.23-2.77,4.46-2.77,2.37,0,5.08,1.34,5.08,4.24"/><polygon class="cls-2" points="218.76 35.66 247.93 35.66 247.93 45.7 230.41 45.7 230.41 52.39 246.03 52.39 246.03 61.98 230.35 61.98 230.35 73.7 218.7 73.7 218.76 35.66"/><path class="cls-3" d="M35.54,73.71h38v-38h-38ZM61.88,62H47.25V47.37H61.88Z"/><rect class="cls-3" x="85.29" y="47.37" width="14.63" height="14.63"/><polygon class="cls-2" points="49.86 106.38 46.05 92.33 46 92.33 42.14 106.38 39.82 106.38 35.54 89.66 37.81 89.66 41.09 103.57 41.13 103.57 44.88 89.66 47.29 89.66 50.99 103.57 51.03 103.57 54.43 89.66 56.65 89.66 52.18 106.38 49.86 106.38"/><path class="cls-2" d="M65.5,105.61a5.46,5.46,0,0,1-3.42,1,6.24,6.24,0,0,1-2.51-.47,4.92,4.92,0,0,1-1.79-1.31,5.47,5.47,0,0,1-1.09-2,9.72,9.72,0,0,1-.41-2.55,7.34,7.34,0,0,1,.42-2.53,6.13,6.13,0,0,1,1.18-2,5.45,5.45,0,0,1,1.8-1.32A5.58,5.58,0,0,1,62,94a5,5,0,0,1,2.68.67,5.34,5.34,0,0,1,1.71,1.7,6.57,6.57,0,0,1,.88,2.25,8.93,8.93,0,0,1,.2,2.32H58.38a4.9,4.9,0,0,0,.19,1.5,3.33,3.33,0,0,0,1.87,2.15,4.14,4.14,0,0,0,1.71.32,3.41,3.41,0,0,0,2.07-.58,2.77,2.77,0,0,0,1.07-1.78h2a4.85,4.85,0,0,1-1.76,3.07M65,97.83a3.42,3.42,0,0,0-.73-1.09A3.47,3.47,0,0,0,63.22,96a3.38,3.38,0,0,0-1.37-.27,3.45,3.45,0,0,0-1.39.27,3.25,3.25,0,0,0-1.07.74,3.52,3.52,0,0,0-.7,1.09,4.39,4.39,0,0,0-.31,1.32h7A4,4,0,0,0,65,97.83"/><path class="cls-2" d="M83.86,96.38a3.05,3.05,0,0,0-2-.63,3.66,3.66,0,0,0-1.8.4,3.18,3.18,0,0,0-1.16,1,4.33,4.33,0,0,0-.62,1.51,7.94,7.94,0,0,0-.19,1.77,6.88,6.88,0,0,0,.2,1.64,4.44,4.44,0,0,0,.62,1.42,3.18,3.18,0,0,0,1.1,1,3.31,3.31,0,0,0,1.62.37,3.22,3.22,0,0,0,2.3-.77,3.42,3.42,0,0,0,1-2.18h2a5.58,5.58,0,0,1-1.68,3.47,5.24,5.24,0,0,1-3.66,1.22,6.26,6.26,0,0,1-2.45-.45,4.77,4.77,0,0,1-1.78-1.26,5.55,5.55,0,0,1-1.07-2,8.19,8.19,0,0,1-.36-2.49,8.67,8.67,0,0,1,.35-2.54,5.84,5.84,0,0,1,1.06-2.06,4.9,4.9,0,0,1,1.79-1.38A5.83,5.83,0,0,1,81.68,94a7.5,7.5,0,0,1,1.93.25A4.88,4.88,0,0,1,85.2,95a4.17,4.17,0,0,1,1.13,1.3,4.78,4.78,0,0,1,.57,1.86H84.84a3.12,3.12,0,0,0-1-1.78"/><path class="cls-2" d="M90.36,94.28v2.55h0a5.42,5.42,0,0,1,1.78-2.18A4.39,4.39,0,0,1,94.86,94v2.1a5.59,5.59,0,0,0-2,.33,3.3,3.3,0,0,0-1.36,1,4.06,4.06,0,0,0-.75,1.53,8.59,8.59,0,0,0-.23,2.08v5.38h-2V94.28Z"/><path class="cls-2" d="M104.81,105.61a5.5,5.5,0,0,1-3.42,1,6.26,6.26,0,0,1-2.52-.47,5,5,0,0,1-1.79-1.31,5.78,5.78,0,0,1-1.09-2,10.15,10.15,0,0,1-.41-2.55A7.34,7.34,0,0,1,96,97.76a6.15,6.15,0,0,1,1.19-2A5.25,5.25,0,0,1,99,94.46a5.54,5.54,0,0,1,2.28-.47,5,5,0,0,1,2.68.67,5.34,5.34,0,0,1,1.71,1.7,6.59,6.59,0,0,1,.89,2.25,9.38,9.38,0,0,1,.2,2.32H97.69a4.61,4.61,0,0,0,.19,1.5,3.33,3.33,0,0,0,1.87,2.15,4.11,4.11,0,0,0,1.71.32,3.45,3.45,0,0,0,2.07-.58,2.85,2.85,0,0,0,1.07-1.78h2a4.84,4.84,0,0,1-1.75,3.07m-.48-7.78a3.42,3.42,0,0,0-.73-1.09,3.52,3.52,0,0,0-1.08-.72,3.34,3.34,0,0,0-1.36-.27,3.5,3.5,0,0,0-1.4.27,3.21,3.21,0,0,0-1.06.74,3.34,3.34,0,0,0-.7,1.09,3.87,3.87,0,0,0-.31,1.32h7a4,4,0,0,0-.31-1.34"/><path class="cls-2" d="M118.41,106.64a1.7,1.7,0,0,1-1.23-.44,1.88,1.88,0,0,1-.46-1.41,4.65,4.65,0,0,1-1.91,1.41,6.22,6.22,0,0,1-2.35.44,6.46,6.46,0,0,1-1.55-.18,3.6,3.6,0,0,1-1.27-.58,2.91,2.91,0,0,1-.87-1.06,4.14,4.14,0,0,1,0-3.24,3.08,3.08,0,0,1,.92-1.07,4.66,4.66,0,0,1,1.31-.62,15.25,15.25,0,0,1,1.52-.35c.54-.11,1.06-.19,1.55-.24a8.19,8.19,0,0,0,1.3-.24,2.18,2.18,0,0,0,.89-.44,1.09,1.09,0,0,0,.33-.85,2,2,0,0,0-.25-1.06,1.67,1.67,0,0,0-.63-.61,2.64,2.64,0,0,0-.86-.28,7.89,7.89,0,0,0-1-.07,4.18,4.18,0,0,0-2.1.48,2.06,2.06,0,0,0-.92,1.82h-2a4.16,4.16,0,0,1,.47-1.9,3.55,3.55,0,0,1,1.12-1.25,4.76,4.76,0,0,1,1.61-.69,8.56,8.56,0,0,1,1.92-.22,11.07,11.07,0,0,1,1.63.12,4.26,4.26,0,0,1,1.46.48,2.8,2.8,0,0,1,1.06,1,3.33,3.33,0,0,1,.4,1.71v6.23a4.42,4.42,0,0,0,.08,1c0,.22.23.32.55.32a1.83,1.83,0,0,0,.6-.11v1.54a2.7,2.7,0,0,1-1.42.31m-2.79-6.1c-.4.08-.83.15-1.28.21s-.89.12-1.34.19a5.3,5.3,0,0,0-1.22.33,2.37,2.37,0,0,0-.88.67,1.9,1.9,0,0,0-.34,1.18,1.62,1.62,0,0,0,.2.83,1.75,1.75,0,0,0,.52.56,2.11,2.11,0,0,0,.75.3,4.31,4.31,0,0,0,.88.09,4.94,4.94,0,0,0,1.68-.26,3.48,3.48,0,0,0,1.15-.69,2.54,2.54,0,0,0,.65-.88,2.26,2.26,0,0,0,.21-.91v-2a2.54,2.54,0,0,1-1,.41"/><path class="cls-2" d="M127.16,94.28V96h-2.41v7.52a2.12,2.12,0,0,0,.06.56l.22.32a1,1,0,0,0,.46.16c.19,0,.45,0,.76,0h.91v1.76h-1.52a7.08,7.08,0,0,1-1.32-.11,2,2,0,0,1-.89-.38,1.67,1.67,0,0,1-.5-.8,4.51,4.51,0,0,1-.17-1.36V96H120.7V94.28h2.06V90.65h2v3.63Z"/><path class="cls-2" d="M137.77,105.61a5.5,5.5,0,0,1-3.42,1,6.26,6.26,0,0,1-2.52-.47,5,5,0,0,1-1.79-1.31,5.78,5.78,0,0,1-1.09-2,9.72,9.72,0,0,1-.41-2.55,7.11,7.11,0,0,1,.43-2.53,6,6,0,0,1,1.18-2,5.35,5.35,0,0,1,1.8-1.32,5.54,5.54,0,0,1,2.28-.47,5,5,0,0,1,2.68.67,5.34,5.34,0,0,1,1.71,1.7,6.59,6.59,0,0,1,.89,2.25,9.38,9.38,0,0,1,.2,2.32h-9.06a4.61,4.61,0,0,0,.19,1.5,3.32,3.32,0,0,0,.68,1.27,3.46,3.46,0,0,0,1.19.88,4.08,4.08,0,0,0,1.71.32,3.45,3.45,0,0,0,2.07-.58,2.85,2.85,0,0,0,1.07-1.78h2a4.84,4.84,0,0,1-1.75,3.07m-.48-7.78A3.34,3.34,0,0,0,135.48,96a3.37,3.37,0,0,0-1.36-.27,3.5,3.5,0,0,0-1.4.27,3.21,3.21,0,0,0-1.06.74,3.34,3.34,0,0,0-.7,1.09,3.87,3.87,0,0,0-.31,1.32h6.95a4,4,0,0,0-.31-1.34"/><path class="cls-2" d="M156.12,96.38a3,3,0,0,0-2-.63,3.63,3.63,0,0,0-1.8.4,3.11,3.11,0,0,0-1.16,1,4.33,4.33,0,0,0-.62,1.51,7.94,7.94,0,0,0-.19,1.77,6.88,6.88,0,0,0,.2,1.64,4.44,4.44,0,0,0,.62,1.42,3.18,3.18,0,0,0,1.1,1,3.27,3.27,0,0,0,1.61.37,3.23,3.23,0,0,0,2.31-.77,3.52,3.52,0,0,0,1-2.18h2a5.52,5.52,0,0,1-1.67,3.47,5.27,5.27,0,0,1-3.66,1.22,6.26,6.26,0,0,1-2.45-.45,4.77,4.77,0,0,1-1.78-1.26,5.55,5.55,0,0,1-1.07-2,7.88,7.88,0,0,1-.37-2.49,9,9,0,0,1,.35-2.54,5.85,5.85,0,0,1,1.07-2.06,4.82,4.82,0,0,1,1.79-1.38,5.78,5.78,0,0,1,2.5-.51,7.39,7.39,0,0,1,1.93.25,4.84,4.84,0,0,1,1.6.76,4.17,4.17,0,0,1,1.13,1.3,4.62,4.62,0,0,1,.56,1.86h-2a3.07,3.07,0,0,0-1-1.78"/><path class="cls-2" d="M163.28,89.66v6.4h.05a2.5,2.5,0,0,1,.66-1,3.81,3.81,0,0,1,.94-.64,5.44,5.44,0,0,1,1.1-.36,6.38,6.38,0,0,1,1.12-.12,5.44,5.44,0,0,1,2,.33,3.24,3.24,0,0,1,2,2.31,7.11,7.11,0,0,1,.2,1.79v8h-2v-8.2a2.45,2.45,0,0,0-.65-1.78,2.48,2.48,0,0,0-1.81-.65,4,4,0,0,0-1.57.28,2.94,2.94,0,0,0-1.12.8,3.5,3.5,0,0,0-.66,1.2,4.88,4.88,0,0,0-.23,1.51v6.84h-2V89.66Z"/><path class="cls-2" d="M182.71,105.61a5.45,5.45,0,0,1-3.41,1,6.26,6.26,0,0,1-2.52-.47,4.92,4.92,0,0,1-1.79-1.31,5.62,5.62,0,0,1-1.09-2,9.72,9.72,0,0,1-.41-2.55,7.34,7.34,0,0,1,.42-2.53,6.31,6.31,0,0,1,1.18-2,5.39,5.39,0,0,1,1.81-1.32,5.5,5.5,0,0,1,2.28-.47,5,5,0,0,1,2.68.67,5.34,5.34,0,0,1,1.71,1.7,6.59,6.59,0,0,1,.89,2.25,9.89,9.89,0,0,1,.2,2.32H175.6a4.61,4.61,0,0,0,.19,1.5,3.45,3.45,0,0,0,.67,1.27,3.5,3.5,0,0,0,1.2.88,4.08,4.08,0,0,0,1.71.32,3.45,3.45,0,0,0,2.07-.58,2.8,2.8,0,0,0,1.06-1.78h2a4.85,4.85,0,0,1-1.76,3.07m-.48-7.78a3.39,3.39,0,0,0-3.17-2.08,3.45,3.45,0,0,0-1.39.27,3.21,3.21,0,0,0-1.06.74,3.37,3.37,0,0,0-.71,1.09,4.1,4.1,0,0,0-.3,1.32h7a4,4,0,0,0-.32-1.34"/><path class="cls-2" d="M188.42,94.28v1.78h.05a4.74,4.74,0,0,1,5.95-1.6,2.66,2.66,0,0,1,1.29,1.6,4.19,4.19,0,0,1,1.6-1.53A4.49,4.49,0,0,1,199.5,94a6.45,6.45,0,0,1,1.65.19,3.54,3.54,0,0,1,1.26.62,2.81,2.81,0,0,1,.82,1.09,3.93,3.93,0,0,1,.29,1.61v8.87h-2V98.44a5.85,5.85,0,0,0-.1-1,2.2,2.2,0,0,0-.35-.86,1.76,1.76,0,0,0-.71-.57,2.88,2.88,0,0,0-1.19-.21,3.12,3.12,0,0,0-2.31.84,3,3,0,0,0-.85,2.25v7.54h-2V98.44a5.06,5.06,0,0,0-.1-1.07,2.3,2.3,0,0,0-.36-.86,1.76,1.76,0,0,0-.7-.56,2.66,2.66,0,0,0-1.11-.2,3,3,0,0,0-1.48.35,3.54,3.54,0,0,0-1,.84,3.43,3.43,0,0,0-.56,1,2.85,2.85,0,0,0-.18.88v7.54h-2V94.28Z"/><path class="cls-2" d="M205.54,89.66h2V92.1h-2Zm2,16.72h-2V94.28h2Z"/><path class="cls-2" d="M212,103.68a2.21,2.21,0,0,0,.74.72,3.4,3.4,0,0,0,1,.39,5.63,5.63,0,0,0,1.18.11,6.84,6.84,0,0,0,1-.07,3.59,3.59,0,0,0,1-.25,1.84,1.84,0,0,0,.71-.55,1.47,1.47,0,0,0,.28-.93,1.32,1.32,0,0,0-.59-1.17,4.82,4.82,0,0,0-1.46-.64c-.58-.17-1.22-.31-1.91-.45a9.8,9.8,0,0,1-1.9-.56,3.88,3.88,0,0,1-1.47-1,2.63,2.63,0,0,1-.58-1.83,2.82,2.82,0,0,1,.41-1.56,3.26,3.26,0,0,1,1.05-1.07,5.23,5.23,0,0,1,1.45-.61,6.87,6.87,0,0,1,1.61-.19,9.46,9.46,0,0,1,1.9.17,4.5,4.5,0,0,1,1.53.61A3.15,3.15,0,0,1,219,96a4.44,4.44,0,0,1,.47,1.84h-2a1.89,1.89,0,0,0-.31-1,1.76,1.76,0,0,0-.65-.62,2.93,2.93,0,0,0-.88-.34,4.51,4.51,0,0,0-1-.11,7,7,0,0,0-.9.07,3,3,0,0,0-.83.25,1.67,1.67,0,0,0-.61.46,1.18,1.18,0,0,0-.23.77,1.13,1.13,0,0,0,.36.85,2.7,2.7,0,0,0,.92.56,9.13,9.13,0,0,0,1.27.38l1.4.31c.5.11,1,.25,1.46.4a4.84,4.84,0,0,1,1.27.62,3.06,3.06,0,0,1,.89,1,2.83,2.83,0,0,1,.34,1.45,3.34,3.34,0,0,1-.46,1.83,3.51,3.51,0,0,1-1.19,1.17,5,5,0,0,1-1.66.62,9.72,9.72,0,0,1-1.84.18,8.5,8.5,0,0,1-1.92-.21,4.74,4.74,0,0,1-1.62-.7,3.34,3.34,0,0,1-1.12-1.26,4.37,4.37,0,0,1-.47-1.91h2a2.41,2.41,0,0,0,.3,1.12"/><path class="cls-2" d="M227.17,94.28V96h-2.41v7.52a2.12,2.12,0,0,0,.06.56l.22.32a.92.92,0,0,0,.46.16,7.56,7.56,0,0,0,.76,0h.91v1.76h-1.52a7.2,7.2,0,0,1-1.33-.11,2.07,2.07,0,0,1-.89-.38,1.74,1.74,0,0,1-.5-.8,4.55,4.55,0,0,1-.16-1.36V96h-2.06V94.28h2.06V90.65h2v3.63Z"/><path class="cls-2" d="M231,94.28v2.55h.05a5.41,5.41,0,0,1,1.77-2.18A4.43,4.43,0,0,1,235.5,94v2.1a5.57,5.57,0,0,0-2,.33,3.17,3.17,0,0,0-1.36,1,3.78,3.78,0,0,0-.75,1.53,8.09,8.09,0,0,0-.24,2.08v5.38h-2V94.28Z"/><path class="cls-2" d="M241.83,109.47a3.76,3.76,0,0,1-.74,1,2.73,2.73,0,0,1-.9.57,3.72,3.72,0,0,1-1.18.17,5.58,5.58,0,0,1-.7,0,3.76,3.76,0,0,1-.68-.17v-1.83l.58.19a2,2,0,0,0,.59.09,1.59,1.59,0,0,0,1-.28,2.36,2.36,0,0,0,.65-.81l.82-2-4.8-12h2.25l3.54,9.9h0l3.39-9.9h2.11L242.52,108a12,12,0,0,1-.69,1.5"/></g></g></svg>