<svg xmlns="http://www.w3.org/2000/svg" viewBox="0 0 660.2 330.2"><defs><style>.cls-1{fill:#fefefe;}.cls-2{fill:#b0b0b0;}.cls-3{fill:#b1b1b1;}.cls-4{fill:#ededed;}.cls-5{fill:#01b0ea;}.cls-6{fill:#0068b3;}.cls-7{fill:#01afe9;}.cls-8{fill:#0168b3;}.cls-9{fill:#01b0e9;}.cls-10{fill:#fafcfc;}.cls-11{fill:#f9fbfb;}.cls-12{fill:#f9fcfc;}.cls-13{fill:#fafcfb;}.cls-14{fill:#07b1ea;}.cls-15{fill:#fbfcfc;}.cls-16{fill:#0568af;}.cls-17{fill:#07b1eb;}.cls-18{fill:#f9fdfb;}.cls-19{fill:#056ab2;}.cls-20{fill:#f4fafb;}.cls-21{fill:#fefcf8;}.cls-22{fill:#f6fbfa;}.cls-23{fill:#f5fbfb;}.cls-24{fill:#1775b9;}.cls-25{fill:#f8fbfc;}.cls-26{fill:#066bb3;}.cls-27{fill:#f7fbfb;}.cls-28{fill:#0bb1ed;}.cls-29{fill:#f4fbfb;}.cls-30{fill:#eef8f9;}.cls-31{fill:#f6fbfb;}.cls-32{fill:#f3fafb;}.cls-33{fill:#edf8fb;}.cls-34{fill:#0269b2;}.cls-35{fill:#e4f0f4;}.cls-36{fill:#2e4998;}.cls-37{fill:#2d4998;}.cls-38{fill:#284e9c;}.cls-39{fill:#fcfdfd;}.cls-40{fill:#0467ae;}.cls-41{fill:#0b67a9;}.cls-42{fill:#0466aa;}.cls-43{fill:#fafcfd;}.cls-44{fill:#fcfdfe;}.cls-45{fill:#69a9d6;}.cls-46{fill:#71b7e2;}.cls-47{fill:#0467ac;}.cls-48{fill:#324b9a;}.cls-49{fill:#304a99;}.cls-50{fill:#5e76a5;}.cls-51{fill:#006abb;}.cls-52{fill:#fdfdfd;}.cls-53{fill:#364e9b;}.cls-54{fill:#384f9c;}.cls-55{fill:#6278a7;}.cls-56{fill:#6279a7;}.cls-57{fill:#3c529e;}.cls-58{fill:#5d72a6;}.cls-59{fill:#6073a8;}.cls-60{fill:#3b519e;}.cls-61{fill:#3e539f;}.cls-62{fill:#39509c;}.cls-63{fill:#3a519d;}.cls-64{fill:#687cab;}.cls-65{fill:#6b77b2;}.cls-66{fill:#616eb1;}.cls-67{fill:#667aaa;}.cls-68{fill:#4357a2;}.cls-69{fill:#596ba6;}.cls-70{fill:#4055a0;}.cls-71{fill:#4256a1;}.cls-72{fill:#4759a3;}.cls-73{fill:#475aa4;}.cls-74{fill:#4c5fa4;}.cls-75{fill:#6e80ae;}.cls-76{fill:#7686b3;}.cls-77{fill:#6c7fac;}.cls-78{fill:#7984b9;}.cls-79{fill:#727fb3;}.cls-80{fill:#5766a9;}.cls-81{fill:#4a5ca5;}.cls-82{fill:#7485b2;}.cls-83{fill:#495ba5;}.cls-84{fill:#485ba4;}.cls-85{fill:#4c5ea6;}.cls-86{fill:#495ca5;}.cls-87{fill:#4d5ea7;}.cls-88{fill:#5362a9;}.cls-89{fill:#5f6cb0;}.cls-90{fill:#5665ab;}.cls-91{fill:#7f8cb8;}.cls-92{fill:#848fbc;}.cls-93{fill:#7a89b5;}.cls-94{fill:#5161a9;}.cls-95{fill:#5363a9;}.cls-96{fill:#626eb2;}.cls-97{fill:#5867ad;}.cls-98{fill:#5162a9;}.cls-99{fill:#5867ac;}.cls-100{fill:#5d6aaf;}.cls-101{fill:#5f6daf;}.cls-102{fill:#5766ac;}.cls-103{fill:#6973b5;}.cls-104{fill:#8c97c0;}.cls-105{fill:#6d77b7;}.cls-106{fill:#6873b4;}.cls-107{fill:#6672b2;}.cls-108{fill:#7580b8;}.cls-109{fill:#6e78b7;}.cls-110{fill:#737cba;}.cls-111{fill:#929ac3;}.cls-112{fill:#767ebc;}.cls-113{fill:#7e85bf;}.cls-114{fill:#828bbf;}.cls-115{fill:#7e86be;}.cls-116{fill:#7d84bf;}.cls-117{fill:#98a0c6;}.cls-118{fill:#7a81bd;}.cls-119{fill:#8a8fc5;}.cls-120{fill:#888fc2;}.cls-121{fill:#8b96c3;}.cls-122{fill:#8d91c7;}.cls-123{fill:#858ac3;}.cls-124{fill:#a2a5d3;}.cls-125{fill:#a5a8d4;}.cls-126{fill:#9095c9;}.cls-127{fill:#98a8c9;}.cls-128{fill:#b1b3da;}.cls-129{fill:#b1b6d5;}.cls-130{fill:#bcbee0;}.cls-131{fill:#a2b4cf;}.cls-132{fill:#b5b7db;}.cls-133{fill:#c2c4e2;}.cls-134{fill:#d0d1e9;}.cls-135{fill:#d0d1e8;}.cls-136{fill:#dcdcee;}.cls-137{fill:#e2e3f2;}.cls-138{fill:#f1f1f8;}</style></defs><title>Fichier 1BOMARE</title><g id="Calque_2" data-name="Calque 2"><g id="Calque_1-2" data-name="Calque 1"><path class="cls-1" d="M210,331H85c-2.2-4.64-2-9.74-2.19-14.61A299.71,299.71,0,0,1,106,189.67a312,312,0,0,1,52.49-84.48A326.11,326.11,0,0,1,264.72,23.76C285.3,13.89,306.63,5.94,329,1Q493,1,657,.9c3.42,0,4.1.68,4.1,4.1q-.18,161,0,322c0,3.42-.68,4.1-4.1,4.09q-214-.16-428-.09c.5-3.43,3.74-4,6-5.26a205.77,205.77,0,0,0,43.65-33.84A210.63,210.63,0,0,0,316.34,240a207,207,0,0,0,19.44-54.83c.59-2.93.94-5.93,2.32-8.66,2.49-9.69,2.59-19.57,2.52-29.46a12.88,12.88,0,0,1,0-1.52c.3-5.78.73-11.58.76-17.38,0-2.12,1-5.54-3.41-4.85-2.94.82-3.79,2.87-3.66,5.71.33,7.61.57,15.18.23,22.85-1.59,36-12.34,69-31.18,99.39-20.87,33.72-49.42,59-85.06,76.31C215.58,328.89,212.64,329.57,210,331Z" transform="translate(-0.9 -0.89)"/><path class="cls-1" d="M73,331c-22.65,0-45.3-.08-67.95.09-3.31,0-4.16-.51-4.15-4Q1.08,166.17.91,5.29C.91,1.8,1.48.89,5.2.89Q127.87,1.1,250.53,1H285c.45,1.57-.82,2.25-1.64,3.17-8.76,4.45-17.93,8-26.72,12.38A344.41,344.41,0,0,0,179.55,69.6c-31.3,28.32-55.88,61.58-74.46,99.29A305.67,305.67,0,0,0,75.52,270.56a328.1,328.1,0,0,0-2.2,36.83c0,6,1.47,11.9,1,17.93C74.15,327.28,74.54,329.36,73,331Z" transform="translate(-0.9 -0.89)"/><path class="cls-2" d="M73,331c.18-7-.67-13.95-.73-20.91-.38-46.34,8.55-90.77,27.66-133.09A329.23,329.23,0,0,1,157,90.31C191.86,52,233.39,23.45,281.31,4a17,17,0,0,0,1.72-1c1.53-1,3.42-1.13,5-2.08h41c-2.74,2.86-6.63,2.81-10.06,3.77A324.08,324.08,0,0,0,204.49,63C165.22,94,134.41,131.93,113,177.24a298.86,298.86,0,0,0-26.14,87.58A318.44,318.44,0,0,0,85,331Z" transform="translate(-0.9 -0.89)"/><path class="cls-3" d="M210,331c4.91-4.66,11.51-6.28,17.24-9.46,41.38-22.93,71.2-56.24,89.87-99.57a198.51,198.51,0,0,0,16.24-72c.26-7-.1-13.93-.39-20.86-.17-4.06.42-6.78,5-7.07,5.07-.43,3.7,3.54,3.78,6,.2,5.69-.79,11.4.17,17.1a.92.92,0,0,0,0,.71c-1.14,6.81,0,13.73-1.3,20.6-.69,3.78-1,7.71-1.79,11.52-3,12-5.43,24.23-9.72,35.94a218.26,218.26,0,0,1-42.07,70.67,216.44,216.44,0,0,1-55.71,44.67A23.51,23.51,0,0,0,229,331Z" transform="translate(-0.9 -0.89)"/><path class="cls-4" d="M288,1a6.22,6.22,0,0,1-5,2.08L285,1Z" transform="translate(-0.9 -0.89)"/><path class="cls-5" d="M244,113.13a99.36,99.36,0,0,1,38.8,36.94c4.41,3.6,5.12,9.24,7.1,14,4.11,9.88,5.7,20.44,6,31.24.37,14.46-.87,28.6-5.91,42.27a10,10,0,0,1-2.13,3.33l.06-.07c-.57,2.24-1.15,4.47-2.93,6.13l0,0c-.4,1.49-.81,3-2.14,4v0c-.6,3.36-2.74,5.75-5.05,8A24.82,24.82,0,0,0,273,265a24.69,24.69,0,0,1-4.48,4.82c-19.82,19.64-43.4,28.43-71.31,24.63-19.34-2.62-34.67-12.55-47.89-26.31-1.37-1.43-2.77-2.84-4.15-4.26-2.1-.51-2.48-2.34-3.07-4l0,0c-1-1.34-2.65-2.24-3.1-4-1.33-2.3-2.66-4.61-4-6.91-1.65-1-1.58-2.68-1.9-4.23-7.34-17.1-11.1-34.93-9-53.48,4.33-38.16,22.63-66.49,59.26-81.15,12-4.81,24.67-4.8,37.36-4,1.91,1.19,4.34-.5,6.18,1.11h-.06c1.32.41,3-.58,4,1l0,0c1,.46,2.33-.42,3,.92v0c1.65.78,3.8.21,5.1,1.92h0C240.51,112.05,242.63,111.68,244,113.13Z" transform="translate(-0.9 -0.89)"/><path class="cls-6" d="M571,166c-4-8.42-6.54-17.37-9.5-26.15-1.21-3.6-2.72-4.94-6.61-4.81-9,.3-9.09.07-9,9.31.06,6.65-.53,13.33.62,19.93.4,2.26-.6,2.56-2.37,2.55-5.16,0-10.32-.08-15.48,0-2.23,0-2.7-.74-2.58-3a609.4,609.4,0,0,0,0-65.8c-.13-2.55.48-3.16,2.86-3.15,16.48.07,32.95-.07,49.42.13,6.2.07,10.4,4.15,10.73,10.31.36,6.8.27,13.64.07,20.46-.13,4.43-2.68,7.41-6.83,8.91-1.26.46-2.85.6-2.18,2.52,3.15,9,4.52,18.65,9.83,26.85.85,1.48.15,2.34-1.28,2.28C582.8,166.16,576.86,167.16,571,166Z" transform="translate(-0.9 -0.89)"/><path class="cls-7" d="M350,260.93l-.9-1.91c-1.16-1.83-1.07-4.1-2.16-5.94-1.32-3.27-.92-7.14-3.94-10.67,0,13.88-.31,27.08.19,40.25.16,4.24-1.78,3.48-4.26,3.77-3.5.41-3.36-1.1-3.32-4,.24-15.81.35-31.62,0-47.42-.09-3.67.83-4.2,3.91-4,4.81.24,10.43-1.31,14.23.69s3.79,8.41,5.66,12.78c.39.9.89,1.76,1.34,2.63,3.57,5.19,5.22,11.06,6.15,17.19a.51.51,0,0,0,.17.7c2.55,2.08,2.74-.32,3.61-1.79,2-3.47,1.4-8,4.5-11l-.06,0a34.15,34.15,0,0,1,3.8-10.14c1.62-10.27,8.19-12.16,17.41-11.18,4.12.44,4.9,1.14,4.82,5.28-.33,15.65-.21,31.31.08,47,.06,2.92-.76,3.41-3.21,3.31-3.65-.16-8.17,1.15-10.75-.55-3-2-.38-6.66-.47-10.16-.31-11-.12-21.94-.12-33.26-2.22.45-2.05,2.31-2.46,3.45-4.46,12.19-8.94,24.38-13.08,36.69-1.19,3.54-3.29,3.95-6.39,3.87s-5.76.24-6.84-3.86c-1.22-4.64-3.27-9.05-5-13.56A24.89,24.89,0,0,1,350,260.93Z" transform="translate(-0.9 -0.89)"/><path class="cls-8" d="M599.91,98c-1.27-2.12-.65-3,1.79-3,15.82,0,31.64,0,47.46.05,2.38,0,4.61,5,3.94,8.71-.6,3.4-2.9,1-4.25.94-9-.73-18-.12-27-.34-2.23,0-2.83,1.09-2.8,3.1.07,5.16.08,10.33,0,15.49,0,2.18.91,3,3,2.88,8.3-.29,16.68.84,24.91-.81,2.86-.58,3.58.28,3.32,2.86a16.52,16.52,0,0,0,0,2c0,6.28,0,5.92-6,5.56-7.47-.44-15-.16-22.47-.28-2.3,0-2.77,1.14-2.75,3.11.06,5.33.12,10.66,0,16-.07,2.5,1,3.18,3.28,3.09,9.47-.34,19,.77,28.42-.78,1.82-.3,2.25.08,2.34,1.9.31,6.74-1.18,8.42-7.82,8.42-14.15,0-28.31-.06-42.46,0-3.13,0-4.59-.61-2.83-3.88,5.93-1.06,11.91-.36,17.87-.45,9.47-.13,19,0,28.44-.05-13.57,0-27.14-.18-40.7.08-4.25.08-5.23-1.33-5.18-5.36.2-18.13.1-36.28.06-54.41C600.48,101.2,601,99.47,599.91,98Z" transform="translate(-0.9 -0.89)"/><path class="cls-8" d="M401,153c-.63,2-1.2,4.08-1.9,6.09-2.72,7.76-2.8,7.08-10.67,7.94-6.94.75-6.19-4.83-8.43-8s-2.65-7.37-4-11.05v0c-3.45-6-5.35-12.5-6.88-19.16l0,0c-4.08-4.13-3.87-10.14-6.58-14.87-.55,14-.54,28-.84,42,0,2,.62,3.91.79,5.91.45,5.59.1,6.11-5.35,6.15-6.39,0-7.53-1.74-5.06-7.92l-.07,0c.9-3.59.37-7.25.39-10.88.09-12.29.06-24.59,0-36.88,0-4.45.42-8.92-1.08-13.3-1.06-3.07.14-4.6,3.63-4.59,6.47,0,12.95.36,19.42-.19,3.16-.28,4.06,2.17,4.47,4.38a23,23,0,0,0,3.61,8.06c.41,4.41,2,8.51,3.32,12.7-.05,1-.21,2,.75,2.76,3.79,2.75,2.79,7.34,4.24,11l0,0c2.07,2.5,2.28,6,4.29,8.61,1.73-1.18,1.7-3.28,3-4.53,1.49-1.51,1.66-3.72,2.86-5.38l0,.08c1-1.16.86-3.35,3.07-3.44,1.88.29.71,2.46,2,3.16,1.95,3.35,0,6.37-.76,9.49l.07-.09C402.76,144.68,402.18,149,401,153Z" transform="translate(-0.9 -0.89)"/><path class="cls-6" d="M493.31,102.91c5,12.45,10,24.93,15.09,37.36,3.59,8.73,7.19,17.47,12.42,26.55H499.14a1.7,1.7,0,0,1-1.91-1.79c-.05-.83-.08-1.67-.21-2.49-2.36-14.21-4.72-16.23-18.87-16.23-1.17,0-2.34-.09-3.49,0-4.22.4-10-2-12.34,1.13a27.39,27.39,0,0,0-5.42,16.25c-.12,3.37-2,4.54-5.16,4.11-.49-.06-1-.24-1.46-.28-8.07-.57-8.4-1-3.88-8.13,1.56-2.45,2.33-5.49,4.88-7.3l7.53-16.18c2.29-5.31,6.22-10,6.08-16.23,0-1-.24-2.06.76-2.79,1.86-1.2,1.48-3.38,2.22-5.06l0,0c2.4-4.08,4.61-8.42,4.08-13.15-.32-2.83.38-3.18,2.63-3.16,4,0,8,.17,11.95-.05,2.84-.15,4.7.7,4.59,3.66C491,101.07,492.7,101.58,493.31,102.91Z" transform="translate(-0.9 -0.89)"/><path class="cls-9" d="M565.86,250.25l12.36,22.41c1.63-1.52,1.07-3.07,1.07-4.39,0-11.31,0-22.63-.32-33.93-.13-4,2.19-3.29,4.43-3.28,1.79,0,3.39-.43,3.32,2.72q-.54,23.68-.38,47.39c0,4.2-1.21,5.34-5.32,5.27-11.59-.18-11.71.05-17.34-10.27-1.74-3.2-4.84-5.5-5.78-9.16a10.77,10.77,0,0,1-2.91-4.87c-.93-4.32-4.59-7.14-6.14-11.13-1.32-.69-2-2.07-3.19-2.94-1.88,2.05-1,4.54-1,6.72-.26,8.65-.07,17.31-.18,26,0,1.59.78,2.85,1,4.31-1.92,3.3-5,2.19-7.51,1.51s-2.25-3.29-2.11-5.5a449.45,449.45,0,0,0,.33-46.72c-.11-2.77.73-4,3.6-3.86,1.82.12,3.65,0,5.47,0,11.5,0,11.5,0,15.67,10.75l2.94,5.8A4.4,4.4,0,0,1,565.86,250.25Z" transform="translate(-0.9 -0.89)"/><path class="cls-5" d="M414.07,284a11.64,11.64,0,0,0,.81-5.38c-.12-15-.17-30-.45-45,0-2.1.49-2.63,2.37-2.62,12.5.06,25-.11,37.49.2,5.76.14,9.16,4.12,9.44,10.27.22,4.65.16,9.33,0,14-.19,7.49-3.5,11.08-11,11.43-6.48.3-13,.21-19.49.07-3.07-.06-4.51.75-3.39,4,.75,4.13-.42,8.36.95,12.53.63,1.91-.94,3.54-3.1,3.55-3.78,0-7.56,0-11.34,0C414.79,287,412.88,286.49,414.07,284Z" transform="translate(-0.9 -0.89)"/><path class="cls-8" d="M405,131c-.33-.67-.67-1.33-1-2,.14-2.75.52-5.48.92-8.21l4.16-13.57c4.35-15.37,1-12.71,15.73-12.72a65.87,65.87,0,0,0,9.92-.42c2.44-.37,4.3.33,3.25,3.67-.73,2.35-.46,4.91-.47,7.36-.05,17.43.11,34.86-.15,52.28-.05,3.31,2.94,6.21.92,9.59-6.52,1.3-13.14.11-19.7.72-1.46.14-2.41-1.12-1.74-2.76a8.54,8.54,0,0,0,.7-3.36c1.06-11.29.15-22.61.42-33.91.13-5.33-.31-10.63-.37-15.88-1.87,2.25-1.59,5.4-3.43,7.58a16.86,16.86,0,0,0-3.6,7.62,19.06,19.06,0,0,1-1,3.31C408.27,131.93,407.28,135.73,405,131Z" transform="translate(-0.9 -0.89)"/><path class="cls-9" d="M485.81,233.05c-1.41-1.67-.17-2,1.13-2,3.81-.06,7.63.08,11.45,0,2.77-.08,3.05,2.05,3.77,3.85,5.85,14.45,11,29.18,17.67,43.3.62,1.33,1.42,2.57,2.14,3.86,1.38,1,2.79,2.12,1.94,4.05s-2.5,1.05-3.94,1c-2.32-.1-4.65,0-7,0-7.68.11-8.15-.35-8.91-8.23A3.34,3.34,0,0,0,503,276a14.52,14.52,0,0,0-2.86-3.95c-6.89-2.33-14-.73-21-.95-3.09-.1-1.66,3.36-2.53,5.08-3.52.8-4,.08-3.76-5.25h0c3.85-4.28,4.53-9.83,6-15.06l0,.08c1.13-1.53,1.45-3.37,2-5.13l-.08,0c1.56-.62.9-2,1.11-3.13s-.22-2.12.82-2.84c1.51-1.41,1.53-3.45,2.2-5.21a.5.5,0,0,1,.17-.68c2-.09,1.41,1.08,1.32,1.41C485.38,238.48,487.56,235.69,485.81,233.05Z" transform="translate(-0.9 -0.89)"/><path class="cls-9" d="M635,281c1.89,4.46.24,5.94-4.32,5.4-3.57-.43-8.12,1.41-10.54-.78s-.3-6.51-.22-9.89c.21-8.2.1-16.18-5.76-22.79-.84-.29-.58-1.33-1.2-1.77L611.88,249c-3.44-3-4.56-7.41-6.69-11.21l0,0c-1.31-.47-1.71-1.68-2.25-2.78-.87-.93-2.3-1.73-1.5-3.28.67-1.3,2.09-.53,3.16-.71.33-.06.67,0,1,0,8.72-1.16,16.3-.38,18.14,10.46.1.56.8,1,1.21,1.52,1.49.52,1.3,2.08,2,3.12l.63,1.06c2.6,1,2.18,4.23,4.13,5.72.59.54,1.18.95,1.82,0a7.82,7.82,0,0,1,.62-1.1,13.35,13.35,0,0,1,1.38-1.43c1.14-1.19,2.61-3,4-2.3,2.19,1,.24,3.19.42,4.85l-2.07,4a15,15,0,0,0-3.44,10.34C634.78,271.88,633.9,276.47,635,281Z" transform="translate(-0.9 -0.89)"/><path class="cls-10" d="M437.89,166.71C436,156.3,437,145.79,437,135.33c0-12.64-.81-25.3.55-37.91C437.81,95,436.68,95,435,95c-6.15,0-12.32.08-18.47,0-2.33,0-3.15,1.13-3.83,3.06-1.09,3.12-2.43,6.16-3.66,9.22.08-3.24.24-6.49.2-9.74,0-2.43,2-3.18,3.25-4.62,2-2.26,2.94-.83,4.72.42,3.56,2.52,16,.48,18.7-2.79a3.62,3.62,0,0,1,3.9-1.17c1.74.43,1.13,2.12.82,3.37-5.33,21.18-1.48,42.75-2.71,64.09-.19,3.33.9,4.49,4.18,3.88.92-.18,1.85-.29,1.72-1.22-.74-5.39,5-4.56,6.94-7.33.05-.08.31,0,.48,0-1.42,5.14-4.92,9.3-7.17,14.71,3.57,0,6.68-.16,9.76.05,2.53.18,2.31-1.85,3-3.16.51,3.07.12,5.78-3.87,5.09a44.19,44.19,0,0,0-13.39.1c-.5.06-1.09-.57-1.64-.88S437.38,167.19,437.89,166.71Z" transform="translate(-0.9 -0.89)"/><path class="cls-11" d="M352.16,160.07c.06.33.13.65.19,1,.29,1.85-1.69,4.62.48,5.38,2.51.88,5.64.63,8.35.11,2-.38.78-2.55.67-3.88-1.37-17.9-.09-35.82-.68-53.72l1.3-.35q3.38,10.09,6.73,20.19c-2.13,1.6-.61,4.11-1.5,6.08-.22-.14-.5-.21-.61-.39-.95-1.56,1.76-4.95-2-4.92s-1.92,3.25-2,5c-.19,8.46-.85,17,.24,25.33.52,4,1.81,6.88-2.33,9.16a17.17,17.17,0,0,0-9,0c-2.78-1.3-1.81-3.84-2-6a2.31,2.31,0,0,1,1-2Z" transform="translate(-0.9 -0.89)"/><path class="cls-12" d="M287.8,240.91c4.62-13.28,7.74-26.76,7.56-41a102.65,102.65,0,0,0-11.73-47.53,20.83,20.83,0,0,1-.87-2.32,7,7,0,0,1,5.23,7c.07,2.71,1,4.8,4,4.84,1.18,0,1,.63.8,1.1-2.33,5.47,1.33,10.43,2.27,15.29,1.29,6.65.74,13.21,1.63,19.75,1,7.46-1.68,15-.63,22.48.46,3.35-3,6.06-1.09,9.44-1.11-.5-2.37-.9-2.72.72-.46,2.09-1.19,4.38-.75,6.35C292.36,240.79,290.11,240.69,287.8,240.91Z" transform="translate(-0.9 -0.89)"/><path class="cls-13" d="M560.9,241.27a8.44,8.44,0,0,1-1-1c-2.11-2.92-2.65-7.87-6-8.73-4.68-1.19-9.87-.39-14.85-.43-1.71,0-2.14.83-2.13,2.51q.09,25.16,0,50.31c0,1.35.31,2.57,1.75,2.32,2.15-.36,5.19,1.85,6.29-1.93a.79.79,0,0,1,.25-1.31c1.38.88,2.37,2,1.39,3.68a3.7,3.7,0,0,1-3.34,1.78c-2.76,0-5.47-.53-8.28.16-1.71.43-2.57-1.42-1.16-2.59,1.72-1.44.64-2.55-.12-3.3-2.42-2.33-1.59-5-1.36-8.06,1.42,2,0,4.31,2.24,6.53.55-4.89,1.48-9,1.4-13.16-.25-11.75,1.13-23.53-.84-35.24-.34-2,.29-3.17,3.07-3,5.76.3,11.58.94,17.32-.45.82-.2,2.23-.22,2.09.53C556.68,234.3,562.21,236.78,560.9,241.27Z" transform="translate(-0.9 -0.89)"/><path class="cls-14" d="M640,253a4.63,4.63,0,0,1-.53-4.29l-5.65,4.18c-.67-1.35-.1-2.23,1.09-2.87a.38.38,0,0,0,.26-.54c.74-2.5,1.45-5,4-6.34,1.62-1.53,2.32-3.61,3.18-5.56,3.06-7,3-7,12.09-6.06C648.29,238.2,645,246.13,640,253Z" transform="translate(-0.9 -0.89)"/><path class="cls-15" d="M381.79,108.08c-1.28-3.22-2.78-6.38-3.76-9.69-.82-2.75-2.28-3.55-5-3.46-5.81.19-11.64.21-17.45,0-3.27-.13-3.65,1-3.45,4,1.29,19.92.4,39.86.51,59.8a4.23,4.23,0,0,1-.52,1.36c0-17.93,0-35.86-.15-53.79,0-3.51.12-7.38-3.94-9.32h0c1.31-2.27,3.46-2.87,5.88-3,7.08-.41,14.2.76,21.29-.75,2.54-.54,3.48,2.09,4.43,4a5.86,5.86,0,0,1,.75,2.78c-.1,1.64.21,3.62,1.75,3.51,3.2-.22-1.37-2.67.72-3.56,2.51,2.16,2.51,2.16,1.18,8A1.67,1.67,0,0,1,381.79,108.08Z" transform="translate(-0.9 -0.89)"/><path class="cls-12" d="M437.89,166.71c0,.43.07.86.11,1.3-6.51.31-13-.23-19.55.74-1.76.26-4.14-1.43-2.57-3.95,1.29-2.06,1.1-4.11,1.1-6.22,0-13.16,0-26.31,0-40.19-1.91,2.73-1.22,5.66-3,7.61-.14-.73.39-1.72-.52-2.08-.26-.1-.92.75-1.39,1.17l-.52-.53c-.34-2.09.67-3.79,1.58-5.52,2-3.13,2.26-6.91,3.75-10.23,1.38,0,1.58.93,1.57,2-.19,16.75.44,33.5-.33,50.25-1.49,4.66,0,6.37,5,5.86C428,166.42,433,166.75,437.89,166.71Z" transform="translate(-0.9 -0.89)"/><path class="cls-15" d="M351,161a2.07,2.07,0,0,1-1,2c-2,.13-3-.68-3-2.87.07-17.75.07-35.5.12-53.25,0-.41.37-.81.74-1.58,1.74,1.63,1.15,3.51,1.13,5.13-.24,15.27.55,30.54-.32,45.81C348.56,157.82,348,160.52,351,161Z" transform="translate(-0.9 -0.89)"/><path class="cls-16" d="M599.91,98c1.85,1.58,1.05,3.73,1.06,5.62.06,17.8.14,35.59-.05,53.38,0,3.88,1,5.18,5,5.11,13.93-.24,27.87-.09,41.82.91H600Z" transform="translate(-0.9 -0.89)"/><path class="cls-13" d="M504.09,278.83c.83,7.75,6.07,8.23,12.19,7.54a59.88,59.88,0,0,1,6.83-.05c.71-1.91-1.34-2.78-1.14-4.3.61-.26,1.41-.9,1.81-.71,1.62.78,3.83-1.41,5,.82.78,1.53-.45,2.72-1.29,4-1.18,1.82-2.16,3.86-4.77,2.76-4-1.7-8.19-.58-12.28-.72C505,288,502.34,284.32,504.09,278.83Z" transform="translate(-0.9 -0.89)"/><path class="cls-17" d="M472.92,270.93c1,2,.16,4.88,3,6l.54.55c.39,2.39-.74,4.44-1.49,6.57-2.35,2.8-2.35,2.8-9.77,1.87C467.81,280.8,470.36,275.86,472.92,270.93Z" transform="translate(-0.9 -0.89)"/><path class="cls-18" d="M414.07,284c.08,1.94,1.22,2.41,3,2.37,3.8-.09,8.16,1.11,11.26-.37,4.14-2-.1-6.69,1.05-10.12a21.81,21.81,0,0,0,.53-4.89c1,4.85,2.19,9.68,3.05,14.56.33,1.86-.46,2.75-2.83,2.84-4.72.19-9.4-1-14.21.11C414.41,288.84,411.7,286.75,414.07,284Z" transform="translate(-0.9 -0.89)"/><path class="cls-19" d="M493.31,102.91c-1.44-1.69-2.59-.22-3.87.48,1.87-6.8,1.41-7.38-5.66-7.38q-1.5,0-3,0c-7.46,0-7.25,0-8.62,7-.74,3.78-3.1,7.27-.92,11.42-2.7,0-2.08-2.25-3.41-2.62,1-3,2-6,2.92-9,.35-1.09,1.18-2.57.76-3.29-3.51-6.09,1.35-4.44,4.15-4.57,2.49-.11,5,0,7.49,0C491.1,95,491.1,95,493.31,102.91Z" transform="translate(-0.9 -0.89)"/><path class="cls-20" d="M545.14,283c-.09.43-.17.87-.25,1.31-1.5-2.63-.84-5.51-.86-8.28-.08-10.72,0-21.44.44-32.33,1.91,2.24,3.66,4.47,4.38,7.33-1.28.41-3.19-1.83-3.39,2.22C545,263.16,545.22,273.06,545.14,283Z" transform="translate(-0.9 -0.89)"/><path class="cls-11" d="M369.16,128.81A103,103,0,0,1,376,148c-2.2.21-2.34-2.9-5.26-2.8-1.8.06-2-3.91-.91-6.83S368,132.14,369.16,128.81Z" transform="translate(-0.9 -0.89)"/><path class="cls-11" d="M398.79,137.94c-1.07,2.37-2.13,4.74-3.46,7.72a51.38,51.38,0,0,1-4.51-12.48l1.78-2.2a4,4,0,0,1,.38.79c.46,2-1.2,5.45,2,5.64,2,.12,3.24-2.56,3.31-5.12,0-1.4,1.19-.21,1.84-.22C401,134.33,399.83,136.12,398.79,137.94Z" transform="translate(-0.9 -0.89)"/><path class="cls-12" d="M366.9,264.28a95.42,95.42,0,0,1-6.15-17.19c3.72.22,2.86,4.51,5.25,5.91C369.76,256.48,368.13,260.4,366.9,264.28Z" transform="translate(-0.9 -0.89)"/><path class="cls-15" d="M372.36,92.15c-7.45-1.5-14.67,1.11-22,1.22a3.73,3.73,0,0,1-3.42-1.52c-.47-.66-2.06-1.19-.68-2.27.87-.69,1.64.84,1.73.82,3-.63,5.85.59,8.79.64C362,91.12,367.2,90.52,372.36,92.15Z" transform="translate(-0.9 -0.89)"/><path class="cls-12" d="M375.18,252.17l-5.63,17.33a5.24,5.24,0,0,1-2.48-4.52c3.7-1.6,4.08-5,3.61-8.14S371,252.53,375.18,252.17Z" transform="translate(-0.9 -0.89)"/><ellipse class="cls-21" cx="593.64" cy="128.01" rx="0.29" ry="32.33"/><path class="cls-11" d="M390.86,133.17c-2.13-3.39-3-7.28-4.24-11,2.22-.58,2.18-2.66,2.73-4.25C392.37,122.76,392.48,127.89,390.86,133.17Z" transform="translate(-0.9 -0.89)"/><path class="cls-22" d="M605.19,237.79A31.33,31.33,0,0,1,611.88,249c-1.15,0-2.11.65-3.4-.68C605.5,245.25,602.75,242.43,605.19,237.79Z" transform="translate(-0.9 -0.89)"/><path class="cls-12" d="M409.09,130c.33-1-.14-2.23.9-3,.64-.68.17-2.28,1.8-2.14l.3.26c-.48,2.7.68,5.57-.89,8.16-.21.35-.41,1.05-.25,1.22.74.77,3.92-1.28,2.53,1.55-1.12,2.27-3.75.67-5.68-.08C406.27,133.53,408.69,132,409.09,130Z" transform="translate(-0.9 -0.89)"/><path class="cls-17" d="M475.89,276.89a28.52,28.52,0,0,1,.3-3.93c.51-2.36,1.21-3.66,4.53-3.22,5.5.73,11.17.18,16.77.28,1.52,0,3.39-.71,4.35,1.32-4.59.91-9.19-.25-13.79.13-3.14.26-6.32-.4-9.44.39A2.14,2.14,0,0,0,478,274c-.82.91.62,3.22-1.89,3.1Z" transform="translate(-0.9 -0.89)"/><path class="cls-15" d="M341.94,145.15c-1.66-6.08-.44-12.31-.95-18.46-.17-2.15.07-4.43-3-4.66,3.26-.78,5.16,1.4,4.92,5.63Q342.42,136.41,341.94,145.15Z" transform="translate(-0.9 -0.89)"/><path class="cls-19" d="M464.89,119.69c2.67,3.78.86,6.43-2,9.13a5.39,5.39,0,0,0-1.43,5c.61,2.72-1.31,2-2.66,2.09A99.09,99.09,0,0,1,464.89,119.69Z" transform="translate(-0.9 -0.89)"/><path class="cls-23" d="M478.61,271.86c7.7-2.08,15.47-1.07,23.23-.52.39,1.55.78,3.1,1.18,4.66-4.86-4.86-11-4.1-17-4C483.52,272,481.07,271.91,478.61,271.86Z" transform="translate(-0.9 -0.89)"/><path class="cls-15" d="M338.86,178,342,145.86A152.09,152.09,0,0,1,340,175.92,2.54,2.54,0,0,1,338.86,178Z" transform="translate(-0.9 -0.89)"/><path class="cls-14" d="M635,281c-1.85-6.29-1.25-12.66-.32-18.95.25-1.69.71-3.43,1.08-5.15.55-2.61,1.43,0,2.18.08C633.54,264.57,635.93,273,635,281Z" transform="translate(-0.9 -0.89)"/><path class="cls-17" d="M478.9,255.88c.47,5.14-1.76,9.68-3.32,14.35-.35,1-1.71.71-2.67.71A95.82,95.82,0,0,1,478.9,255.88Z" transform="translate(-0.9 -0.89)"/><path class="cls-24" d="M571,166c5.54-.08,11.08-.22,16.62-.2,1.37,0,2.23-.2,2.38-1.68,1.13.78,2.82,2.53.4,2.56C583.93,166.77,577.36,168,571,166Z" transform="translate(-0.9 -0.89)"/><path class="cls-25" d="M634.9,250c-.36,1-.73,1.91-1.09,2.87l0,0c-.58,1.32-1.34,2.17-2.84,1.08l-3.41-6.76c.47-.17,1.33-.53,1.34-.5C630.1,249.29,632.28,250,634.9,250Z" transform="translate(-0.9 -0.89)"/><path class="cls-18" d="M411.58,275c-.09,4.23,1.67,8.68-1.33,13.58C408.75,283.21,411.69,279.3,411.58,275Z" transform="translate(-0.9 -0.89)"/><path class="cls-11" d="M376,148A41,41,0,0,1,380,159c-.79,0-2,2-1.94.67C378.34,155.51,374.7,152.15,376,148Z" transform="translate(-0.9 -0.89)"/><path class="cls-26" d="M404.92,120.79c.19,2.8,2,5.76-.92,8.21l-3.1,3A44.86,44.86,0,0,1,404.92,120.79Z" transform="translate(-0.9 -0.89)"/><path class="cls-27" d="M277.77,258.91l5.05-8c2.8,1.61.09,3.42.18,5.13h0c-.88-.28-1.79-.82-2.09.73S279.38,259,277.77,258.91Z" transform="translate(-0.9 -0.89)"/><path class="cls-26" d="M409.09,130l-1.29,6c-.88,1.75-1.76,3.49-2.63,5.24.46-3.4.95-6.8-.17-10.18C407.23,134.14,407.78,130.56,409.09,130Z" transform="translate(-0.9 -0.89)"/><path class="cls-25" d="M639.18,243.09a18.3,18.3,0,0,1-4,6.34L634,245c.56-.26,1.59-.49,1.61-.79C635.86,240.65,637.53,242,639.18,243.09Z" transform="translate(-0.9 -0.89)"/><path class="cls-26" d="M401,153c.39-4.34.31-8.84,4.24-11.92A48.13,48.13,0,0,1,401,153Z" transform="translate(-0.9 -0.89)"/><path class="cls-23" d="M476.09,277.07,478,274c2.9,4.54-2,6.7-3,10C474.43,281.55,476,279.43,476.09,277.07Z" transform="translate(-0.9 -0.89)"/><path class="cls-11" d="M381.79,108.08,384,108c-.79,4,2.26,7.44,1.87,11.41A44,44,0,0,1,381.79,108.08Z" transform="translate(-0.9 -0.89)"/><path class="cls-12" d="M295,229.05c1.82,4.84.27,7.88-1.79,10.87C293.78,236.6,294.32,233.29,295,229.05Z" transform="translate(-0.9 -0.89)"/><path class="cls-12" d="M378.92,242a34.82,34.82,0,0,1-3.8,10.14A11.42,11.42,0,0,1,378.92,242Z" transform="translate(-0.9 -0.89)"/><path class="cls-28" d="M485.81,233.05c2.47,2.67.53,5.88,1.3,8.94-1.78-.47-.68-2.52-2.05-3C485.25,237,486.55,235.16,485.81,233.05Z" transform="translate(-0.9 -0.89)"/><path class="cls-20" d="M133.13,244.76c1,1.22,2,2.48,1.9,4.23l-1.33,1.87C132.08,247.77,132.08,247.77,133.13,244.76Z" transform="translate(-0.9 -0.89)"/><path class="cls-27" d="M284.93,247a14.13,14.13,0,0,1,2.93-6.13,15.54,15.54,0,0,0,.18,3.43C289,247.54,286.28,246.45,284.93,247Z" transform="translate(-0.9 -0.89)"/><path class="cls-29" d="M350,260.93a24.43,24.43,0,0,1,2.9,8.06c-2-.54-1.5-3-2.94-4h0C349.94,263.64,349,262.28,350,260.93Z" transform="translate(-0.9 -0.89)"/><path class="cls-15" d="M348,97a7.37,7.37,0,0,1,.49,6.46c-1.54-2.28-2.36-4.25-.49-6.46Z" transform="translate(-0.9 -0.89)"/><path class="cls-20" d="M142.11,259.9a9.63,9.63,0,0,1,3.07,4C141,265,141.37,262.59,142.11,259.9Z" transform="translate(-0.9 -0.89)"/><path class="cls-20" d="M555,262.14A7.11,7.11,0,0,1,557.9,267C554.87,266.61,554.15,264.85,555,262.14Z" transform="translate(-0.9 -0.89)"/><path class="cls-29" d="M347,253.08c1.72,1.61,2.15,3.7,2.16,5.94C346.77,257.63,346.58,255.46,347,253.08Z" transform="translate(-0.9 -0.89)"/><path class="cls-25" d="M634.13,245.78c-1.64-2.44-4-.22-5-3C631.18,243.13,633.62,241.15,634.13,245.78Z" transform="translate(-0.9 -0.89)"/><path class="cls-20" d="M139,255.9c1.79.76,2.52,2.35,3.1,4C140.06,259.39,137.37,259.31,139,255.9Z" transform="translate(-0.9 -0.89)"/><path class="cls-15" d="M352,169a9,9,0,0,1,9,0Z" transform="translate(-0.9 -0.89)"/><path class="cls-22" d="M603,235c1.43.38,1.85,1.57,2.25,2.79-1.4.08-2.78,0-3.76-1.1A17.11,17.11,0,0,1,603,235Z" transform="translate(-0.9 -0.89)"/><path class="cls-30" d="M268.53,269.85A17,17,0,0,1,273,265,5.82,5.82,0,0,1,268.53,269.85Z" transform="translate(-0.9 -0.89)"/><path class="cls-27" d="M282.81,250.91a7.5,7.5,0,0,1,2.14-4C286.66,249.58,284.8,250.28,282.81,250.91Z" transform="translate(-0.9 -0.89)"/><path class="cls-31" d="M271,130.67c-.31-2.41-.46-3.6-.74-5.81C272.07,126.76,272.25,128,271,130.67Z" transform="translate(-0.9 -0.89)"/><path class="cls-26" d="M398.79,137.94c.46-2,.92-3.91,1.39-5.87a5.11,5.11,0,0,0,.75-.18C401.06,134.21,401.13,136.5,398.79,137.94Z" transform="translate(-0.9 -0.89)"/><path class="cls-19" d="M467.87,111.84c.12,2.06.65,4.31-2.22,5.06C466.3,115.17,466.51,113.25,467.87,111.84Z" transform="translate(-0.9 -0.89)"/><path class="cls-32" d="M244,113.13a9.2,9.2,0,0,1-5-2.13C241,111,243.08,110.61,244,113.13Z" transform="translate(-0.9 -0.89)"/><path class="cls-32" d="M239,111a9.93,9.93,0,0,1-5.1-1.92C235.73,109.38,238.28,107.77,239,111Z" transform="translate(-0.9 -0.89)"/><path class="cls-28" d="M484.89,239.7c.17,2.12,0,4.08-2.2,5.21C483.43,243.17,484.16,241.44,484.89,239.7Z" transform="translate(-0.9 -0.89)"/><path class="cls-12" d="M370.36,248.58c-.39-2,.1-3,1.23-3.78C372.32,246.3,371.39,247.19,370.36,248.58Z" transform="translate(-0.9 -0.89)"/><path class="cls-33" d="M565.86,250.25l-2-3.18C566.2,247.06,567.07,248,565.86,250.25Z" transform="translate(-0.9 -0.89)"/><path class="cls-28" d="M481.87,247.75c.05,1.07,2.19.44,1.59,1.59-.41.77-1.77,1-2.7,1.54A3.91,3.91,0,0,1,481.87,247.75Z" transform="translate(-0.9 -0.89)"/><path class="cls-17" d="M480.84,250.83a4.81,4.81,0,0,1-2,5.13A8.29,8.29,0,0,1,480.84,250.83Z" transform="translate(-0.9 -0.89)"/><path class="cls-32" d="M233.9,109.11a3.55,3.55,0,0,1-3-.92c1.08-.48,2-1.69,3.34-.76C234.41,107.57,234,108.53,233.9,109.11Z" transform="translate(-0.9 -0.89)"/><path class="cls-32" d="M230.91,108.21c-1.42,0-2.87,0-4-1C228.6,106,230.13,105.62,230.91,108.21Z" transform="translate(-0.9 -0.89)"/><path class="cls-32" d="M226.94,107.2c-2.1-.14-4.26.06-6.18-1.11C222.84,106.32,225.21,105,226.94,107.2Z" transform="translate(-0.9 -0.89)"/><path class="cls-12" d="M413.87,126.08v3.76c-.24,0-.43.1-.44.07C412.75,128.49,412.71,127.14,413.87,126.08Z" transform="translate(-0.9 -0.89)"/><path class="cls-29" d="M350,265v4.49c-1.46-2-1.21-3.28,0-4.49Z" transform="translate(-0.9 -0.89)"/><path class="cls-25" d="M627,246.12a5.29,5.29,0,0,1-2-3.12C628.83,242.05,626.29,245.09,627,246.12Z" transform="translate(-0.9 -0.89)"/><path class="cls-12" d="M366,253l-.19-4.28C367.29,250.68,367.28,251.86,366,253Z" transform="translate(-0.9 -0.89)"/><path class="cls-11" d="M367.28,161.43c.17.32.52.69.55,1.09s-.26,1-.89.65a1.23,1.23,0,0,1-.56-.77C366.26,161.87,366.5,161.48,367.28,161.43Z" transform="translate(-0.9 -0.89)"/><path class="cls-22" d="M612.94,251.17c1,.18,1.1,1,1.2,1.77-.9-.21-1.86.95-2.63,0C611.41,252.79,612.44,251.77,612.94,251.17Z" transform="translate(-0.9 -0.89)"/><path class="cls-27" d="M283,256c1.14.45,1.61-1.56,2.8-.76.12.08.06.66-.09.88-.94,1.29-1.85.9-2.71-.12Z" transform="translate(-0.9 -0.89)"/><path class="cls-6" d="M68,132c3.59.67,4.83,3.37,5.08,6.47A88.78,88.78,0,0,1,73,156.9c-.78,6.11-4.8,9.76-11.24,9.83-16.31.19-32.62,0-48.92.14-2.56,0-2.91-.93-2.78-3.26a595,595,0,0,0,0-65.29c-.15-2.71.46-3.41,3.1-3.39,16.14.1,32.28,0,48.42.1,6.9.06,11.21,3.78,11.45,10.6.28,7.59,2.42,15.6-3,22.49a20.47,20.47,0,0,1-3.62,1.75c-1.28.53-3,0-3.78,1.73-.3.84-.59,1.67-1.62,1.87-2.48-.14-4.89-.86-7.41-.57-1.76.2-3.4.09-3.69-2.32a2.25,2.25,0,0,0-2.14-1.5c-6.24.65-12.56-.22-18.83,1,2.91,1.13,6,.28,8.93.72,1.44.22,3.34.2,3.39,2.17s-1.87,1.94-3.29,2.24c-2.83.59-6-1-8.53,1.44l-.63,1.21c-1.08,3.58-.36,7.25-.51,10.87A20.67,20.67,0,0,1,26.73,156c.3-.07.75-.28.93-.12,3.69,3.37,8.09,1.91,12.26,1.82a29.38,29.38,0,0,1,11.22,1.42c2.23.84,1.81-.73,1.86-1.93a6.91,6.91,0,0,1,.66-1.3c3-4.46,2.2-9.5,1.81-14.33-.62-7.77-.82-7.76,6.43-8.53,3.23-.11,3.51,0,5.85,2.14.37-2.17-2.72-1.1-2.8-2.85C65.92,131.05,67,131.33,68,132Z" transform="translate(-0.9 -0.89)"/><path class="cls-9" d="M7.37,258.37c0-5.5-.12-11,0-16.5C7.62,234,10.7,231.06,18.51,231q12,0,24,0c3.29,0,5.69,3.86,4.53,6.89-.53,1.38-1.52,1.06-2.42.87-5.78-1.23-11.63-.27-17.44-.62-3.49-.21-5.28,1-5.24,4.82.1,10.5.06,21,0,31.5,0,3,1.06,4.71,4.36,4.62q8.49-.24,17-.19c1.29,0,3.69-2.11,3.69,1.1,0,2.24.67,6-2.61,6.12-10.14.3-20.35,1-30.44-.32-5-.62-6.3-5.08-6.45-9.47-.21-6-.06-12-.06-18Z" transform="translate(-0.9 -0.89)"/><path class="cls-34" d="M68,132a5,5,0,0,0-1.46.1c-1.27.52-.45.75.19,1,1.35.45,2.34,1.16,1.94,3.33-1.83-2.31-4.23-2.9-6.68-3.38h0l-.9-2.18a7,7,0,0,1,4.57-.66,3.4,3.4,0,0,1,1.35.78Z" transform="translate(-0.9 -0.89)"/><path class="cls-35" d="M67,130.94,66,131a1.17,1.17,0,0,1,.08-1.87l3.92-1Z" transform="translate(-0.9 -0.89)"/><path class="cls-36" d="M252,274c-10.1,7.45-21.2,12.3-33.87,13.1A68.51,68.51,0,0,1,201,287l0,0c-3.34-.93-6.85-.95-10.16-2-11-2-20.28-7.6-28.55-14.56-37.62-31.69-42.68-91-11.05-129,3.87-4.65,8-9.33,13.21-12.69a5.54,5.54,0,0,1,3.24-1c1.8-.94,3.59-2.11,5.6-.47.64,3-1,4.66-3.48,5.54-1.39.49-1.7,1.13-1.38,2.39-.52,1.51-1.94,1.84-3.15,2.45-3.5.24-4.43,2.74-5,5.61-2.34,2.46-2.89,6.52-6.83,7.58-.6.16-.84,1-1,1.65-2.35,8.5-8.29,15.43-10.57,24-2.87,10.74-5.58,21.67-3.66,32.79,3.32,19.27,11,36.73,24.69,50.95a49.37,49.37,0,0,0,22.2,13.38,100.25,100.25,0,0,1,11.78,4c9.4,4,18.53,1.11,27.79-.41,4-.65,7.78-1.35,10.87-4.15a28.61,28.61,0,0,0,7.72-3.45c2.08-1.25,4.21-2.89,6.91-1.47.27.37.59,1,1,.92,5-.76,3.43,1.35,1.62,3.62C252.53,273.16,252.29,273.58,252,274Z" transform="translate(-0.9 -0.89)"/><path class="cls-37" d="M173,128l-5.32-.12c2-4.4,6.46-5.66,10.16-7.46a73.28,73.28,0,0,1,82.33,13.06c16.52,15.68,25.62,34.81,27.93,57.35,2.9,28.29-5.71,52.77-24.54,73.75A43.87,43.87,0,0,1,252,274c-.09-1.58,1.28-2.51,1.92-3.86-2-1-2.59,2.8-4.44,1.1-.27-.25.33-1.44.53-2.19,1-.9,0-2.48,1.13-3.35a2.66,2.66,0,0,1,1.88-.2c3.42,1.3,3-2.06,4.19-3.46.54-1.16-.69-2-.54-3.11a3,3,0,0,1,2.19-2.39c2.65.06,3.37-3.52,6.13-3.24a7.1,7.1,0,0,1-.8-2.29,2.89,2.89,0,0,1,.58-2c2-.58,2.7,1,3.67,2-.79-3.71.74-7,2.12-10.39,1.54-1.67.56-4.7,3.11-5.83,1.23.6.86,1.83,1.06,2.88a3,3,0,0,0-1.11-3.06c.49-3.66,2.57-6.74,3.87-10.09a66.77,66.77,0,0,0,1.58-44.4C276.7,172.3,274,164.32,269.4,157c-4.06-6.54-10.46-11.25-13.4-18.51-.47-1.17-2.8-2.39-3.61-2.2-3.47.81-4.55-1.7-6.16-3.61-2.48-2.94-5.1-5.77-9.42-5.18-5.49.75-8.71-5.21-14.1-4.6-8-3.56-16.11-6-24.75-1.88-2.08,1-4.2,1.9-6.3,2.86C185.25,124.36,179.43,127.55,173,128Z" transform="translate(-0.9 -0.89)"/><path class="cls-38" d="M201,287h17.17A33.21,33.21,0,0,1,201,287Z" transform="translate(-0.9 -0.89)"/><path class="cls-38" d="M190.83,285.08a18.64,18.64,0,0,1,10.16,2C197.47,287.05,193.93,287.16,190.83,285.08Z" transform="translate(-0.9 -0.89)"/><path class="cls-39" d="M571.12,109c-.07,3.94-.15,7.89-.21,11.83,0,3.37-1.47,5.12-5.12,5-4.6-.11-9.19.14-13.79.24a3,3,0,0,1-4,0c-2-.24-2.2-1.54-2.18-3.21.06-5.17.08-10.33,0-15.49,0-2,.56-3.1,2.8-3.07,6,.08,12,.1,18,0,2.18,0,3.33,1.16,4.36,2.74A1.35,1.35,0,0,1,571.12,109Z" transform="translate(-0.9 -0.89)"/><path class="cls-40" d="M548,126.06l4,0V129h0c2.66.63,2,1.9.27,2.66-2.59,1.14-4.37-.07-5.27-2.66h0C548.17,128.3,548,127.14,548,126.06Z" transform="translate(-0.9 -0.89)"/><path class="cls-40" d="M547,129c-1.85,1.13-.34,3-1.13,4.88-1.3-2.12-1.28-4.08-.22-5.69.79-1.2,1.18,0,1.35.81Z" transform="translate(-0.9 -0.89)"/><path class="cls-41" d="M571.12,109l-.15-2c.74-.08,1.24-1.78,1.78-.86C573.47,107.42,573,108.79,571.12,109Z" transform="translate(-0.9 -0.89)"/><path class="cls-42" d="M367.19,112.84c.95,1.6,2.2,3.17,1.38,6.07C367.93,116.41,366.48,115,367.19,112.84Z" transform="translate(-0.9 -0.89)"/><path class="cls-43" d="M477.87,112.39c2.64,6.79,5.09,13.66,8,20.34,1.6,3.72.59,4.51-3.09,4.29a96.34,96.34,0,0,0-12.94,0c-3.47.27-3.38-1.35-2.71-3.73a13.9,13.9,0,0,1,1.77-4.29.55.55,0,0,0,.22-.74c1.09-3.48,1.89-7.08,4.08-10.12h0c.89-1.59.15-3.82,2-5h0c.55-.68.18-2,1.34-2.2C477.37,110.79,477.68,111.61,477.87,112.39Z" transform="translate(-0.9 -0.89)"/><path class="cls-19" d="M473.18,118.16a37.82,37.82,0,0,1-4.08,10.12c-.74-3.8,2.29-6.79,2.2-10.44Z" transform="translate(-0.9 -0.89)"/><path class="cls-19" d="M475.13,113.12a9.23,9.23,0,0,1-2,5c-.3-2.53-1.22-5-.62-7.65C474.52,110.46,473.77,112.79,475.13,113.12Z" transform="translate(-0.9 -0.89)"/><path class="cls-19" d="M477.87,112.39c-1.47-1.78-1.95.13-2.77.74v-4.26C476.83,109.64,478.06,110.42,477.87,112.39Z" transform="translate(-0.9 -0.89)"/><path class="cls-19" d="M478.2,105.87a5.21,5.21,0,0,1,.63,1.53c.07.7-.4,1.43-1.15,1-.4-.2-.51-1.12-.6-1.74S477.21,105.72,478.2,105.87Z" transform="translate(-0.9 -0.89)"/><path class="cls-19" d="M468.88,129a7.49,7.49,0,0,1-1.77,4.29C466.87,131.53,467,129.93,468.88,129Z" transform="translate(-0.9 -0.89)"/><path class="cls-44" d="M429.59,248.66c0-10.51,0-10.51,10.38-10.46,1.49,0,3,0,4.48,0,3.24-.11,5,1.28,4.95,4.68,0,4.14-.08,8.29,0,12.43.06,2.9-1.33,4.3-4.12,4.44-1.49.07-3,.07-4.47.07C429.59,259.85,429.59,259.85,429.59,248.66Z" transform="translate(-0.9 -0.89)"/><path class="cls-45" d="M418.14,161.06c-.07-15.54-.12-31.08-.25-46.62,0-1.89.72-4-1-5.63.2-.77.31-1.9,1.46-1.21,1,.59.55,1.81.55,2.76q0,24,0,47.9A3.64,3.64,0,0,1,418.14,161.06Z" transform="translate(-0.9 -0.89)"/><path class="cls-26" d="M411.79,124.83c-.91.46-.55,2-1.8,2.14-1-3.45,1.42-5.56,3.16-7.93C412.7,121,412.24,122.9,411.79,124.83Z" transform="translate(-0.9 -0.89)"/><path class="cls-25" d="M482,263.24c.49-7.15,6.14-12.13,8.31-19L496,257a10.23,10.23,0,0,1,1.87,4.17l-.08-.1c1.43,2.45-.46,2.44-1.93,2.42C491.23,263.41,486.59,264.19,482,263.24Z" transform="translate(-0.9 -0.89)"/><path class="cls-17" d="M482,263.24c4.11,0,8.23.07,12.34.07,1.61,0,3.49.34,3.43-2.24,1.1.55,1.52,1.47.65,2.35C496.85,265,484.15,264.78,482,263.24Z" transform="translate(-0.9 -0.89)"/><path class="cls-17" d="M497.85,261.17A6,6,0,0,1,496,257C497.88,257.82,498.17,259.36,497.85,261.17Z" transform="translate(-0.9 -0.89)"/><path class="cls-14" d="M631,253.94l2.84-1.08c.27.72.55,1.44.83,2.17A3.13,3.13,0,0,1,631,253.94Z" transform="translate(-0.9 -0.89)"/><path class="cls-34" d="M28,137c.21-2.7,2.07-2.95,4.24-3,2.7-.1,5.49.54,8.71-.71-5-3.48-11.28,1.91-15.37-3.58,3.33-2.36,7-1.58,10.5-1.66,3.65-.08,7.4.47,10.92-.18,2.62-.49,2.62,1.76,4,2.4.64.29-.82,2.6,1,1.64,3.75-2,6.63,1.26,10,1.12h0c-5.91.69-6,4-5.29,9.14.64,4.83,2.2,10.66-2.9,14.71-1.09-4.58,0-9.21-.28-13.81-.35-5.45-1.12-6.38-6.48-6.52-3.64-.1-7.29.06-10.94-.05-3.45-.1-4.76,1.49-4.64,4.81.12,3.15.11,6.31,0,9.45-.11,3.38,1.4,4.83,4.75,4.78q6-.07,11.93,0c2,0,4-.16,5.69,1.28-1.28,3.59,2.43.52,2.78,2.39-1.92,2.58-5.26,1.33-7.07.83a31.83,31.83,0,0,0-16.41-.14c-1.62.39-2.6-.87-3.17-1.65-1.73-2.41-3-.75-5.37,1.5,2.88-7.33,2.35-13.47,2.39-19.56,0-1.16-.09-2.36,1-3.18,1.05,5.2.27,10.46.35,13.17C28,147.47,29.24,142.2,28,137Z" transform="translate(-0.9 -0.89)"/><path class="cls-34" d="M27,121c0-4.5.07-9,0-13.49-.06-2.72.67-4.29,3.81-4.59,8-.77,15.89-2.92,24-1.89.63.08,1.36,0,1.66,1.25-2.06,1.57-4.29-1.43-7,.55,7.32,0,6.54,5.13,7.21,9.55.73,4.77.39,9.27-2.25,13.41A2.9,2.9,0,0,1,51.81,127c-7,0-14,.32-21-.2-2.4-.18-6.53-1.24-3.85-5.78,1.61.44,1.49-.75,1.5-1.67,0-3.28,0-6.55,0-9.82-.06,3.07,0,6.13-.06,9.2C28.41,119.63,29.09,121.26,27,121Z" transform="translate(-0.9 -0.89)"/><path class="cls-16" d="M18.09,162q22.65,0,45.3,0c.89,0,2-.5,3,.9H18.09Z" transform="translate(-0.9 -0.89)"/><path class="cls-46" d="M66.08,129.13c0,.62-.06,1.24-.08,1.87l-4.9-.18C62.23,128.69,64.17,129,66.08,129.13Z" transform="translate(-0.9 -0.89)"/><path class="cls-47" d="M52.76,129.74l4.18-2.06C57.19,129,56.66,130.17,52.76,129.74Z" transform="translate(-0.9 -0.89)"/><path class="cls-48" d="M165,137l3-2c3-2.1,5.83-4.57,9.86-4.33,4,3.8-.09,3.62-2.18,5.17-9.13,6.73-17.81,14-22,25.12a72,72,0,0,0-9.83,31.85c-3.85,9.2-.39,18.27.92,27.24,1.48,10.13,6.24,19.21,12.4,27.34a68.29,68.29,0,0,0,29.9,23.07c11.59,4.56,23.28,5.92,35.13,3,8.57-2.11,17.53-4.12,24.06-11a5.78,5.78,0,0,1,4.31-2.23,3,3,0,0,1,1.45.53c1.19,2.14-.17,3.38-1.6,4.59C245.5,268,241.36,272,236,274c-2.61,3-5.78,4.11-9.89,4.31-6.5.31-12.74,2.65-19.39,3.08-3.95.26-6.43-2-9.71-2.63a84,84,0,0,1-18.71-6.05A53.93,53.93,0,0,1,158,257.28a89,89,0,0,1-7.68-11.08c-4.26-7.6-7.39-15.63-10.88-23.53a4.52,4.52,0,0,1-.41-1.42c-.78-9.56-4.32-19-2-28.7,1.94-8.11,3.41-16.27,6.6-24.19,2-5,6.16-8.56,7-14.41.65-4.44,6.12-7.29,9.34-10.95C160.4,139.94,163.84,139.43,165,137Z" transform="translate(-0.9 -0.89)"/><path class="cls-49" d="M178,131c-3.61.64-6.19,3.85-10,4-.82-1-2.11-2.1.27-2.57,2.59-.5,3.88-2.17,4.73-4.43,5.75-2.6,11.63-4.73,18-5a1.27,1.27,0,0,1,.32.82c0,.3,0,.45-.08.45a51.11,51.11,0,0,1-6.84,7.49C182.29,131.54,179.85,133.7,178,131Z" transform="translate(-0.9 -0.89)"/><path class="cls-48" d="M236,274c4.85-2.72,8.39-7.47,14-9,1-.29,1.23.11,1,1,.55,1.29,1.62,2.76-1,3-2.87-.63-4.89,1-7.11,2.42S238.68,274.19,236,274Z" transform="translate(-0.9 -0.89)"/><path class="cls-49" d="M165,137c1.64,1.5.3,2.33-.82,2.85A14.61,14.61,0,0,0,160,143C159,138.81,161.18,137.21,165,137Z" transform="translate(-0.9 -0.89)"/><path class="cls-48" d="M252,261h-1c-.26-3.63,2.79-5,4.89-6.92,8.24-7.41,13.4-16.74,16.86-27,4-11.86,4.47-24.17,4.06-36.56-.12-3.57-2.31-6.55-2.56-10-3.15-12.76-8.16-24.58-18.4-33.32-4.91-4.19-9.32-8.95-15-12.35-2.58-1.55-5.07-1.89-7.75-2.32a3.56,3.56,0,0,1-1.34-.12c-2.82-1.57-4.32-4.44-6.54-6.6-.69-1.28-2.69-1.78-2.23-3.74,1.44-.14,3.07-1.07,4.27.18,2.82,2.95,7.11,3.95,10.24,4.09,6.36.29,8.59,4.55,11.61,8.45.65.85,1.22,1.23,1.71.05.62-1.49,1.3-1.1,2.13-.25,3.44,3.53,7.82,6.31,9.22,11.5a2.58,2.58,0,0,0,2.09,1.9c1.2.26,2.57.8,2.81,1.86,1.61,6.92,7.2,11.7,9.28,18.62,2.3,7.62,5.32,15.13,6.71,23,.9,5.08.07,10.5-.14,15.76-.34,8.2-3.55,15.68-6.25,23.26A28.34,28.34,0,0,1,274,235h0c-2.36,1.32.77,5.39-3,6-2.32,2.43-1.88,6.92-6,8v2q-2.89,3.1-6,6l-2,2C255.87,261,254.46,262.31,252,261Z" transform="translate(-0.9 -0.89)"/><path class="cls-50" d="M223,122c.72,1.25,2.56,1.42,2.93,3-.39.51-.67,1.54-1.12,1.51-5-.26-5,3.78-6.09,6.88-1.51.56-2.86,0-4.23-.53-2-1-3.8-2.47-6.27-2.61-3.75-.2-6.81.59-8.54,4.32-.52,1.13-.92,2.54-2.57,2.63-1.14-4.81-5.74-8-6.12-13.21l0-1C201.49,116.33,212.13,115.38,223,122Z" transform="translate(-0.9 -0.89)"/><path class="cls-48" d="M259,257a7.93,7.93,0,0,1,6-6l2.9,4.69c-2.69-.6-5.45-2.79-6.22,1.92C261.27,260.13,260,257.08,259,257Z" transform="translate(-0.9 -0.89)"/><path class="cls-48" d="M265,249c2.83-2.05,2.26-6.64,6-8,.3,3-1.13,5.78-1.8,8.52C268.15,253.83,266.44,249.59,265,249Z" transform="translate(-0.9 -0.89)"/><path class="cls-48" d="M252,261l5-2c-.44,1.26,4,.89,1,3-2.7,0-2.13,4.17-5,4h-2l-1-1C250.56,263.61,252.15,262.74,252,261Z" transform="translate(-0.9 -0.89)"/><path class="cls-36" d="M253,266c1.78-1.18.94-5.65,5-4-.81,1.34-.47,3-1.56,4.37C254.8,268.46,254,267.74,253,266Z" transform="translate(-0.9 -0.89)"/><path class="cls-48" d="M274,235c3.67,1.26,0,3.31,0,4.94V235Z" transform="translate(-0.9 -0.89)"/><path class="cls-48" d="M283,219.7c.2.41.57.82.57,1.23a.6.6,0,0,1-1,.51c-.3-.25-.36-.85-.41-1.31C282.19,220,282.66,219.89,283,219.7Z" transform="translate(-0.9 -0.89)"/><path class="cls-51" d="M552,129c-.13.77-.16,1.71-1.29,1.5-.26-.05-.64-.82-.56-1.16.32-1.3,1.18-.45,1.85-.34Z" transform="translate(-0.9 -0.89)"/><path class="cls-52" d="M53.85,156.81c-7,1-14,.25-20.93.48-2.35.08-3.23-.76-3.16-3.16.13-5.16.11-10.32,0-15.48-.06-2.46.61-3.63,3.35-3.55,5.82.16,11.64.06,17.47,0,2.35,0,4.07,1,4.06,3.4,0,6.11,1.1,12.28-.82,18.31Z" transform="translate(-0.9 -0.89)"/><path class="cls-6" d="M28,137c2.19,5.54.37,11.23,0,16.86V137Z" transform="translate(-0.9 -0.89)"/><path class="cls-39" d="M41.42,125.78c-11.64,0-11.64,0-11.64-11.65,0-9.8,0-9.8,10-9.81,3.33,0,6.66.07,10,0,3.71-.12,5,1.83,5,5.24,0,3.66-.07,7.32,0,11s-1.53,5.54-5.41,5.3C46.75,125.64,44.08,125.78,41.42,125.78Z" transform="translate(-0.9 -0.89)"/><path class="cls-6" d="M27,121c2.41-4.77,0-10,2-14.87,0,5,.21,10-.1,14.9-.15,2.34-1.25,1-1.9,0Z" transform="translate(-0.9 -0.89)"/><path class="cls-53" d="M275,180c2.57,5.73,3.14,11.65,3.28,18,.17,7.23-1.15,14.19-2.06,21.17-1.29,9.89-6.4,18.42-11.53,27-3.64,6-9.92,9.23-13.69,14.89a4.54,4.54,0,0,0-3,1.51C234,274.75,217.5,278,199.72,275.3c-20.87-3.2-36.33-15.05-47.3-32.58a70.39,70.39,0,0,1-10.58-34.83c-.23-5.11-2.39-10.15,1.16-14.89,2.43,3.82.85,8.08,1.13,12.09,1.18,16.57,7.2,31.07,17.33,44.06a56.47,56.47,0,0,0,33.3,20.92c2.72.61,5.27,2,8.18,1.62a12.24,12.24,0,0,1,3.66.48c2.59,1.91,5.18,1.34,7.77,0a21.64,21.64,0,0,1,4.32-.54c11.66-1.36,21.29-6.85,29.75-14.68,7.24-6.25,12.88-13.82,18.07-21.78a47.82,47.82,0,0,0,7.59-24.75,6.77,6.77,0,0,1,.58-1.49c1.8-5.78,1.06-11.65.47-17.49-.31-3.08-1.53-6-1.32-9.21A3.29,3.29,0,0,1,275,180Z" transform="translate(-0.9 -0.89)"/><path class="cls-54" d="M203,273c-8.88-1.36-17.5-3.27-25.38-8.08A77,77,0,0,1,158,248.08c-3.14-3.83-5.35-8.59-7.29-13.22-3-7.16-5.89-14.35-7.07-22.18-1-6.58-.77-13.11-.66-19.68,0-12,3.61-22.93,10-33,2.1-1.6,2.16-5.92,6.34-4.74.73,2.35-1.15,3.54-2.28,5.06-2.65,3.57-5.23,7.16-4.82,12-.78,4.58-3,8.73-3.67,13.4-2.35,15.88-2.09,31.54,5.07,46.17,6.74,13.78,15.87,25.57,30.69,31.88,4.12,1.75,8,3.88,12.55,4.51C198.81,270,202.79,269.06,203,273Z" transform="translate(-0.9 -0.89)"/><path class="cls-53" d="M159,155l-6,5c3.27-10,10.94-16.5,18.76-22.67,1.64-1.29,2.67-4.73,6.39-3.28,1,.39-.59-2-.15-3.05,2,1.1,4-.22,6,0,1,1.16.41,2.25-.11,3.36a10.11,10.11,0,0,1-2.93,3c-7.49,4.41-14.92,8.89-20,16.3A2.9,2.9,0,0,1,159,155Z" transform="translate(-0.9 -0.89)"/><path class="cls-55" d="M183,134l1-3c2.19-2.47,4.05-5.27,7-7,2.59,4.06,7.13,7.22,6,13a11,11,0,0,1,2.56,6.64,2.65,2.65,0,0,1-1.38,1.64,2.14,2.14,0,0,1-1.41-.11,25,25,0,0,1-4.13-4.87c-1.8-2.68-3.54-5.24-7.47-4.17C183.55,136.56,183.49,135,183,134Z" transform="translate(-0.9 -0.89)"/><path class="cls-53" d="M275,180v2c-2.37.21-2.77-1.73-2.91-3.21-.35-3.69-2.4-6.4-4.52-9.13-2.26-6.3-6.9-11.12-10.29-16.72-2-3.35-5.48-5.16-8.48-7.44-2.86-3.53-5.66-7.16-11-6.65-.71-2.91-4.73-3.5-4.82-6.85.87-3.12,2.21-.48,3.23-.19a33,33,0,0,1,12.62,7.5c2.89,2.73,5.94,5.29,8.94,7.9A43.71,43.71,0,0,1,270.87,167C272.26,171.34,276.37,174.83,275,180Z" transform="translate(-0.9 -0.89)"/><path class="cls-56" d="M219,133c-1.89-2.82,1.55-5.71-.15-8.8,2.28,2,4.56,3,7.09.81l6.07,7a1.59,1.59,0,0,1,.23,2c-5.34-1.28-9.75-.69-11.81,5.39-.41,1.2-1.55,1-2.23-.17C217.45,137,217.44,134.89,219,133Z" transform="translate(-0.9 -0.89)"/><path class="cls-57" d="M232,134c0-.67,0-1.34,0-2h1c1.51,2.44,6.38,2.49,5,7l-.48.47a3,3,0,0,1-2.61,0,9,9,0,0,1-2.54-3C232,135.67,231.42,134.92,232,134Z" transform="translate(-0.9 -0.89)"/><path class="cls-58" d="M199,144c-.29-2.44-2.85-4.23-2-7,2.15-5.49,5.31-9.11,12.08-8.14,2.61.37,3.93,2.16,5.92,3.14,1.13,1.47,1.5,3.31,2.15,5,1.18,3,.36,5.46-3.31,6.11-1-1-1-2.43-1.35-3.68-1-3-3.13-3.48-5.91-3.2s-4.3,1.46-4.32,4.37c0,1.48,0,3-.92,4.31C200.17,145.62,199.53,145,199,144Z" transform="translate(-0.9 -0.89)"/><path class="cls-59" d="M214,143c1.47-2.15,5-3.95.84-6.93-1.54-1.1.36-2.68.16-4.07l4,1v7c1.32,2.53-.53,3.91-2,5.44a2.92,2.92,0,0,1-3.09-.2A1.79,1.79,0,0,1,214,143Z" transform="translate(-0.9 -0.89)"/><path class="cls-60" d="M249,145c7.35,1.95,9.72,8.9,13.93,14A23.85,23.85,0,0,1,268,169c4.19,6.19,5.34,13.27,6.7,20.47A87.07,87.07,0,0,1,276,205.21c0,1.66.05,3.34-1,4.79-1.09,9.15-4.25,17.67-8,26-3.62,7.55-9.5,13.36-15,19.47a3.94,3.94,0,0,1-3,1.53c-.72,1.16-1.57,2-3.05,1.17-.63-2.33,1.34-3.11,2.55-4.38,5.34-5.62,11.33-10.78,13.61-18.64,1.78-4.62,3.72-9.18,5.51-13.78A56.09,56.09,0,0,0,271.05,204a64.5,64.5,0,0,0-3.29-23.89c-.69-2-1.31-4.08-1.85-6.16-.2-6.27-4.08-10.81-7.35-15.64a15.83,15.83,0,0,1-1.28-1.56,31.64,31.64,0,0,0-2.51-3,8.58,8.58,0,0,1-.81-1.07C252.79,149.79,248.77,148.77,249,145Z" transform="translate(-0.9 -0.89)"/><path class="cls-61" d="M263,236c-1.17,6.32-6,10.26-9.8,14.83A101.49,101.49,0,0,1,246,258c-1.5,3.16-4.46,4.67-7.32,6.1-6.44,3.23-13.18,5.81-19.68,8.9h-5c-2.33,1-4.67,1.46-7,0h-4c-.89-3-5.11-1-6-4-1.65-1.43-5.6-.17-5-4.26a4.45,4.45,0,0,1,3.57-.73c2.25.4,3.64,2.28,5.6,3.19.84.44,1.68.89,2.5,1.36,6.29,3.49,12.24,3.12,17.84-1.51a18.57,18.57,0,0,1,3.95-2.93,90.73,90.73,0,0,0,18.88-9.93A32.45,32.45,0,0,0,257,240.7c.75-1.74,1.55-3.44,3.3-4.44C261.17,235.85,262,235.41,263,236Z" transform="translate(-0.9 -0.89)"/><path class="cls-54" d="M275,210c.64-11.18-1.6-22-3.87-32.86-.62-3-3.56-4.88-3.13-8.14,2.81,2,4.74,4.64,5,8.2.12,1.88.51,3.55,2,4.8,1.25,7.58,2.61,15.15,2,22.9C276.87,206.85,277.31,209,275,210Z" transform="translate(-0.9 -0.89)"/><path class="cls-62" d="M219,273a42.72,42.72,0,0,1,11.42-6.55A58.35,58.35,0,0,0,246,258l3-1c-.56,5.23-6.07,4.83-8.82,7.69C234.51,270.61,226.35,270.94,219,273Z" transform="translate(-0.9 -0.89)"/><path class="cls-54" d="M267,236c.05-7.08,5-12.69,5.87-19.59.27-2.14.59-4.55,2.13-6.41A38.48,38.48,0,0,1,267,236Z" transform="translate(-0.9 -0.89)"/><path class="cls-61" d="M207,273h7C211.67,275,209.33,276.43,207,273Z" transform="translate(-0.9 -0.89)"/><path class="cls-61" d="M192,265c.87,2.33,3.75,2.14,5,4-8.82.05-15.5-5.22-22.47-9.42-6.63-4-11.74-9.71-15.89-16.35-7.68-12.31-12.79-25.13-12.46-40.1.15-7,1.06-13.85,1.66-20.77.34-3.82,3.46-6.52,3.16-10.36,4.24-10.07,9.21-19.63,18.23-26.39,1.47-1.1,2.54-2.65,4.12-3.59s2.92-2.47,4.89-.91c.39,2.82-1.65,4.16-3.44,5.64-20.12,16.69-26.45,38.33-24.05,63.77,1.4,14.7,8.65,26.19,16.7,37.63,1.57,2.23,3.8,3.73,5.65,5.63s3.29,3.86,6,4.31c2.41.83,3.84,3.11,6.14,4.11a25.16,25.16,0,0,0,5.07,1.69A3,3,0,0,1,192,265Z" transform="translate(-0.9 -0.89)"/><path class="cls-63" d="M178,141c-8.95,3.75-14.69,10.91-19.74,18.74-2.58,4-4.85,8.17-7.26,12.26-.61-5.32,2.6-9.06,5.45-12.91,1-1.3,2.58-2.17,2.55-4.09,3.73-7.7,10.72-11.81,17.54-16.18,1.46-.94,2.16-3.16,4.48-1.82a1.78,1.78,0,0,1,.38,1.9A4.71,4.71,0,0,1,178,141Z" transform="translate(-0.9 -0.89)"/><path class="cls-64" d="M181,139c0-.66,0-1.32.05-2-.14-1.53,1.35-2,2-3,.36.34.81,1,1.08,1,8.5-2,9.52,5.5,12.89,10a2.84,2.84,0,0,1-2.67.86,2.31,2.31,0,0,1-1.33-.53c-3.11-3.8-7.32-5-12-5.11a.83.83,0,0,1-.27-.8C180.82,139.13,180.89,139,181,139Z" transform="translate(-0.9 -0.89)"/><path class="cls-65" d="M194,145h4c3.44,1.86,6.47,4.43,10.95,3.85,3-.4,5.08-2.39,7.76-3.22,1-.71,2-1.68,3.43-1.27a1.69,1.69,0,0,1,1.13,1c-2.19,5.7-7.08,7.69-12.46,8.82a23.48,23.48,0,0,1-5.37.07A7.26,7.26,0,0,1,198,152a8.67,8.67,0,0,1-.88-1.14C196.34,148.73,193.4,147.8,194,145Z" transform="translate(-0.9 -0.89)"/><path class="cls-66" d="M217,146c-7.69,6.18-13.52,5.88-19-1l1-1,2,1a3.1,3.1,0,0,1,2.08-.84c3,.71,5.92.23,8.88-.13a3.61,3.61,0,0,1,2,1h3c.3.22.41.44.3.67S217.1,146,217,146Z" transform="translate(-0.9 -0.89)"/><path class="cls-57" d="M249,145c1.41,3.11,5.46,4.24,6,8-4.8-.69-6.89-5.2-10.54-7.54-1.63-1.05-2.91-2.66-5-3.09-1.23-.8-2.73-1.48-1.51-3.37h0c1.41-1.72,2.75-2.55,4.92-.75C245.3,140.23,248.3,141.54,249,145Z" transform="translate(-0.9 -0.89)"/><path class="cls-67" d="M217,146v-1l2-5c1.83-2.55,1.37-6.22,5.88-7.56,3.4-1,5.06-.38,7.14,1.57.34.65.67,1.31,1,2-.1.2-.19.41-.29.62a10.78,10.78,0,0,0-9,5.42,9.12,9.12,0,0,1-3.77,3Z" transform="translate(-0.9 -0.89)"/><path class="cls-68" d="M238,139c-.16,1.55,1.39,2,2,3,11.63,7.14,19.12,17.84,25.36,29.6.87,1.63.8,3.5.77,5.32a3.79,3.79,0,0,1-.81,2c-2.1.77-2.66-1-3.16-2.24-1.4-3.37-3.45-6.38-5.1-9.61-4.76-9.34-11.53-16.85-21.15-21.47a4.69,4.69,0,0,1-1.73-2.37,5.73,5.73,0,0,1-.24-1.49,3.34,3.34,0,0,1,1-2.75Z" transform="translate(-0.9 -0.89)"/><path class="cls-67" d="M235,139l0,3c-3.36-1.08-3.17-3.36-2-6L233,136Z" transform="translate(-0.9 -0.89)"/><path class="cls-69" d="M214,145h-2c-.34-.36-.63-.75-.94-1.14-3.32-4.16-5.19-3.89-8.06,1.14h-2v-2c0-7.4,1-8.67,7.82-8.29C214,135,214.21,139,214,143Z" transform="translate(-0.9 -0.89)"/><path class="cls-70" d="M265,177c.62-6.68-4.79-10.6-7.38-15.78a38.6,38.6,0,0,0-13.19-14.57A14,14,0,0,1,240,142c5.16-.1,6.67,5.2,10.51,7.13,1.71.85,3,2.55,4.49,3.87a7.79,7.79,0,0,0,3,3l1,1c1.93,5.7,6.33,10.17,8,16,3.89,9.37,4.87,19.42,5.61,29.3.42,5.66-1.61,11.58-3,17.27A80.8,80.8,0,0,1,263,236l-2,1c-1.52-2.72-.31-5.3,1-7.48,3.72-6.32,4.46-13.4,5.7-20.37a17,17,0,0,1,.39-3.09c1.05-3.94.67-7.92.39-11.9a8.92,8.92,0,0,1-.38-1.41,23.48,23.48,0,0,0-1-4.91,21.65,21.65,0,0,1-1.32-6.27C265.65,180,266.34,178.35,265,177Z" transform="translate(-0.9 -0.89)"/><path class="cls-57" d="M267,173c-2.91-5.21-7.65-9.51-8-16C262.48,161.93,266.71,166.48,267,173Z" transform="translate(-0.9 -0.89)"/><path class="cls-57" d="M258,156a2.81,2.81,0,0,1-3-3A6.25,6.25,0,0,1,258,156Z" transform="translate(-0.9 -0.89)"/><path class="cls-71" d="M181,139l.07,1c1.26,1.77.21,3.38-.36,5-4.69,5-10.19,9.14-14.49,14.68-5,6.4-7.93,13.57-10.73,20.95-4.26,13.74-5,27.47.24,41.14a32.81,32.81,0,0,0,2.69,6.38,6.36,6.36,0,0,1,.58,1.4c5,13.66,14.5,23.07,27.62,28.94,2.1.94,4.29,1.78,6.45,2.6,1.68.63,3.48,1.45,3,3.88h-6c-1.35-1.45-3.34-1.31-5-2-2.85-.05-3.71-3.1-6-4-2.47-.63-4-2.72-6-4-7.78-4.85-11.25-13.09-16-20.35-7.58-11.68-8.15-24.85-8-38.13.15-15.8,5.65-29.61,15.66-41.78,3.08-3.75,6.28-7.27,10.45-9.78,1.57-.94,2.08-2.52,2.87-4A3,3,0,0,1,181,139Z" transform="translate(-0.9 -0.89)"/><path class="cls-72" d="M226,265c-4.69,3.88-9.14,8.25-16.08,7-2.57-.45-5.29-.44-6.92-3a2.2,2.2,0,0,1,2.3-.52c7.87,2.89,13.76-.41,18.91-6,4.24-5.69,11.4-7.08,16.64-11.32,5.58-4.5,10.76-9.26,13.83-15.92a4.18,4.18,0,0,1,3.22-2.79,2.52,2.52,0,0,1,1.37.5c1.77,4.37-2.93,6.44-3.53,10-2.39,3-4.57,6.17-7.51,8.69C241.06,256.48,233.56,260.79,226,265Z" transform="translate(-0.9 -0.89)"/><path class="cls-73" d="M196,265c-1.92-3.79-6.05-3.59-9.24-5-13.38-5.73-22.73-15.42-28.69-28.55A4.3,4.3,0,0,1,158,230c3.35.35,3.62,3.73,5.47,5.55.48.77.9,1.59,1.31,2.4,2.66,5.45,7.34,9.06,11.74,12.92a10.19,10.19,0,0,1,1.08.78,11.6,11.6,0,0,0,4.44,2.73c3.83,1.62,8,2.14,11.8,3.91,3.16,1.9,5.15,4.95,7.5,7.66A1.93,1.93,0,0,1,201,268C198.67,268.1,197.84,265.7,196,265Z" transform="translate(-0.9 -0.89)"/><path class="cls-68" d="M255,243c-.38-4,4.76-5.83,4-10-.29-4.26,3.43-7,4.12-11,.57-3.36,1.93-6.68,3-10,.74-1.2.67-3.18,2.86-3-1.36,7.17-1.79,14.54-5.88,21-1.25,2-1.44,4.64-2.12,7-1.81.73-2.17,2.54-3,4C257.09,241.8,256.87,243.63,255,243Z" transform="translate(-0.9 -0.89)"/><path class="cls-68" d="M226,265c2.21-3.91,6.53-4.65,10-6.6,4.1-2.29,7.13-6.31,12-7.4.42,2.4-1.84,2.79-3,4C239.14,259.24,233,262.89,226,265Z" transform="translate(-0.9 -0.89)"/><path class="cls-74" d="M201,268v-2l.67-.29c1.88,0,3.47,1,5.21,1.43a14.23,14.23,0,0,0,13.45-2.79c1.37-1.12,2.47-2.75,4.58-2.55a.7.7,0,0,1,.35.78c-.08.28-.16.42-.26.42-6,7.62-11.24,9-22,6A2.07,2.07,0,0,1,201,268Z" transform="translate(-0.9 -0.89)"/><path class="cls-70" d="M245,255l3-4c2.35-2.65,3.71-6.17,7-8l3-2A28.6,28.6,0,0,1,245,255Z" transform="translate(-0.9 -0.89)"/><path class="cls-61" d="M173,255c2.68.31,4,2.64,6,4C175.93,259.27,174.43,257.19,173,255Z" transform="translate(-0.9 -0.89)"/><path class="cls-61" d="M185,263c1.93,0,4-.33,5,2C188.24,264.57,186.39,264.36,185,263Z" transform="translate(-0.9 -0.89)"/><path class="cls-75" d="M179.93,145l1.11-5c6-2.69,9.41,1.33,13,5l4,5c-1.47,1.25-2.93.48-4-.38-3.66-2.87-7.45-3.93-11.79-1.7-1.08.55-1.86-.07-2.49-.91A1.89,1.89,0,0,1,179.93,145Z" transform="translate(-0.9 -0.89)"/><path class="cls-76" d="M180,147c6.92-4.62,12.2.63,18,3v1c-.95,1.11-2.26,1.2-3.58,1.28-4.8-.46-9.76-1.68-13.44,3a1.47,1.47,0,0,1-1.43-.49,8.3,8.3,0,0,1-.12-7.17Z" transform="translate(-0.9 -0.89)"/><path class="cls-77" d="M233,136a9.58,9.58,0,0,0,2,6,8,8,0,0,1,0,1c-.56.85-.55,2.68-2.12,2-3.53-1.46-6.66,0-9.9.9a2.94,2.94,0,0,1-2-.91h-1c1.91-2.47,3.93-4.87,5.71-7.43C227.72,134.68,230.63,136.83,233,136Z" transform="translate(-0.9 -0.89)"/><path class="cls-78" d="M194,151h4c1.57.9,2.9,2.41,5,2,3.53.75,7,1.18,10.43-.54a3.08,3.08,0,0,1,3.26.23,1.39,1.39,0,0,1,.37,1.55c-5.76,4.85-12.13,3.37-18.52,1.8C196.71,154.65,193.86,154.17,194,151Z" transform="translate(-0.9 -0.89)"/><path class="cls-79" d="M217,153c-4.67-.05-9.33,2.66-14,0,7.58.9,13.6-1.74,18-8h2c1.36,3.16-1.54,4.19-3,6-.81.63-1.65,1.22-2.48,1.82Z" transform="translate(-0.9 -0.89)"/><path class="cls-80" d="M203,145c.57-1.86-1.53-5.2,2.36-5.2,3.28,0,7.5-.42,6.64,5.2C209,145.78,206,146.85,203,145Z" transform="translate(-0.9 -0.89)"/><path class="cls-81" d="M236,145c7.33,1.08,11.21,7,15.72,11.7,6.07,6.35,8.5,15.07,13.29,22.3a2.52,2.52,0,0,1,.85,1.34c.25,1.86,0,3.75.37,5.6a4.4,4.4,0,0,1-.91,3c-3.4.19-2.79-2.84-3.18-4.53-1.07-4.56-2.21-9-5.49-12.55a40.67,40.67,0,0,0-3.29-4.65c-3.89-6.54-8.44-12.5-14.64-17.05A11.17,11.17,0,0,1,235.6,147,1.92,1.92,0,0,1,236,145Z" transform="translate(-0.9 -0.89)"/><path class="cls-82" d="M236,145v2c1.51,1.91,1.44,4.09,1.05,6.32a3.73,3.73,0,0,1-.74,1.44,1.3,1.3,0,0,1-1.48.26,4.66,4.66,0,0,1-1.06-2.83c.2-4-2.32-4.06-5.26-3.82-3.09.26-5.17,3-8.25,3.22A2.27,2.27,0,0,1,219,151c.9-2.29,3.94-3.15,4-6,3.21-1.69,6.37-3.43,10-1,.86.57,1.25-.82,2-1.06C235.34,143.66,235.67,144.33,236,145Z" transform="translate(-0.9 -0.89)"/><path class="cls-68" d="M265,180v-3c1.82.76,2.09,2.29,2,4C265.85,181.63,265.56,180.54,265,180Z" transform="translate(-0.9 -0.89)"/><path class="cls-68" d="M265,180l2,1c.33,2.33.67,4.67,1,7,1.18,1.5-.23,3.51,1,5a36.4,36.4,0,0,1,0,13v3l-2,3c-2-2-1.21-4.63-1.38-7-.47-6.31.87-12.69-.62-19Z" transform="translate(-0.9 -0.89)"/><path class="cls-68" d="M269,206V193A17.89,17.89,0,0,1,269,206Z" transform="translate(-0.9 -0.89)"/><path class="cls-68" d="M269,193c-1.67-1.4-.76-3.32-1-5C269.67,189.4,268.76,191.32,269,193Z" transform="translate(-0.9 -0.89)"/><path class="cls-73" d="M158,229a37.73,37.73,0,0,1-6.93-20.09,74,74,0,0,1,.11-15.89c.65-4.4.11-9.42,3.82-13,1.52,1.4,1.27,3.27,1.38,5.05.13,5-1,9.9-1.13,14.9-.31,9.11,1.78,17.8,3.49,26.58A3,3,0,0,1,158,229Z" transform="translate(-0.9 -0.89)"/><path class="cls-83" d="M155,185v-5a44.81,44.81,0,0,1,8.91-19.31c4.59-6,9.41-11.76,16-15.68,0,.67.06,1.34.1,2l-.07,0a7.47,7.47,0,0,0-.91,1.86c-.67,1.84-2.37,2.74-3.68,4a60.65,60.65,0,0,0-15.74,24.43C157.71,179.62,158.59,183.65,155,185Z" transform="translate(-0.9 -0.89)"/><path class="cls-84" d="M158,229v-2c4.33,2.17,5.83,4.87,5,9-2.46-1.34-2.9-4.36-5-6Z" transform="translate(-0.9 -0.89)"/><path class="cls-85" d="M257,171c4.17,3.12,5.14,7.74,6.14,12.47.4,1.85.34,4,1.86,5.53,2.11,5.46.91,11.15.9,16.7,0,9.78-2.33,19.05-7.9,27.3-3.91,5-6.48,11.05-11.63,15.19-4.23,3.41-8.13,7.21-13.52,8.88-3.27,1-5,4.24-7.85,5.93v-1c-1.27-4.28,2.36-5.44,4.81-6.92,5.85-3.57,11.66-7.25,16.11-12.46,9.13-10.68,15.54-22.53,15.88-37.15.26-10.92-.42-21.53-5.45-31.47A2.85,2.85,0,0,1,257,171Z" transform="translate(-0.9 -0.89)"/><path class="cls-86" d="M258,233c6.76-14,7.52-28.88,7-44v-3c2.33,1.07,2,3.18,2,5.14V212c-1.43,7.47-3.37,14.75-8,21Z" transform="translate(-0.9 -0.89)"/><path class="cls-87" d="M163,236c-.11-3.87-3-6.2-5-9a76.8,76.8,0,0,1-3.2-37,43.38,43.38,0,0,0,.2-5c1.71-2.48,1.43-5.95,4-8l.53.54a5.36,5.36,0,0,1,.22,3.7c-.37,1.48-.64,3-1.06,4.47a44.23,44.23,0,0,0-.88,25.92,73.8,73.8,0,0,0,1.95,8.94c5.47,14.8,14.4,26.58,28.85,33.75,2.35,1.17,5.68,1.22,6.57,4.59A.72.72,0,0,1,194,259c-4.48-.87-9-1.64-13-4-1.38-.93-2.58-2.12-4-3h0c-4.91-4.13-9.57-8.49-13-14A2.06,2.06,0,0,1,163,236Z" transform="translate(-0.9 -0.89)"/><path class="cls-84" d="M164,238l13,14C171.35,248.56,166.4,244.46,164,238Z" transform="translate(-0.9 -0.89)"/><path class="cls-74" d="M194,259h1c1.66-.71,2.45.67,3.51,1.43,1.2,1.33,2.75,2.43,3.06,4.39A1.69,1.69,0,0,1,201,266h0C197.78,264.56,196.15,261.51,194,259Z" transform="translate(-0.9 -0.89)"/><path class="cls-84" d="M177,252c2,.08,3.12,1.4,4,3C179,254.92,177.88,253.6,177,252Z" transform="translate(-0.9 -0.89)"/><path class="cls-88" d="M201,266v-1a2.53,2.53,0,0,1,2-.76c3.1.87,6,2.64,9.4,2.33,4.78-.44,7.33-3.82,9.76-7.38,3.21-5.07,7.68-8.45,12.89-11.55,10.6-6.3,16.62-16.67,21.58-27.64,4.06-11.83,3.66-23.8,1.11-35.83-.62-2.91-2-5.67-1.64-8.75A2.77,2.77,0,0,1,257,174c4,2.83,3.75,7.64,4.78,11.61,2.29,8.85,2.24,18.17.91,27-1.18,7.83-4.72,15.29-9.08,22.22-5.63,8.94-13.2,15.49-22.26,20.65-2.62,1.48-5.84,2.77-6.35,6.49-2.66,1.39-4.1,4.25-7,5.5C212,270.14,206.45,269.09,201,266Z" transform="translate(-0.9 -0.89)"/><path class="cls-89" d="M180,155l1,0a2.59,2.59,0,0,1,.85,1.32,5.24,5.24,0,0,1-.31,3.13c-2.58,4.67-6.76,8.08-9.49,12.74-10.84,18.45-10.16,36.91-1,55.6a15.21,15.21,0,0,1,1,2.28c2.07,6.86,7.94,10.37,12.85,14.77,1.3,1.17,4.59,1.54,2.49,4.64-6.67-.89-10.78-5.76-14.67-10.31-11.78-13.77-16.05-29.83-13.22-47.76.31-2,.09-4,.26-6,3.32-11.7,9.94-21.38,18.42-29.91A2.43,2.43,0,0,1,180,155Z" transform="translate(-0.9 -0.89)"/><path class="cls-90" d="M180,155c-7.91,9-15.52,18.2-19,30-.77,1.13-.82,3.33-3.16,2.16A1.84,1.84,0,0,1,158,185c.14-1.38-.46-2.95,1-4,4.08-10.76,9.65-20.56,18.12-28.52,1-1.36,1.16-3,1.88-4.48l1-1C180,149.66,180,152.32,180,155Z" transform="translate(-0.9 -0.89)"/><path class="cls-91" d="M181,156c0-.32,0-.65,0-1,.73-5.58,5.26-4.19,8.69-4.59A17.22,17.22,0,0,1,194,151l4,4c-.44.5-1,1-1.65.93C191.23,155,186.12,154.45,181,156Z" transform="translate(-0.9 -0.89)"/><path class="cls-92" d="M181,156c5.36-5.5,11.32-.72,17-1,6.42,1.38,12.8,1.82,19-1,5.72-3.15,11.37-6.95,18-2v3a2.19,2.19,0,0,1-1.72,1.7,48.05,48.05,0,0,0-18.2,1.56,33,33,0,0,1-16.25.25c-5.72-1.26-11.48-1.33-17.08.84L181,159Z" transform="translate(-0.9 -0.89)"/><path class="cls-93" d="M235,152c-6.37-2.73-12.07.67-18,2v-1h0c.78-1,2.1-1.18,3-2,3.28-1.27,5.71-4.14,9.76-4.13S235.72,147.76,235,152Z" transform="translate(-0.9 -0.89)"/><path class="cls-78" d="M220,151a3,3,0,0,1-3,2,1.82,1.82,0,0,1,2-2Z" transform="translate(-0.9 -0.89)"/><path class="cls-94" d="M236,154q0-3.5,0-7a43.46,43.46,0,0,1,18,20c-2.92.58-3.52-2.47-5.44-3.46C244.44,160.28,241.71,155.2,236,154Z" transform="translate(-0.9 -0.89)"/><path class="cls-95" d="M249,163c2.56.22,2.73,3.42,5,4,1.6.88,2.92,2,3,4v4a1.77,1.77,0,0,1-2.42-1.06c-1.31-3.47-4.1-5.88-6.05-8.88A2.06,2.06,0,0,1,249,163Z" transform="translate(-0.9 -0.89)"/><path class="cls-96" d="M234,156l1-1,1,0,.69.23c4.07,4,8.9,7.41,12,12.37,3.2,5.21,7.71,10,6.84,16.86-4.11,1.22-2.82-3.18-4.58-4.4a9.3,9.3,0,0,1-.61-1.17,8.31,8.31,0,0,0-2.3-3.79A107.12,107.12,0,0,0,233.43,158,2.2,2.2,0,0,1,234,156Z" transform="translate(-0.9 -0.89)"/><path class="cls-97" d="M249,163v2a.69.69,0,0,1,.31.75c-.07.26-.16.4-.24.4-4.93-1.81-7.34-6.54-11.15-9.66-.63-.51-1.3-1-1.91-1.49h0c0-.34,0-.67,0-1,1.51-.75,2.7-1.25,4.36.29C243.38,157.08,246.57,159.65,249,163Z" transform="translate(-0.9 -0.89)"/><path class="cls-87" d="M179,148c-.24,1.68.67,3.6-1,5-6.7,5.12-11.33,11.79-15,19.31-.85,1.73-.53,5-4,4.69h0c-.22-3.87,1.94-6.95,3.73-10A66,66,0,0,1,179,148Z" transform="translate(-0.9 -0.89)"/><path class="cls-98" d="M198,261l-3-2c-5.57-3.7-12.17-5.44-17.35-10-7.87-6.95-13.41-15.48-18.26-24.56-.51-.94-.28-2.27-.39-3.42-.84-1.18-.41-2.5-.39-3.77,1.81-1.49,2.8-.43,3.21,1.25,4.16,17,15.47,27.57,30.57,35C195.29,254.93,199.05,256.34,198,261Z" transform="translate(-0.9 -0.89)"/><path class="cls-98" d="M159,177c3.86-4.25,5-10.11,8.73-14.49,3-3.6,5.57-7.71,10.27-9.51-1.75,3.57-5.44,5.41-7.58,8.76-3.09,4.84-6.18,9.62-8.34,15-.65,1.62-1.19,3.47-3.08,4.27Z" transform="translate(-0.9 -0.89)"/><path class="cls-94" d="M158,185v2a2.91,2.91,0,0,1,.69,1.42,4.72,4.72,0,0,1-.14,1.59c-.86,5.52-1.8,11-.35,16.61a6.54,6.54,0,0,1-.62,4.81L157,212A35.35,35.35,0,0,1,158,185Z" transform="translate(-0.9 -0.89)"/><path class="cls-94" d="M159,217v4a16,16,0,0,1-2-9,.94.94,0,0,1,1.22-.12,4.25,4.25,0,0,1,.86,1.85C159.24,214.82,159.7,215.93,159,217Z" transform="translate(-0.9 -0.89)"/><path class="cls-99" d="M159,217c-.33-1-.66-2-1-3,.21-8.67-.67-17.33,0-26v-1c1.55.16,2-1.39,3-2,.31,6.45-1.58,12.76-1,19.25,1.54,18,8.76,32.73,24,43.05A21.85,21.85,0,0,0,188,249c8.17,2.36,12.86,8,15,16h-2l-3-4c-1.64-6.31-7.87-7.14-12.31-9.8-12.48-7.47-21-17.71-24.65-31.88C160.71,218.05,160.44,217.12,159,217Z" transform="translate(-0.9 -0.89)"/><path class="cls-100" d="M257,221c-1.32,6.35-5.23,11.35-9,16.29-4.93,6.47-10.55,12.37-18.77,14.75-2.05.6-1.87,2.56-2.83,3.79-1.1,1.41-1.53,3.41-3.42,4.17a2.84,2.84,0,0,1-.8-2.16c1-5.8,3.65-10.23,9.71-11.9,4.5-1.39,7.82-4.83,10.52-8.09C250,228.71,255.71,218.67,256,206c.12-6.13-.72-12.23-.2-18.34a3.41,3.41,0,0,1,1.52-2.86c3.84,3.21,2.49,8,3,11.91C261.21,204.91,259.64,213.11,257,221Z" transform="translate(-0.9 -0.89)"/><path class="cls-101" d="M223,258v2c-6.07,8.69-11.9,10.15-20,5-3.62-6.63-8.32-12.24-15-16-4.57-4-9.62-7.46-13.65-12.09-1.54-1.78-3.1-3.45-3.35-5.91,2.15-.56,2.79,1.32,3.83,2.45,5.18,5.57,10.42,11,17.87,13.64,4.56,1.62,6.38,6,8.85,9.62q5.55,11.27,14.47,6A18.77,18.77,0,0,0,219.5,259a4.16,4.16,0,0,1,1-.79C221.33,257.82,222.13,257.38,223,258Z" transform="translate(-0.9 -0.89)"/><path class="cls-102" d="M257,221c.88-5.48,1.89-10.94,2.62-16.43A35.92,35.92,0,0,0,257,185a115.12,115.12,0,0,0-8.32-17.21A1.43,1.43,0,0,1,249,166v-1c4.38,2,5.07,6.88,8,10,2.29,9.61,4.74,19.23,3.94,29.21-.41,5.06-1.4,10.08-2.27,15.09C258.55,219.94,257.58,220.44,257,221Z" transform="translate(-0.9 -0.89)"/><path class="cls-103" d="M201,257c-3.72-5.35-8.57-8.86-14.61-11.67-6.37-3-10.67-9.09-15.39-14.33a65.74,65.74,0,0,1-8.11-32.67c.2-14.38,6.07-26.05,15.38-36.43.88-1,1.79-1.92,2.69-2.87l.11-.06a3.21,3.21,0,0,1,1.89,3.09c0,2.33-1.47,4-2.83,5.61-7.68,8.9-8.67,10.48-11.42,19.39-.25.78-.52,1.56-.81,2.33-3.33,19.65.18,37,16.75,50,.36.3.7.64,1,1a20.29,20.29,0,0,0,8.79,4.8,7.42,7.42,0,0,1,1.3.54c3.57,1.77,4.45,5.37,5.87,8.61A2.61,2.61,0,0,1,201,257Z" transform="translate(-0.9 -0.89)"/><path class="cls-104" d="M182,162c-.31-1-.63-2-.94-3,5.83-4.6,12.43-2.91,18.63-1.69a38.44,38.44,0,0,0,17.64-.94c5.54-1.46,11-2.1,16.63-.33,0,.66.05,1.33.08,2,.77,1.39.2,2.16-1.18,2.56-6.22-2.91-12.53-1.36-18.89-.5-5.94.79-12,.16-17.94.32-2.47.06-5-.35-7.4.58a11.68,11.68,0,0,1-5.44,1.58A1.75,1.75,0,0,1,182,162Z" transform="translate(-0.9 -0.89)"/><path class="cls-105" d="M233,160a2.22,2.22,0,0,0,1-2c6.76,4.1,10.71,10.68,14.95,17,1,1.16.93,2.87,2,4h0c5.34,11.05,5.45,22.59,3.08,34.32a27.8,27.8,0,0,0-.74,4.88,12.79,12.79,0,0,1-.49,2.37c-4.79,7.91-9,16.3-16.93,21.75-.4.28-.67.8-1.1,1-7,3.1-11.3,8.63-13.82,15.69h-1c-1.65-4.72.5-8.79,2.22-12.94,1.05-1.81,2.85-2.64,4.58-3.65,18.61-10.85,26-28.74,23.51-49.61-1.34-11.06-6.48-19.54-13.94-27.15a28.28,28.28,0,0,1-3.49-4.21A1.27,1.27,0,0,1,233,160Z" transform="translate(-0.9 -0.89)"/><path class="cls-106" d="M252,219c.67-5,1.31-10.09,2-15.12,1.18-8.56-1.7-16.63-3-24.88,2.72,1.07,1.7,4.64,4,6l.57.61c1.4,10.62,2.35,21.22-1.16,31.66C254,218.48,254.09,220.21,252,219Z" transform="translate(-0.9 -0.89)"/><path class="cls-89" d="M249,166c2.22,6.52,7.36,11.81,8,19v3c-2.62.3-.7-2.42-2-3h0c-1.48-10.57-7.55-18.45-15.31-25.1A13,13,0,0,1,236,155c3.3-.13,4.13,3,6.1,4.66C244.52,161.64,246.71,163.88,249,166Z" transform="translate(-0.9 -0.89)"/><path class="cls-106" d="M251,179c-1.82-.76-2.09-2.29-2-4C250.82,175.76,251.09,177.29,251,179Z" transform="translate(-0.9 -0.89)"/><path class="cls-98" d="M158,212h-1c.31-6.79-2.25-13.57,0-20.39.3-.9.13-2,1-2.61A110.51,110.51,0,0,1,158,212Z" transform="translate(-0.9 -0.89)"/><path class="cls-90" d="M158,212V188c2,3.18,1,6.72.9,10-.16,5.32,1.21,10.75-.9,16Z" transform="translate(-0.9 -0.89)"/><path class="cls-96" d="M255,185l2,3c-.64,5.74.3,11.48.31,17.21,0,13.24-5.86,23.71-13.68,33.2-2.86,3.47-6.16,7.93-11.63,8.59-.05-3.49,3.25-4.34,5.19-6,6.58-5.53,11.2-12.37,14.81-20v-2c1.88.11,1.43-1.46,1.67-2.43,2.12-8.44,4.09-16.87,1.44-25.64C254.56,189.11,255,187,255,185Z" transform="translate(-0.9 -0.89)"/><path class="cls-107" d="M252,221c0,6.65-5,10.54-8.7,15-3.3,4-7.5,7.35-11.3,11-5.65,1.5-7.31,6.26-9,11l-2,1c.91-2.82,1.75-5.67,2.78-8.44.57-1.52,1.22-3.07,2.9-3.87,10.48-5,17.93-12.91,22.81-23.39C249.93,222.35,251.14,221.76,252,221Z" transform="translate(-0.9 -0.89)"/><path class="cls-108" d="M223,246c-.68,4.41-2.88,8.46-3,13-.07,2-1.4,3.12-3,4a1.28,1.28,0,0,1-1.89.08c-.84-2.47,1.8-3.63,2.13-5.67.66-1.63.41-3.35.44-5,.17-3-.37-6.2,3-7.94C221.86,244.38,223.06,244.28,223,246Z" transform="translate(-0.9 -0.89)"/><path class="cls-109" d="M215,263h2c-2.08,3-4.89,3.63-8.19,2.4-4-1.49-7.3-3.65-7.81-8.4v-3l.68-.15a2.74,2.74,0,0,1,1.53,1.83c1.55,5.74,5.45,7.81,11.11,7.2Z" transform="translate(-0.9 -0.89)"/><path class="cls-110" d="M182,162l1,0a3.36,3.36,0,0,1,.87,1.27c1.1,4.21-2.3,6.56-4.4,9-15.44,17.61-12.68,54.81,14.15,68.7A16.48,16.48,0,0,1,195.3,242c1.23,1.19,3.41,1.79,2.66,4.22a2.8,2.8,0,0,1-3-.22c-3.51-1.31-6.56-3.54-10-5h0c-3.18-4-7.51-7-10.48-11.24-6.44-9.14-8.51-19.59-8.28-30.47.07-3.38-.43-6.94.76-10.29a42.85,42.85,0,0,1,9.45-19.78C178.47,166.91,181.32,165.3,182,162Z" transform="translate(-0.9 -0.89)"/><path class="cls-109" d="M167,189c0,3.32,0,6.64,0,10-.17,14.82,3.56,28,15.42,38,1.24,1,2.62,2.13,2.59,4.05-14.16-9.15-18.82-23.31-19.8-39A29,29,0,0,1,167,189Z" transform="translate(-0.9 -0.89)"/><path class="cls-109" d="M185,241c4.07.19,7.07,2.53,10,5C190.79,246.08,187.79,243.76,185,241Z" transform="translate(-0.9 -0.89)"/><path class="cls-109" d="M195,246h3c3.47,1.74,5.06,4.18,3,8h0C198.46,251.74,198.12,247.83,195,246Z" transform="translate(-0.9 -0.89)"/><path class="cls-111" d="M233,160c0,.33,0,.65,0,1a1.55,1.55,0,0,1-.18,2.27,2.71,2.71,0,0,1-1.69,0c-4-3.14-8.61-3-13.32-2.55-8.6.88-17.22,1.32-25.85,1.72a8.08,8.08,0,0,1-4.37-.79L187,161c1.21-2.58,3.58-2,5.67-2,10.75-.07,21.55.56,32.15-2C228.21,156.24,230.3,159,233,160Z" transform="translate(-0.9 -0.89)"/><path class="cls-111" d="M183,163c0-.33,0-.65,0-1l4-1h0c1,2.59-.74,2.73-2.54,2.8A4.07,4.07,0,0,1,183,163Z" transform="translate(-0.9 -0.89)"/><path class="cls-112" d="M233,163c0-.67,0-1.33,0-2,9.32,7.93,16.53,16.88,18.2,29.77,1,8,1.51,16.08-.57,23.58-2.69,9.68-7.91,18.36-16.4,24.59A113.55,113.55,0,0,1,223,246a2.07,2.07,0,0,0-2-1c-.49-2.59,1.81-2.9,3.24-3.74,9.9-5.77,17.86-13.25,21.94-24.26a22.08,22.08,0,0,0,1.52-5.48,13.83,13.83,0,0,1,.61-2.91c3.11-8.12.67-15.83-1.73-23.54a10.45,10.45,0,0,1-.46-1.33c-.28-1.53-.61-3-1.94-4.08a4.75,4.75,0,0,1-1.21-2.39c-.16-2.75-2.2-4.31-3.85-6.12a8,8,0,0,1-.81-1c-.75-1.46-2.14-2-3.57-2.57C232.94,166.5,231.37,165.35,233,163Z" transform="translate(-0.9 -0.89)"/><path class="cls-113" d="M249,209v3c-1.45,1.35-1.31,3.34-2,5-2.83,9.82-9.11,16.9-17.57,22.29-2.86,1.82-5.62,3.8-8.43,5.71-2.63,2.17-1.88,5.19-2,8-2.79-2.44-3-6.71-.53-10.31,1.16-1.69,2.87-2.75,4.42-4a9.4,9.4,0,0,1,3.26-1.69,7.75,7.75,0,0,0,4-2.15,11.2,11.2,0,0,1,1.06-.79c3.12-2.19,5.94-4.62,7.26-8.37,7.57-12,9.31-24.85,5.46-38.47a31.49,31.49,0,0,0-7.55-13.72c-2.45-2.54-5.43-5-5.21-9.19A2.57,2.57,0,0,1,232,163l1,0c-.36,2.36,1.21,3.27,3,4,1,1,2.28,1.72,3,3h0c1.43,2.5,4.28,4,5,7a2.06,2.06,0,0,0,1,2c1.07,1.13,1.24,2.72,2,4v1C249.9,192.16,251.34,200.43,249,209Z" transform="translate(-0.9 -0.89)"/><path class="cls-114" d="M224,239c-4.46,3.67-8.27,7.57-5,14-.24,1.69.66,3.6-1,5a1,1,0,0,1-1.37-.14c-1.32-2.8-.86-6.13-2.59-8.81-.82-3.17.68-5.7,2.26-8.21a6.08,6.08,0,0,1,5.55-2.91A3.15,3.15,0,0,1,224,239Z" transform="translate(-0.9 -0.89)"/><path class="cls-115" d="M217,258h1c.1,2.33-2.3,3.15-3,5h0a11.41,11.41,0,0,1-7,.05c.43-3.54,4-1.45,5.48-3.06.35-.28.72-.55,1.09-.82A4.77,4.77,0,0,1,217,258Z" transform="translate(-0.9 -0.89)"/><path class="cls-108" d="M208,262c2.11,1.91,4.67.61,7,1-6.26,2.29-9.84.76-12.16-5-.54-1.34-.52-3-1.84-4,.49-3.22-1.32-5.59-3-8l-3-3c4.9-2,6.12,2.49,8.56,4.83,1.22,3.62.44,7.75,2.79,11.09A6.88,6.88,0,0,1,208,262Z" transform="translate(-0.9 -0.89)"/><path class="cls-116" d="M203,248c-2.92-1.27-4-5.47-8-5-21.52-10.69-29.27-31.82-24.95-54.11,1.62-8.39,6.12-14.81,11.35-21A7,7,0,0,0,183,163h1a5.81,5.81,0,0,1,1.81,4.2c-.13,2.08-2,3-3.07,4.41-8.24,10.86-11.76,22.92-9.55,36.51a17.24,17.24,0,0,1,.13,2.49,14.85,14.85,0,0,0,1.42,6.88,44.29,44.29,0,0,0,9.66,14,9,9,0,0,0,3.26,3.19c3.38,3,7.57,4.33,11.66,5.87C201.62,242.48,204.37,244.23,203,248Z" transform="translate(-0.9 -0.89)"/><path class="cls-117" d="M185,167a6.86,6.86,0,0,1-1-4c1.45,0,2.92,0,3-2,11.94.06,23.81-1,35.67-2.05,4-.35,7.12.65,9.34,4.06,0,.33,0,.66,0,1-1.12.79.36,3.05-1.82,3.26-1.91-1.19-3.61-2.83-6.09-2.79-5-1.77-10.21-1.38-15.29-1-4.12.33-8.22,1-12.37.85-3.75-.1-5.78,3-8.61,4.53a2.58,2.58,0,0,1-1.39.45C185.2,169,185.77,167.6,185,167Z" transform="translate(-0.9 -0.89)"/><path class="cls-118" d="M249,209c.45-8.42.26-16.79-2-25C250.6,192.1,253.28,200.27,249,209Z" transform="translate(-0.9 -0.89)"/><path class="cls-118" d="M244,177c-1.46-2.48-4.52-3.82-5-7C241.36,171.84,244.18,173.35,244,177Z" transform="translate(-0.9 -0.89)"/><path class="cls-118" d="M239,170c-1.28-.72-3-1-3-3A2.81,2.81,0,0,1,239,170Z" transform="translate(-0.9 -0.89)"/><path class="cls-118" d="M247,217c0-1.93-.33-4,2-5C248.57,213.76,248.36,215.61,247,217Z" transform="translate(-0.9 -0.89)"/><path class="cls-118" d="M247,183a5.47,5.47,0,0,1-2-4C246.82,179.76,247.09,181.29,247,183Z" transform="translate(-0.9 -0.89)"/><path class="cls-119" d="M230,167c.67-1,1.33-2,2-3-.08,3.76,2.68,6.11,4.94,8.23,6.45,6.05,8.81,13.93,9.91,22.06A44.88,44.88,0,0,1,239,227a41.52,41.52,0,0,1-8,8h0c-1.42.88-2.61,2.07-4,3l-3,1h-2a1.53,1.53,0,0,1,.16-1.84,4.23,4.23,0,0,1,1-.91,10.26,10.26,0,0,0,3.64-2.83c8.6-7,14.76-15.49,16.35-26.87,1.73-12.39-1.31-23.25-9.56-32.66-1.51-1.72-3.57-3-4.09-5.5A2,2,0,0,1,230,167Z" transform="translate(-0.9 -0.89)"/><path class="cls-114" d="M231,235a37.46,37.46,0,0,1,8-8A13.26,13.26,0,0,1,231,235Z" transform="translate(-0.9 -0.89)"/><path class="cls-114" d="M227,238c.88-1.6,2-2.92,4-3C230.12,236.6,229,237.92,227,238Z" transform="translate(-0.9 -0.89)"/><path class="cls-120" d="M217,241c.07,2.85-3.14,4.88-2,8-4.74-.51-7.61,1.33-8,6.34a2,2,0,0,1-1.39,1.89c-1.71-.82-1.62-2.63-1.47-3.88a15.64,15.64,0,0,0-3.61-12.71,1.71,1.71,0,0,1,1-1.25C206.7,240,212.06,238.48,217,241Z" transform="translate(-0.9 -0.89)"/><path class="cls-121" d="M206,257a13.86,13.86,0,0,1,.81-5.83c1.59-3.58,4.5-4.4,8.2-2.17,2.51,2.59,2,5.85,2,9a3.36,3.36,0,0,1-2,2c-1-1-.49-2.16-.47-3.29,0-2.1-1.08-4-3.06-3.76-2.37.28-3.75,2.06-2.34,4.72.29.33.58.65.89.95,1.32,1.68,3.59,0,5,1.39-1.62,3.15-4.58,1.63-7,2l-2-2A2.21,2.21,0,0,1,206,257Z" transform="translate(-0.9 -0.89)"/><path class="cls-122" d="M217,241c-5.35,0-10.73.34-16-1a1.07,1.07,0,0,1,.3-1.45c4.6-1.78,9.43.1,14.13-.91,2.42-.53,4.91-2.34,7.57-.64l-1,2C219.9,238.59,218.57,240.1,217,241Z" transform="translate(-0.9 -0.89)"/><path class="cls-115" d="M206,257c0,1,0,2,0,3-3.62-3.35-2.91-7.77-3-12-.12-3-2.62-4.69-4-7a1.39,1.39,0,0,1,2,0c3.47,2.44,5.4,5.33,4.15,9.95C204.66,252.78,204.21,255.2,206,257Z" transform="translate(-0.9 -0.89)"/><path class="cls-123" d="M201,241h-2c-4.71-.57-9-2.07-12-6a9,9,0,0,1-3-3c-5-3.48-8-8.38-10-14-.82-2.29-1.1-4.73-2-7a57.2,57.2,0,0,1,.61-21.61c2.1-8.74,6.65-15.82,12.39-22.39a2.09,2.09,0,0,1,1,2,2.18,2.18,0,0,1-.14,2.14,8.65,8.65,0,0,1-.83,1.24c-10.33,11-11.87,24.13-9.57,38.24a10.57,10.57,0,0,1,.35,1.34,10,10,0,0,0,1.48,4.34,8.5,8.5,0,0,1,.62,1.2,32.67,32.67,0,0,0,5.24,8.6,12.67,12.67,0,0,1,.83,1.1c3.85,5.31,8.46,9.55,15.21,10.75A2.94,2.94,0,0,1,201,239v2Z" transform="translate(-0.9 -0.89)"/><path class="cls-115" d="M172,211a10.1,10.1,0,0,1,2,7A10.1,10.1,0,0,1,172,211Z" transform="translate(-0.9 -0.89)"/><path class="cls-115" d="M184,232a6.25,6.25,0,0,1,3,3A2.81,2.81,0,0,1,184,232Z" transform="translate(-0.9 -0.89)"/><path class="cls-124" d="M187,169c1.83-3.27,4.58-5.9,8.25-5.86,7.64.08,15.14-1.75,22.79-1.18,2.51.18,4.93.36,7,2a2.8,2.8,0,0,1-2.68,1c-7.42-1.63-14.73,1.09-22.14.51a12.55,12.55,0,0,0-7.07,1.85c-3.05,1.89-1,4.88-1.57,7.32-5.66,6.52-9.58,13.76-10.64,22.57-1.1,9.19,1.63,17.19,7,24.18,9.14,11.89,21.93,14.18,35.05,7.18,8.56-4.56,14.08-12.25,14.63-22.31.38-6.89,1.32-14.11-2.58-20.46-2.36-3.86-4-8.4-8.52-10.58a4.91,4.91,0,0,1-1.34-.75,1.78,1.78,0,0,1-.55-1.4,3.2,3.2,0,0,1,2.54-2.72,4.1,4.1,0,0,1,1.6.14c8.91,5.78,13.1,14.66,14.19,24.58,1.62,14.73-2.48,27.6-15.19,36.79-10.93,7.9-27.29,8-37.65-.79-11.2-9.5-15.73-21.69-13.74-36.51,1.14-8.44,5.19-15.27,9.72-22C186.48,171.39,186.06,170,187,169Z" transform="translate(-0.9 -0.89)"/><path class="cls-125" d="M228,171h-1c-2.07-3.74-5.73-4.22-9.43-4.47a82.49,82.49,0,0,0-20.87,1.24c-2,.37-4,.76-5.69-.76a5.93,5.93,0,0,1,4.32-2.05c9.87-1,19.72-2.62,29.68-.95,3.2-1.55,4,.84,5,3,0,.32,0,.65,0,1C229.37,169,229.71,170.69,228,171Z" transform="translate(-0.9 -0.89)"/><path class="cls-122" d="M187,169l1,3c-1.44,1-2.36.42-3-1l1-2Z" transform="translate(-0.9 -0.89)"/><path class="cls-126" d="M185,171l3,1c-.89,1.55-1.27,3.29-2.64,4.7-6.61,6.74-8.15,15.57-8.19,24.31-.08,15,8.79,29.3,23.29,34.28,10.95,3.76,26.47-1.12,34.14-11.65,9.14-12.54,9.56-26.32,3.78-40C236.36,178.85,233,174,228,171l2-3c2.13,3.57,5.57,6,7.94,9.5,8.91,13.22,8.88,26.94,3,41-2.86,6.82-8.29,11.83-13.91,16.51-1.33.68-2.9.87-4,2-7.14,2.82-14.56,2.53-22,2h-2c-6-3.08-12-6.17-16-12h0a90.31,90.31,0,0,1-6-10h0c-1.27-1.42-.67-3.6-2-5-1.9-10.55-1.43-20.86,3.1-30.75,1.73-3.79,5.26-6.38,6.9-10.25Z" transform="translate(-0.9 -0.89)"/><path class="cls-122" d="M223,237c.76-1.82,2.29-2.09,4-2A5.47,5.47,0,0,1,223,237Z" transform="translate(-0.9 -0.89)"/><path class="cls-127" d="M215,260c-2.08.17-4.49,2.34-6-1,.83-1.25,4.16-.65,2.83-3.71-2.11.5-1.44,2.87-2.83,3.71-2.39-1.38-2.64-3.32-1-5.32,1.16-1.45,2.48-3.59,4.81-2.13,1.95,1.21,3.76,2.82,3,5.61-.24.95-.54,1.88-.81,2.82Z" transform="translate(-0.9 -0.89)"/><path class="cls-122" d="M185,171c-.1,4.44-4.28,6.49-5.89,10.05-3.24,7.15-5.2,14.49-4.18,22.47A66.58,66.58,0,0,1,175,212c-3.16-6.79-1.61-13.78-.87-20.73C175,183,179.16,176.57,185,171Z" transform="translate(-0.9 -0.89)"/><path class="cls-122" d="M183,227c4.68,4,9.29,8.08,15.16,10.36.43.16.57,1.07.84,1.64A21.46,21.46,0,0,1,183,227Z" transform="translate(-0.9 -0.89)"/><path class="cls-122" d="M177,217c2.39,3.1,5.11,6,6,10A16,16,0,0,1,177,217Z" transform="translate(-0.9 -0.89)"/><path class="cls-122" d="M175,212c2.33,1,2,3.07,2,5C174.67,216,175,213.93,175,212Z" transform="translate(-0.9 -0.89)"/><path class="cls-128" d="M225,174h1c5.85,4.43,10,10.08,11.54,17.29,2.46,11.73,1.31,22.79-7.3,32-13.18,14.13-34.71,12.61-45.17-5-8.68-14.59-4.82-32,4.15-41.1.95-1,1.82-2,3.28-2a2.84,2.84,0,0,1,1.46.5c.86,2-.6,3.15-1.72,4.25-12.77,12.47-10.42,37.24,6.66,46a25.53,25.53,0,0,0,2.56,1.29c3.72,1.78,7.62,1.81,11.59,1.19a10.29,10.29,0,0,1,1.35-.35c3.51-.32,6.74-1.26,9.08-4.15a50.8,50.8,0,0,1,3.81-4.6c9.34-10.51,8.67-29.26-.86-38.7-1.73-1.72-4.41-3.28-3.51-6.56A1.45,1.45,0,0,1,225,174Z" transform="translate(-0.9 -0.89)"/><path class="cls-125" d="M193,176c-5.23,1.61-7,6.28-9,10.56-6.4,14.34-2.17,32.64,10.92,41.06,11.43,7.36,27,5,35.38-5.52,9.08-11.4,9.75-23.94,4.4-36.8C233,181.05,229,177.74,226,174c6.3.72,7.88,6.6,9.77,10.7,6.86,14.93,4.72,33.48-9.78,43.66-9.83,6.9-24.68,7.59-34.43-1.18-8.07-7.25-12.44-16.34-12.29-26.73.15-10,3.67-19.48,11.74-26.46a1,1,0,0,1,1.06-.34,2.69,2.69,0,0,1,1.29,1.29A1,1,0,0,1,193,176Z" transform="translate(-0.9 -0.89)"/><path class="cls-129" d="M192,174l-1,0c-.92-2.33-2.15-4.66,0-7,7.77-.43,15.36-2.5,23.24-2.1,3.34.17,6.58.7,9.86,1.12s3.74,2.26,2.89,5l-2,2a33.63,33.63,0,0,0-15.32-4c-2.72-1.12-5.29-.09-7.88.59a12.16,12.16,0,0,1-1.31.37C197.15,170.25,194.56,172.1,192,174Z" transform="translate(-0.9 -0.89)"/><path class="cls-130" d="M209,168c5.85,0,11.82-.37,16,5,0,.33,0,.67,0,1h-2l-.71-.14c-5.93-1.56-11.78-3.21-18.1-2a17.19,17.19,0,0,0-8.8,4.22A1.19,1.19,0,0,1,194,176h-1c0-.33,0-.66,0-1-1.2-3,1.75-3,3-4.17s3.4-1.07,5-1.85h0A30,30,0,0,1,209,168Z" transform="translate(-0.9 -0.89)"/><path class="cls-131" d="M209,259c0-.66,0-1.33,0-2,0-1.9.15-3.9,2.72-3.8,1.87.08,2.28,1.64,2.26,3.26,0,2.34-1.2,3.29-3.52,2.75-.48-.11-1-.15-1.47-.22Z" transform="translate(-0.9 -0.89)"/><path class="cls-132" d="M194,176h1c2.66,2.24.19,3.51-1.09,4.65-9.32,8.21-10.53,26.67-2.49,37.07,2,2.55,4.92,3.95,6.9,6.44.61.85,1.17,1.72.68,2.84-10.24-4.58-14.91-12.95-16-23.69C181.9,192.31,186.22,183.45,194,176Z" transform="translate(-0.9 -0.89)"/><path class="cls-130" d="M223,174c3,5.64,8.67,9.36,10.55,15.87,3.2,11.07,2.1,21.2-5.27,30.33-1.35,1.66-2.85,3.2-4.28,4.8a2.42,2.42,0,0,1-2.79.35,1.28,1.28,0,0,1-.41-1.34c3.56-4.09,7.47-7.75,9.58-13.1,4.75-12.07,1.84-22-7.07-30.83-3.41-3.36-3.42-3.76-.32-6.08Z" transform="translate(-0.9 -0.89)"/><path class="cls-130" d="M199,227l-1-2c.38-.32.82-.82,1.26-.69,6.83,1.94,13.64,1.21,20.46,0,.46-.09.89.38,1.28.69h0c-.69,4.22-4.74,2.54-7,4h0a22.13,22.13,0,0,1-13-1A2.06,2.06,0,0,1,199,227Z" transform="translate(-0.9 -0.89)"/><path class="cls-132" d="M214,229c1.87-2.14,5.6-1,7-4h3C221.46,228.31,217.94,229.19,214,229Z" transform="translate(-0.9 -0.89)"/><path class="cls-132" d="M201,228c4.33.42,8.61,1.46,13,1A13.67,13.67,0,0,1,201,228Z" transform="translate(-0.9 -0.89)"/><path class="cls-132" d="M201,169c-2.62,2.08-6.8,2.07-8,6l-1-1C193.44,169.56,197.2,169.25,201,169Z" transform="translate(-0.9 -0.89)"/><path class="cls-132" d="M209,168c-2.52,1.54-5.31.85-8,1C203.58,168,206,165.93,209,168Z" transform="translate(-0.9 -0.89)"/><path class="cls-133" d="M221,225c-7.67,2.25-15.33,2.77-23,0-13.75-7.74-15.53-24.31-11-36.45a21.24,21.24,0,0,1,6.92-9.39c1.24-1,2-1.66,1.11-3.16,1.9-6.17,7.74-5.4,12-5.69,5.4-.36,11.44-.74,16,3.69-1.45,1.24-2.28,2.74-.34,4,16.46,11.11,13.86,36.33-1.42,46.52C221.11,224.64,221.07,224.85,221,225Z" transform="translate(-0.9 -0.89)"/><path class="cls-134" d="M219,177c2,4.37,7.24,5.5,9.43,9.84,5.33,10.58,5.16,22-3.66,31.75-7.34,8.14-19.51,8.69-28.48,2A17.65,17.65,0,0,1,194,218c-.36-1.27.21-2,1.38-2.33,4.9,2.66,9.5,5.73,15.66,5.12,7.28-.72,13.76-5.48,15.59-12.54,2.7-10.44.75-19.39-8.53-25.91a4.23,4.23,0,0,1-2-2.77C216.26,177.77,216.38,176,219,177Z" transform="translate(-0.9 -0.89)"/><path class="cls-134" d="M192,215c-8.61-11-6.11-25.62,6-35,1.34-.67,2.53-2.06,4.25-.87.76,2.38-1.2,3.2-2.56,4.26-8.08,6.32-10.72,16.36-6.74,26.08.75,1.82,1.93,3.51,1.21,5.63A1.64,1.64,0,0,1,192,215Z" transform="translate(-0.9 -0.89)"/><path class="cls-135" d="M202,179a6.72,6.72,0,0,1-4,1c.51-5.69,4.31-7.08,9.19-7,3.46.06,7-.52,10.32,1,1.27.58,3.27.87,1.49,3-2,.09-2,1.54-2,3-.37.36-1,.69-1.29.4C211.53,175.85,206.72,177.91,202,179Z" transform="translate(-0.9 -0.89)"/><path class="cls-135" d="M192,215h2a1.21,1.21,0,0,1,1,1l-1,2Z" transform="translate(-0.9 -0.89)"/><path class="cls-136" d="M195,216l-1-1c-2.72-5.5-4.89-11.16-3.95-17.43s2.92-11.72,8.77-15.13c1.29-.75,3.14-1.37,3.18-3.44,3.51-3.87,10.16-4,13.05-.21A2.75,2.75,0,0,0,217,180c10.75,7.49,13.72,15.48,11.11,27.67-3.3,15.4-23.51,18.59-31.5,9.48A8.66,8.66,0,0,0,195,216Z" transform="translate(-0.9 -0.89)"/><path class="cls-137" d="M227,200.1c1.64,10.55-8.3,20.79-17.63,20.13-8.24-.57-17.45-7.61-18.15-19.5-.6-10.13,8.37-19.37,17.95-19.84C218.26,180.46,228.78,189.4,227,200.1Z" transform="translate(-0.9 -0.89)"/><path class="cls-138" d="M209.22,218c-7.74,1.45-16.24-9.17-16.05-17,.24-9.64,7.17-17.72,16.19-18.18,9.37-.48,16.57,10.6,16.68,17.75C226.18,210.84,217.11,219.3,209.22,218Z" transform="translate(-0.9 -0.89)"/><path class="cls-1" d="M223,200.74c0,8.21-5.74,14.86-13.06,15.26-7.07.39-16.44-7.4-13.71-19.23,1.63-7.07,8.07-12.57,14-11.71C218.92,186.31,224.08,194,223,200.74Z" transform="translate(-0.9 -0.89)"/></g></g></svg>