<svg xmlns="http://www.w3.org/2000/svg" viewBox="0 0 228.2 128.18"><defs><style>.cls-1{fill:#fefefe;}.cls-2{fill:#ec2330;}.cls-3{fill:#e7e4e1;}.cls-4{fill:#03a76e;}.cls-5{fill:#0c70b9;}.cls-6{fill:#0062b3;}.cls-7{fill:#eb0017;}.cls-8{fill:#00a368;}.cls-9{fill:#c4c4c4;}.cls-10{fill:#222;}.cls-11{fill:#191618;}.cls-12{fill:#ec1a29;}.cls-13{fill:#e0e0e0;}.cls-14{fill:#c1d3e6;}.cls-15{fill:#cfcece;}.cls-16{fill:#c4d6e9;}.cls-17{fill:#b0b0b0;}.cls-18{fill:#dbe8f3;}.cls-19{fill:#bdbdbd;}.cls-20{fill:#afafaf;}.cls-21{fill:#1c191b;}.cls-22{fill:#aaa;}.cls-23{fill:#363435;}.cls-24{fill:#a0a0a0;}.cls-25{fill:#434243;}.cls-26{fill:#141213;}.cls-27{fill:#f5f5f5;}.cls-28{fill:#1067ab;}.cls-29{fill:#eb000b;}.cls-30{fill:#131216;}.cls-31{fill:#1f1c1d;}.cls-32{fill:#d4d4d4;}.cls-33{fill:#a6a6a6;}.cls-34{fill:#8b8b8b;}.cls-35{fill:#2d2c2c;}.cls-36{fill:#585757;}.cls-37{fill:#efefef;}.cls-38{fill:#2e2c2d;}.cls-39{fill:#d8d8d8;}.cls-40{fill:#8e8d8d;}.cls-41{fill:#353435;}.cls-42{fill:#0064b3;}.cls-43{fill:#abaaaa;}.cls-44{fill:#ccc;}.cls-45{fill:#4b494a;}.cls-46{fill:#4485c2;}.cls-47{fill:#bebebe;}.cls-48{fill:#e7e7e7;}.cls-49{fill:#b7b7b7;}.cls-50{fill:#2b292a;}.cls-51{fill:#878687;}.cls-52{fill:#525152;}.cls-53{fill:#474749;}.cls-54{fill:#dadada;}.cls-55{fill:#0067b4;}.cls-56{fill:#333233;}.cls-57{fill:#43464a;}.cls-58{fill:#a8a8a8;}.cls-59{fill:#c3c3c3;}.cls-60{fill:#9c9c9c;}.cls-61{fill:#005cb0;}.cls-62{fill:#bababa;}.cls-63{fill:#fefbfb;}.cls-64{fill:#eb0012;}.cls-65{fill:#fcfcfc;}.cls-66{fill:#0a70b8;}</style></defs><title>Fichier 1LIAD</title><g id="Calque_2" data-name="Calque 2"><g id="Calque_1-2" data-name="Calque 1"><path class="cls-1" d="M115,129q-55.2,0-110.42.06c-2.69,0-3.72-.18-3.71-3.45Q1.15,64.89.91,4.19C.91,1.3,1.65.93,4.3.93Q115,1.07,225.65.89c3.4,0,3.4,1.18,3.4,3.75q-.11,60.47,0,120.92c0,3.14-.83,3.52-3.65,3.51C188.64,129,151.83,129,115,129Z" transform="translate(-0.89 -0.89)"/><path class="cls-2" d="M147.24,50.94a22.24,22.24,0,0,1,25.9,19.32c1.79,15.2-9,26.39-21.81,25.88-4.86-.72-9.94,1-14.66-1.32-.21-14.58-.36-29.16.08-43.74C140.23,50,143.74,50.39,147.24,50.94Z" transform="translate(-0.89 -0.89)"/><path class="cls-3" d="M112.29,50.09c3.77-.88,5.37,1,6.47,4.35,4.07,12.45,8.42,24.82,12.56,37.25.55,1.65,2.25,4.52-.08,5-2.71.54-6.85,2.28-8.38-2.59-.65-2.06-2-4-2.26-6-.67-6-3.86-7.59-9.5-7.19-3.27.24-5.26.77-6,4.23-.7,3-2,5.94-2.89,9-.59,2.14-1.81,2.84-3.93,3-6.17.42-6.44,0-4.44-5.88,4.12-12.09,8.22-24.2,12-36.38C106.94,51.28,108.23,49,112.29,50.09Z" transform="translate(-0.89 -0.89)"/><path class="cls-4" d="M66,50.2c1.44,3.33.6,6.82.66,10.23.15,7.49.23,15,0,22.48-.12,3.51.94,4.66,4.46,4.46,4.28-.23,7,4.87,4.83,8.57-.65,1.1-1.67.83-2.61.92-16.09,1.45-16.09,1.45-16.09-14.61,0-9.16,0-18.32.05-27.48,0-1.53-.84-3.32.77-4.63,7.44.91,7.44.91,7.44,8.6q0,13.24,0,26.5C65.8,73.55,64.92,61.88,66,50.2Z" transform="translate(-0.89 -0.89)"/><path class="cls-5" d="M81.06,62.78c-3.82-1.41-4.89-4.54-3.94-8,1.16-4.16,5.23-4.76,8.68-4.65,3.06.11,4.71,2.8,5,5.87.39,3.65-1.94,5.53-4.84,7A12.85,12.85,0,0,0,81.06,62.78Z" transform="translate(-0.89 -0.89)"/><path class="cls-6" d="M88.56,82.83c0,2.82,0,5.64,0,8.47,0,5.24-2.65,7.07-7.71,5.54-1.54-.47-1.57-1.48-1.57-2.65,0-7.64.08-15.28,0-22.91-.07-3.71,2.51-2.83,4.46-2.78s5-1.19,4.89,2.87C88.47,75.18,88.56,79,88.56,82.83Z" transform="translate(-0.89 -0.89)"/><path class="cls-7" d="M137,51V95c.22.91,0,1.35-1,1-.62-15-.48-30-.08-45A.7.7,0,0,1,137,51Z" transform="translate(-0.89 -0.89)"/><path class="cls-8" d="M66,50.2V86H65V60.19c0-7.92,0-7.92-7-10A14.94,14.94,0,0,1,66,50.2Z" transform="translate(-0.89 -0.89)"/><path class="cls-9" d="M79.87,107.85c-5.7,2.13-7.29,1.64-8.89-2.72-.32-.2-.43-.41-.34-.64s.19-.34.3-.34c2.73,0,5.56-1,8.14.73C79.83,105.74,80.65,106.58,79.87,107.85Z" transform="translate(-0.89 -0.89)"/><path class="cls-10" d="M103,18c-6.09,2.39-12.54.65-18.78,1.68,4.85-2.95,10.32-2.21,15.57-2.76C101,16.76,102.61,15.52,103,18Z" transform="translate(-0.89 -0.89)"/><path class="cls-11" d="M138,14.2,122,14.07a1.35,1.35,0,0,1,0-2c4-.8,8-.2,12,0C135,13.4,137.93,11.07,138,14.2Z" transform="translate(-0.89 -0.89)"/><path class="cls-12" d="M136,96l1-1c4.76.46,9.68-1,14.3,1.15C146.21,97.12,141.1,97.62,136,96Z" transform="translate(-0.89 -0.89)"/><path class="cls-13" d="M94.18,107.87c-3.54,2.57-5,.48-6.08-2.67-.95.12-1.35-.31-1.24-1.24A11,11,0,0,1,95,106.05C95.59,107.05,94.76,107.4,94.18,107.87Z" transform="translate(-0.89 -0.89)"/><path class="cls-14" d="M167,14.51c-3.65,2-5.72,1-6.06-3.24C166.18,9.82,167,10.23,167,14.51Z" transform="translate(-0.89 -0.89)"/><path class="cls-15" d="M120.92,104.05c1.5,0,2,.85,1.91,2.18-.06,1.09.33,2.52-1.33,2.64s-2.27-1.21-2.39-2.54C119,105.21,119.26,104,120.92,104.05Z" transform="translate(-0.89 -0.89)"/><path class="cls-16" d="M56.72,33.72c.89,1.34,1.21,2.55-.43,3.65-1.08.72-2.16.89-3.09.08-1.27-1.11-1.6-2.39.1-3.52A2.53,2.53,0,0,1,56.72,33.72Z" transform="translate(-0.89 -0.89)"/><path class="cls-17" d="M110.17,107.09c1.57-2.21,4.07-.68,5.36-3.21C115.84,108.67,115.84,108.67,110.17,107.09Z" transform="translate(-0.89 -0.89)"/><path class="cls-18" d="M110,16.25c1,1.81,1.95,3.57-1.35,3.87a2.27,2.27,0,0,1-2.91-.11c-1.09-2.87.84-3.73,3-4.45A1.22,1.22,0,0,1,110,16.25Z" transform="translate(-0.89 -0.89)"/><path class="cls-19" d="M81.94,105.09c1.32.43,1.67-1.83,3.1-1.11,1.4,1.47,2.39,3,1,5-1.48-1.53-3.43-.47-5.11-.91C80.51,106.83,79.46,105.35,81.94,105.09Z" transform="translate(-0.89 -0.89)"/><path class="cls-20" d="M153,108c-1.57.69-3.25,2.25-4.75.29a3.55,3.55,0,0,1-.05-3.25c1.37-2.14,3.14-.57,4.76-.06A2.49,2.49,0,0,1,153,108Z" transform="translate(-0.89 -0.89)"/><path class="cls-21" d="M138,14.2c-.69-1.87-3.06-.59-3.93-2.1,3.18-.46,6,.12,8,2.9a1.52,1.52,0,0,1,.56,1,1.65,1.65,0,0,1-.58,1.05C140.24,16.68,139.19,15.3,138,14.2Z" transform="translate(-0.89 -0.89)"/><path class="cls-22" d="M94.18,107.87c.27-.61.55-1.21.82-1.82,1.74-3.72,3.32.23,5,.1a1.36,1.36,0,0,1,0,1.89C98.09,107,96.09,109.23,94.18,107.87Z" transform="translate(-0.89 -0.89)"/><path class="cls-20" d="M141,105.1c1.3-.25,2.9-1.52,3.5.83.25,1,.67,2.45-.49,2.95-1.43.6-2.43-.46-3-1.78A1.34,1.34,0,0,1,141,105.1Z" transform="translate(-0.89 -0.89)"/><path class="cls-23" d="M142,16l0-1c3.07,1,4.84-3.33,8-2a1.15,1.15,0,0,1,0,1.8l-3.48,1.29C145,16.55,143.47,17.26,142,16Z" transform="translate(-0.89 -0.89)"/><path class="cls-24" d="M141,105.1v2c-1,1-2.12,2.66-3-.07-.34-1-.81-1.8-1.94-2-.81.16-1.41.13-.84-.94Z" transform="translate(-0.89 -0.89)"/><path class="cls-25" d="M180.74,10.84c2.72-1.65,5.15-.69,8.06.65A13.42,13.42,0,0,1,182,12C181.53,11.63,180.87,11.53,180.74,10.84Z" transform="translate(-0.89 -0.89)"/><path class="cls-26" d="M160.08,10.81c-2.9-1.76-3.69.86-5,2.41a1.81,1.81,0,0,1-1.32-1.32c1.24-3.85,3.62-3.85,6.57-2A.53.53,0,0,1,160.08,10.81Z" transform="translate(-0.89 -0.89)"/><path class="cls-27" d="M51.06,107.79c-2.53,2.47-2.82-.79-4.08-1.59a4.33,4.33,0,0,1,3.34-1.6C51.92,105.35,51.88,106.48,51.06,107.79Z" transform="translate(-0.89 -0.89)"/><path class="cls-28" d="M160.08,10.81a1,1,0,0,1,.24-.86h6.35c.9,0,1.07.72,1.38,1.32,0,1.21.15,2.44-1.07,3.23-.09-4.69-3.37-3.41-6.06-3.24A3.44,3.44,0,0,0,160.08,10.81Z" transform="translate(-0.89 -0.89)"/><path class="cls-29" d="M137,51h-1.11c3.76-2.16,7.53-1.9,11.31-.07Z" transform="translate(-0.89 -0.89)"/><path class="cls-30" d="M168.05,11.28,166.67,10c2-4.06,4.87-.63,7.31-.92.17,1-.09,1.54-1.22,1.14C171.14,10.34,169.18,9,168.05,11.28Z" transform="translate(-0.89 -0.89)"/><path class="cls-31" d="M153.76,11.9l1.32,1.32A6.3,6.3,0,0,1,150,14.84V13Z" transform="translate(-0.89 -0.89)"/><path class="cls-32" d="M100,108c0-.63,0-1.26,0-1.89s.09-1.51,1-1.39c1.21.17,2.19.81,2.07,2.31l0-.06C101.89,106.88,101.94,110.41,100,108Z" transform="translate(-0.89 -0.89)"/><path class="cls-33" d="M103,107.07l3-2.65c-.2,1.74,1.54,3.3-.25,4.39-1.13.69-2.65.12-2.66-1.8Z" transform="translate(-0.89 -0.89)"/><path class="cls-34" d="M185.82,38.24c-1.17-2.09.72-4-.15-6C188,34.41,186.45,36.29,185.82,38.24Z" transform="translate(-0.89 -0.89)"/><path class="cls-35" d="M180.74,10.84,182,12c-2,.49-4.06,2.68-6.14.08a1.23,1.23,0,0,1,1.13-1Z" transform="translate(-0.89 -0.89)"/><path class="cls-36" d="M185,30.6a5.74,5.74,0,0,1,.49-6.89C186.55,26.3,184.61,28.4,185,30.6Z" transform="translate(-0.89 -0.89)"/><path d="M108.9,15.07c1.47-2.37,3.78-2.08,6-1.9a1.27,1.27,0,0,1,.12,1.92l0,0c-1.8.67-3.66.26-5.5.3Z" transform="translate(-0.89 -0.89)"/><path class="cls-37" d="M86,109c-.32-1.67-.65-3.34-1-5l1.82,0,1.24,1.24C88,106.8,87.77,108.32,86,109Z" transform="translate(-0.89 -0.89)"/><path class="cls-38" d="M76.65,24c1.34-4.48,4.2-1,6-1.71Z" transform="translate(-0.89 -0.89)"/><path class="cls-39" d="M135.19,104.11l.84.94c-.15,1.24.2,2.72-1.34,3.34-.27.1-1.09-.35-1.11-.58A3.61,3.61,0,0,1,135.19,104.11Z" transform="translate(-0.89 -0.89)"/><path class="cls-40" d="M165.35,105.17c1,.16,1.31.84,1.36,1.75s-.71,1-1.32,1c-1.11.1-1.37-.58-1.26-1.55A1.21,1.21,0,0,1,165.35,105.17Z" transform="translate(-0.89 -0.89)"/><path class="cls-41" d="M115.07,15.09,115,13.17l5-.14c.58,1.13-.51,1.42-1,2Z" transform="translate(-0.89 -0.89)"/><path class="cls-20" d="M42.37,41.2c1.29-1.55,2.54-1.37,4-.43C45,42.84,43.65,41.53,42.37,41.2Z" transform="translate(-0.89 -0.89)"/><path class="cls-42" d="M109,15.9c-1.91.71-3.5,1.64-3,4.11.35.15.47.31.35.47a.45.45,0,0,1-.35.24c-1.24-.45-1.1-1.66-1.43-2.6a1.46,1.46,0,0,1,.68-1.94l3.65-1.11.21-.12c.27.26.34.49.21.68S109.07,15.9,109,15.9Z" transform="translate(-0.89 -0.89)"/><path class="cls-31" d="M187.66,17c-2.36,1.32-.87,3.89-2.33,6.71.18-3-2.89-4.95.67-6.74A1.32,1.32,0,0,1,187.66,17Z" transform="translate(-0.89 -0.89)"/><path class="cls-43" d="M70.94,104.15c0,.33,0,.65,0,1-.82-.26-1.93-.45-2.24.35-1.82,4.62-1.69-1.23-2.73-.48-.3.47-.6.5-.93,0C66.77,103,69,104.32,70.94,104.15Z" transform="translate(-0.89 -0.89)"/><path class="cls-44" d="M172.27,113.41a1.94,1.94,0,0,1,1.6,1.72c.06.67,0,1.46-.91,1.4s-1.16-1.06-1.44-1.79S171.39,113.45,172.27,113.41Z" transform="translate(-0.89 -0.89)"/><path class="cls-45" d="M177,11.08l-1.13,1-3.09-1.86L174,9C175.32,9.23,176.51,9.62,177,11.08Z" transform="translate(-0.89 -0.89)"/><path class="cls-46" d="M56.72,33.72l-3.42.21c-.32-1.16.07-1.9,1.33-1.85C55.64,32.13,57.06,31.87,56.72,33.72Z" transform="translate(-0.89 -0.89)"/><path class="cls-9" d="M43.71,115.61c-.06.68-.3,1.2-1.09,1.25a1.35,1.35,0,0,1-1.55-1.37c0-.6.13-1.3,1-1.31S43.38,114.88,43.71,115.61Z" transform="translate(-0.89 -0.89)"/><path class="cls-47" d="M66.81,114c-1.29,1.91-2.26,2.37-3.45,2.13a1.78,1.78,0,0,1-.13-1.32C64,113.27,65.15,114.31,66.81,114Z" transform="translate(-0.89 -0.89)"/><path class="cls-48" d="M61.62,104.4c1.8,1.73,1.75,2.88,0,3.95C60.62,107.1,60.84,105.92,61.62,104.4Z" transform="translate(-0.89 -0.89)"/><path class="cls-49" d="M51.06,107.79c0-1.14.14-2.34-1.1-3v-.61c1.06.06,2.48-.58,2.83,1.07A2.15,2.15,0,0,1,51.06,107.79Z" transform="translate(-0.89 -0.89)"/><path class="cls-50" d="M64.38,30c1.54-2.69,3.36-2.9,6.25-.19A15.05,15.05,0,0,0,64.38,30Z" transform="translate(-0.89 -0.89)"/><path class="cls-51" d="M130.24,103.91c2.56,2.3.69,3.42-.35,4.71C130,107.21,130.1,105.79,130.24,103.91Z" transform="translate(-0.89 -0.89)"/><path class="cls-52" d="M187.66,17,186,17c.22-1.5.56-3.48,2.43-2.77C189.64,14.69,188.24,16.13,187.66,17Z" transform="translate(-0.89 -0.89)"/><path class="cls-53" d="M105.25,16.18l-.68,1.94L103,18c-.78-1.22-2.13-.75-3.21-1.08A5.86,5.86,0,0,1,105.25,16.18Z" transform="translate(-0.89 -0.89)"/><path class="cls-40" d="M159.76,107c-.2.23-.54,1-1,1-1,.13-.62-.8-.66-1.31s-.19-1.37.72-1.4S159.74,105.94,159.76,107Z" transform="translate(-0.89 -0.89)"/><path class="cls-54" d="M81.94,105.09c-1.22.7-.8,2-1,3l-1-.24c-.27-1-.53-2-.8-3C80,104.85,81.13,103.16,81.94,105.09Z" transform="translate(-0.89 -0.89)"/><path class="cls-50" d="M142,16l4.56.12c-1.32,1.26-2.64,2.52-4.56,1Z" transform="translate(-0.89 -0.89)"/><path class="cls-55" d="M81.06,62.78c1.7-1.13,3.35-1.3,4.94.21A5,5,0,0,1,81.06,62.78Z" transform="translate(-0.89 -0.89)"/><path class="cls-56" d="M119,15l1-2,2-1v2A2.32,2.32,0,0,1,119,15Z" transform="translate(-0.89 -0.89)"/><path class="cls-57" d="M109,15.9a2.21,2.21,0,0,1,.15-1c2,.18,4-.68,6,.18-1.45,1.49-3.54,0-5.07,1.12Z" transform="translate(-0.89 -0.89)"/><path class="cls-58" d="M153,108c0-1,0-2,0-3,2.46.25.88,2.23,1.23,3.32C154.4,108.82,153.39,108.41,153,108Z" transform="translate(-0.89 -0.89)"/><path class="cls-40" d="M65.08,105q.47,0,.93,0c-.35,1.24.6,2.83-1,3.81C63.19,107.43,65.41,106.27,65.08,105Z" transform="translate(-0.89 -0.89)"/><path class="cls-22" d="M50,104.15c0,.21,0,.41,0,.62l-3,1.43C46.24,103,48.78,104.55,50,104.15Z" transform="translate(-0.89 -0.89)"/><path class="cls-59" d="M118,114a15.32,15.32,0,0,1,.57,2c0,.1-.68.32-1,.49a10,10,0,0,1-.55-1.74C116.9,114.33,117,113.8,118,114Z" transform="translate(-0.89 -0.89)"/><path class="cls-60" d="M49.77,114.15c1,.19,1.15.81,1,1.42-.1.34-.57.83-.85.82-.8,0-.89-.76-.76-1.37C49.21,114.67,49.59,114.39,49.77,114.15Z" transform="translate(-0.89 -0.89)"/><path class="cls-61" d="M106,20.72c0-.24,0-.48,0-.71l2.69.11C108.35,22.84,107.09,21.38,106,20.72Z" transform="translate(-0.89 -0.89)"/><path class="cls-62" d="M90.75,115.66c0,.61-.31.9-.82.74s-1.4.54-1.6-.44c-.06-.25.46-.8.81-.93A1.16,1.16,0,0,1,90.75,115.66Z" transform="translate(-0.89 -0.89)"/><path class="cls-63" d="M163.88,75.82c-2.66,7.07-7.67,10.92-15.3,11.43-2.42.16-3.72-.18-3.67-3.06.15-7.47.12-15,0-22.43,0-2.25.9-2.71,2.94-2.8,7.65-.33,12.89,3.49,16.16,12.05C164.65,72.63,164.91,74.25,163.88,75.82Z" transform="translate(-0.89 -0.89)"/><path class="cls-12" d="M143.85,60.33V85.66h-.49V60.14Z" transform="translate(-0.89 -0.89)"/><path class="cls-64" d="M163.88,75.82c.05-1.6.1-3.21.14-4.81C165.06,72.65,166.13,74.28,163.88,75.82Z" transform="translate(-0.89 -0.89)"/><path class="cls-65" d="M112.19,61.23c2.39,3,2.14,6.54,3.51,9.42.38.8.11,1.91-.77,2a17.94,17.94,0,0,1-5.42.14c-1.45-.24-.71-1.67-.43-2.45C110.13,67.51,110.2,64.28,112.19,61.23Z" transform="translate(-0.89 -0.89)"/><path class="cls-66" d="M87,82.83c0,3.15,0,6.3,0,9.45C87,94.54,85.73,95,83.8,95S81,94.28,81,92.37c0-6.47,0-12.93,0-19.4,0-2.09.86-3,3-3S87,70.73,87,72.88C87,76.2,87,79.51,87,82.83Z" transform="translate(-0.89 -0.89)"/><path class="cls-1" d="M151.45,106.64c-.34.31-.72,1-1.19,1-.79.11-1-.65-.92-1.3.06-.39.39-.95.7-1C150.77,105.16,151.17,105.7,151.45,106.64Z" transform="translate(-0.89 -0.89)"/></g></g></svg>