<svg xmlns="http://www.w3.org/2000/svg" viewBox="0 0 128.79 57.52"><defs><style>.cls-1{fill:#fefefe;}.cls-2{fill:#fcfdfe;}.cls-3{fill:#0480be;}.cls-4{fill:#8cc4e0;}.cls-5{fill:#81bfde;}.cls-6{fill:#52a6d1;}.cls-7{fill:#bfdeee;}.cls-8{fill:#017dbc;}.cls-9{fill:#2a505e;}.cls-10{fill:#2b515f;}.cls-11{fill:#2d5261;}.cls-12{fill:#2c5260;}.cls-13{fill:#2e5462;}.cls-14{fill:#294f5c;}.cls-15{fill:#3a5e6b;}.cls-16{fill:#2a5564;}.cls-17{fill:#50707c;}.cls-18{fill:#426471;}.cls-19{fill:#eef6fa;}.cls-20{fill:#294f5d;}.cls-21{fill:#0d88c6;}.cls-22{fill:#aab8be;}.cls-23{fill:#abbabf;}.cls-24{fill:#e3f0f7;}.cls-25{fill:#d8ebf4;}.cls-26{fill:#4b6c78;}.cls-27{fill:#7fbddd;}.cls-28{fill:#2b5565;}.cls-29{fill:#7fbede;}.cls-30{fill:#0f8bca;}.cls-31{fill:#2792c8;}.cls-32{fill:#d0e7f2;}.cls-33{fill:#315764;}.cls-34{fill:#0684c4;}.cls-35{fill:#58abd4;}.cls-36{fill:#3d9bcc;}.cls-37{fill:#5aabd3;}.cls-38{fill:#008cd3;}.cls-39{fill:#79bcde;}.cls-40{fill:#436672;}.cls-41{fill:#456874;}.cls-42{fill:#68b2d7;}.cls-43{fill:#3f626f;}.cls-44{fill:#375c6a;}.cls-45{fill:#e1eff6;}.cls-46{fill:#f4f9fc;}.cls-47{fill:#3499cc;}.cls-48{fill:#429fce;}.cls-49{fill:#d7eaf4;}.cls-50{fill:#8dc5e1;}.cls-51{fill:#2991c6;}.cls-52{fill:#409ecd;}.cls-53{fill:#46a3d2;}.cls-54{fill:#0384c5;}.cls-55{fill:#b2d8ec;}.cls-56{fill:#a9d3e8;}.cls-57{fill:#81bfdd;}.cls-58{fill:#dcedf5;}.cls-59{fill:#cce5f1;}.cls-60{fill:#57a1cf;}.cls-61{fill:#e6eaec;}.cls-62{fill:#f2f4f5;}.cls-63{fill:#e2e7e9;}.cls-64{fill:#e0e5e7;}.cls-65{fill:#d6eaf3;}.cls-66{fill:#5dacd3;}</style></defs><title>Fichier 1Myah</title><g id="Calque_2" data-name="Calque 2"><g id="Calque_1-2" data-name="Calque 1"><path class="cls-1" d="M10.22,57.25c-3.25,0-7.77,1.27-9.39-.36S.47,50.75.47,47.5c0-15,0-30,0-45C.41.62.85.2,2.72.2Q64.6.29,126.47.2c1.88,0,2.31.42,2.3,2.3q-.12,26.06,0,52.12c0,2.24-.46,2.7-2.69,2.69-24.63-.1-49.25-.06-73.88-.06a.68.68,0,0,1-.19-.61c0-.22.1-.32.15-.32,1-.81,2.31-.59,3.37-1.18a9.5,9.5,0,0,1,1.83-.78,10.35,10.35,0,0,0,3.19-.87c1-.8.31-1.17-.38-1.55l-1.79-.75A22,22,0,0,0,55,50.31c-1.32-.44-2.72-.33-4.06-.67a23.11,23.11,0,0,0-3.6-.69,9.26,9.26,0,0,1-1-.25,18.91,18.91,0,0,0-6.92-1,20.38,20.38,0,0,0-4.34.32c-1.64-.1-3.27.23-4.91,0-2.07-.53-4.18-.24-6.27-.31a11.6,11.6,0,0,0-4,.43,19.87,19.87,0,0,1-4,.31,8.67,8.67,0,0,0-2.68.36c-1.18.3-2.41.32-3.58.7s-2.32.23-3.32.92A6.18,6.18,0,0,1,5,51.16c-.82.38-2.24.4-1.94,1.68S4.77,54,5.82,54.16a4.94,4.94,0,0,1,1.44.46c.89.79,2.11,1,3,1.72A.69.69,0,0,1,10.22,57.25Z" transform="translate(0 -0.2)"/><path class="cls-2" d="M59,50.48l1.26.73a1.59,1.59,0,0,1,.56,2.06c-.82,1.28-2.42,1-3.51,1.76L56,55.74c-1.79.44-3.65.33-5.44.74a12.11,12.11,0,0,0-3.44.38c-2.81.21-5.65-.43-8.43.39H36.47c-1.41-1.29-3.14-.55-4.72-.76a17.78,17.78,0,0,1-3.85-.39c-1.58-.61-3.39,0-4.93-.87,1.24.75,2.7.35,4,.69.61.53,2.15-.35,2,1.33H14.72c-1.23-.77-2.78-.12-4-.9C9.55,56,8.2,56.11,7.32,55L5.64,55c-2.09-1.18-2.57-2.63-.72-4.45l.82-.8a16.41,16.41,0,0,0,4.5-.68c1.15-.58,2.47-.22,3.64-.66a15.63,15.63,0,0,0,2.72-.47c1.32-.12,2.67.17,4-.26a10.51,10.51,0,0,1,2.91-.07,2.13,2.13,0,0,1,1,.49,1.14,1.14,0,0,1,0,1c-1.37.49-2.9-.07-3.92.79a7.88,7.88,0,0,1,3.64-.54,1.57,1.57,0,0,1,1.83.51c.29.64-.4,1.2-.15,1.83,1.54,1.18.07-1.35,1-.87a14.81,14.81,0,0,1,3.13-1.06,9.91,9.91,0,0,1,4.13,0c1.86.79,4,0,5.8,1.13-1.87,1.79,1.74,1.31,1.09,2.6-.62.5-1.44.24-2.1.55a4.78,4.78,0,0,1-4.74-1.32c1.69,2.36,3.59,1.37,5.34,1.2,1.57-.07,3-.75,4.53-.94.61-.42,1.88.05,1.74-1.33a4.9,4.9,0,0,0-1.75-.59A10.4,10.4,0,0,0,41.7,51a2,2,0,0,1-.91-.42c-.2-1-1.73-2.24.39-3a18.55,18.55,0,0,1,5.79.66h0c1,.91,2.26.61,3.38,1,1.38.23,2.78.29,4.14.64C56,50.06,57.48,50.62,59,50.48Z" transform="translate(0 -0.2)"/><path class="cls-3" d="M38.72,57.25c2.81-1.7,5.93-.39,8.86-.88.8-.18,1.73-.6,1.64.88Z" transform="translate(0 -0.2)"/><path class="cls-4" d="M32,55.85c1.53.37,3.67-1.22,4.51,1.4H32A.91.91,0,0,1,32,55.85Z" transform="translate(0 -0.2)"/><path class="cls-5" d="M32,55.85v1.4H29c-.44-1-1.38-.7-2.16-.8-.27-.69-.09-1,.66-.76Z" transform="translate(0 -0.2)"/><path class="cls-6" d="M49.22,57.25l-1.64-.88a4.3,4.3,0,0,1,3.23-.48c.45.42,1.29,0,1.57.75a2.61,2.61,0,0,1-.16.61Z" transform="translate(0 -0.2)"/><path class="cls-7" d="M10.83,55.88c1.24.62,2.84.22,3.89,1.37h-4.5c0-.23,0-.45,0-.68A1.22,1.22,0,0,1,10.83,55.88Z" transform="translate(0 -0.2)"/><path class="cls-8" d="M34.64,4.71C36.8,12,42.23,17,45.73,23.17A26.4,26.4,0,0,1,47,25.85c3.09,7.42,1.37,12.82-5.09,16.07-8.22,4.14-15.57.81-19.2-4.37-1.85-2.64-1.72-5.71-1-8.65a26,26,0,0,1,2.38-5.85C27.47,16.91,33.21,12.19,34.64,4.71Z" transform="translate(0 -0.2)"/><path class="cls-9" d="M74,7c2.38-.21,4,.1,4.06,3.26,0,2.07,1.07,4.13,1.75,6.53,2-2.07,2-4.73,2.52-7.1.52-2.52,1.83-3.1,4.17-2.89,2.63.24,1.58,2.13,1.62,3.36.14,3.37-.09,6.75.1,10.12.12,2.36-.89,2.83-2.88,2.36-1.11-2.66,0-5.49-.64-8.19a.39.39,0,0,0-.24-.19.44.44,0,0,0-.57.31c-.53,2.26-1.12,4.52-1.58,6.8a1.57,1.57,0,0,1-1.79,1.4c-1.08,0-1.9-.16-2.09-1.47-.33-2.29-1.63-4.35-1.57-6.73-1.33-.75-.91.46-1,.94-.31,2.37.54,4.81-.48,7.13l-2.16-.07c-.77-4.7-.23-9.42-.3-14.13C72.91,7.79,73.42,7.38,74,7Z" transform="translate(0 -0.2)"/><path class="cls-10" d="M95.67,19.11c.93-2.68,1.65-4.36,2.08-6.12.39-1.59,1.34-2.14,2.7-1.67,1.52.52.46,1.65.19,2.42-1.16,3.41-2.4,6.79-3.65,10.16-.58,1.55-1.33,3.07-3.2,3.28-1.11.13-2.67.83-3.17-.88s1.18-1.05,1.9-1.46c1.44-.83,1.62-2,1-3.47-1.05-2.52-2-5.07-2.86-7.67-.22-.68-1.64-1.83.09-2.39a2,2,0,0,1,2.83,1.53C94,14.63,94.74,16.36,95.67,19.11Z" transform="translate(0 -0.2)"/><path class="cls-11" d="M110.76,11.48c3.46,1.56,2,4.66,2.11,7.18,0,1.32.57,4.08-.19,3.84-3.05-.94-6.36,2.07-9.07-.68-1.72-1.73-.89-4.19,1.56-5.35,1.51-.7,3.5-.13,4.83-2-1.13-.89-2.16-1.66-3.63-.94-1,.49-2.28,2.06-2.94.32-.46-1.23,1-2.31,2.57-2.48A8.13,8.13,0,0,1,110.76,11.48Z" transform="translate(0 -0.2)"/><path class="cls-12" d="M97.32,41.74c-1.15,2.48-3,3.36-5.67,2.45a2,2,0,0,0-.3.41c-.42,1.14.81,3.3-1.15,3.34-2.44.05-1.21-2.28-1.26-3.48-.13-3,.12-6,.21-8.94,1-1,1.83.5,2.78.22,2.24-.69,4.12-.32,5.35,1.87A6.63,6.63,0,0,1,97.32,41.74Z" transform="translate(0 -0.2)"/><path class="cls-13" d="M124.39,35.42c3,2.38.76,5.8,1.7,8.59a61.85,61.85,0,0,1-6.23.41,2.18,2.18,0,0,1-1.93-2.37c-.07-2,1.08-2.85,3-2.84,1,0,1.86-.67,1.6-1.58-.32-1.11-1.39-.74-2.1-.23a1.13,1.13,0,0,1-1.83-.45c-.46-.93.41-1.18,1.07-1.45A7.42,7.42,0,0,1,124.39,35.42Z" transform="translate(0 -0.2)"/><path class="cls-10" d="M105.6,35.44c3,2.4.75,5.79,1.6,8.6a46.44,46.44,0,0,1-6.21.39,2.38,2.38,0,0,1-2.2-2.59c.19-1.88,1.48-2.69,3.39-2.63,1,0,1.89-.64,1.64-1.56-.3-1.16-1.38-.76-2.09-.25A1.12,1.12,0,0,1,99.9,37c-.51-1,.39-1.19,1-1.47A7.22,7.22,0,0,1,105.6,35.44Z" transform="translate(0 -0.2)"/><path class="cls-14" d="M119.08,14.84c0,1.87,0,3.74,0,5.6,0,1,.43,2.33-1.44,2.38-2.11.05-1.62-1.43-1.63-2.57,0-3.49-.07-7,0-10.47,0-1.16-.79-3,1.63-2.89,2.16.08,1.26,1.71,1.41,2.77a8.3,8.3,0,0,1-.12,1.85C118.65,12.64,119.88,13.68,119.08,14.84Z" transform="translate(0 -0.2)"/><path class="cls-15" d="M76.21,34l-1.86-.15c-.88-.06-1.9,0-1.75-1.32.11-1,1.05-.86,1.75-.87,2.24,0,4.49-.05,6.73,0,1,0,2.24,0,1.26,1.63-2.78,0-4,1.21-3.55,4.08a31.6,31.6,0,0,1,0,5.24c0,.67-.22,1.3-1,1.36-1,.1-1.17-.64-1.24-1.45C76.4,39.69,77.06,36.81,76.21,34Z" transform="translate(0 -0.2)"/><path class="cls-16" d="M116.51,43c-1,2.91-3.37.93-5.07,1.34-.82-.6-3.18.44-2.21-2.08l3.68-5.11c-1-1.26-2.62.05-3.7-.91l.12-.73c2.29-.18,4.72-1.53,6.7.82-.1,2.49-2.9,3.13-3.59,5.22-.83.84,0,.92.52,1C114.12,42.86,115.39,42.25,116.51,43Z" transform="translate(0 -0.2)"/><path class="cls-17" d="M83.69,39.53c.77-1.5-1-4.35,1.45-4.37,2.9,0,1.33,3,1.37,4.48s1.33,4.63-1.15,4.64C82.23,44.3,84.7,41.05,83.69,39.53Z" transform="translate(0 -0.2)"/><path class="cls-18" d="M76.21,34c1.88,2.87-.18,6.3,1.4,9.68,1.44-2.29.89-4.52.78-6.53-.18-3.07.76-4.48,4-3.85-2.79.35-3.83,1.85-3.31,4.65a18.27,18.27,0,0,1,0,4c0,1,.39,2.4-1.36,2.47s-1.41-1.31-1.43-2.33C76.21,39.43,76.22,36.71,76.21,34Z" transform="translate(0 -0.2)"/><path class="cls-14" d="M125.72,22.65c-1.08.08-2.58.79-2.17-1.42a9.45,9.45,0,0,0,0-5.22l-.17-1.86c-.13-.64-1-1.16-.48-1.87s1.49-.38,2.28-.24l-.15.22.13-.23C126.54,15.51,126.3,19.07,125.72,22.65Z" transform="translate(0 -0.2)"/><path class="cls-19" d="M40.23,48.27c.36.66,1.65,1,.75,2.12-1.29,1.19-2.6-.1-3.9,0a3.37,3.37,0,0,1-1-.4,4.17,4.17,0,0,1-1.38-1.57A.91.91,0,0,1,35,47.5c1.31-1.36,3-.51,4.5-.75A1.81,1.81,0,0,1,40.23,48.27Z" transform="translate(0 -0.2)"/><path class="cls-20" d="M125.18,12c-1.26.13-2.43.35-1.8,2.1-1.7-1.42-3.08-.83-4.3.7.24-1.13-1.4-2.15-.17-3.33C121,12.09,123.29,9.52,125.18,12Z" transform="translate(0 -0.2)"/><path class="cls-12" d="M74,7c-1.58,5.13-.35,10.39-.75,15.57-1.44-5-.43-10.13-.49-15.2C72.73,7.29,73.54,7.16,74,7Z" transform="translate(0 -0.2)"/><path class="cls-21" d="M4.92,50.52A4.11,4.11,0,0,0,5.64,55c-1.93.29-3.92-.42-4.17-2.15C1.2,50.93,3.18,50.45,4.92,50.52Z" transform="translate(0 -0.2)"/><path class="cls-22" d="M75.38,22.68V11.93c1.13.92,1.64,1.61,1.45,2.68C75.07,17.07,77.38,20.26,75.38,22.68Z" transform="translate(0 -0.2)"/><path class="cls-23" d="M83.86,14.61c-.19-.94.23-1.67,1.45-3.19V22.68C83.31,20.27,85.63,17.07,83.86,14.61Z" transform="translate(0 -0.2)"/><path class="cls-24" d="M35,47.5v.76c-.79,2.52-2.72.47-4,1a33.24,33.24,0,0,1-4.35-.17,2.2,2.2,0,0,1-1.58-1c1.61-1.81,3.52-.85,5.36-.59C31.92,47.57,33.45,46.87,35,47.5Z" transform="translate(0 -0.2)"/><path class="cls-25" d="M40.23,48.27a1.56,1.56,0,0,1-.76-1.52,13.2,13.2,0,0,1,7.5,1.5Z" transform="translate(0 -0.2)"/><path class="cls-20" d="M125.72,22.65A51.74,51.74,0,0,0,125.16,12C127.35,15.47,126.92,19,125.72,22.65Z" transform="translate(0 -0.2)"/><path class="cls-26" d="M116,36.34c-2.08-1.57-4.48-.41-6.7-.82,2-1.35,4.26-.46,6.39-.52C116.58,35,116.45,35.76,116,36.34Z" transform="translate(0 -0.2)"/><path class="cls-27" d="M30.4,47.49c-1.68.32-3.54-.67-5.07.72a.68.68,0,0,1-1,.11,2,2,0,0,1-.59-.15.79.79,0,0,1,0-1.28C26,46.94,28.29,46,30.4,47.49Z" transform="translate(0 -0.2)"/><path class="cls-28" d="M85.31,33.76a1.12,1.12,0,0,1-1.29-1c-.07-.79.53-1,1.2-1s1.28.13,1.28.94S86,33.73,85.31,33.76Z" transform="translate(0 -0.2)"/><path class="cls-29" d="M54.55,50.34l-4.47-.66c-.28-.68-.09-1,.65-.75,1.52.23,3.19-.37,4.56.77A1.24,1.24,0,0,1,54.55,50.34Z" transform="translate(0 -0.2)"/><path class="cls-30" d="M60.33,53.44l0-2.23c1.19-.14,2.3.1,2.5,1.43.14,1-.6,1.5-1.6,1.5C60.86,54,60.43,53.91,60.33,53.44Z" transform="translate(0 -0.2)"/><path class="cls-29" d="M23.72,46.89v1.28l-3.07-.05c-.28-.22-.72-.25-.79-.71C21.05,46.53,22.4,46.82,23.72,46.89Z" transform="translate(0 -0.2)"/><path class="cls-31" d="M10.17,49.58c-1.48.15-2.91,1.57-4.43.14,1-1,2.29-.67,3.48-.87C9.92,48.59,10.24,48.82,10.17,49.58Z" transform="translate(0 -0.2)"/><path class="cls-32" d="M50.73,48.93l-.65.75c-1.35.2-2.48-.06-3.1-1.42C48.24,48.41,49.64,47.8,50.73,48.93Z" transform="translate(0 -0.2)"/><path class="cls-33" d="M116.51,43a28.54,28.54,0,0,1-3.93-.11c-1-.15-1.07-.78-.14-1.34C113.23,43.64,115.51,41.52,116.51,43Z" transform="translate(0 -0.2)"/><path class="cls-34" d="M52.38,56.64l-1.57-.75c1.74,0,3.46-.91,5.22-.15C55.09,57.15,53.58,56.29,52.38,56.64Z" transform="translate(0 -0.2)"/><path class="cls-20" d="M123.55,16a4.83,4.83,0,0,1,0,5.22Z" transform="translate(0 -0.2)"/><path class="cls-35" d="M54.55,50.34l.74-.64a7.17,7.17,0,0,1,3.75.78C57.5,51.81,56.06,50.08,54.55,50.34Z" transform="translate(0 -0.2)"/><path class="cls-36" d="M10.17,49.58c-.32-.24-.64-.48-.95-.73,1.17-.85,2.55-.62,3.87-.72.8-.32,1,.06.83.76Z" transform="translate(0 -0.2)"/><path class="cls-37" d="M19.86,47.41l.79.71-4.27.23c-.82.36-1,0-.88-.75Z" transform="translate(0 -0.2)"/><path class="cls-38" d="M60.33,53.44l.87.7a4,4,0,0,1-3.85.89A3.92,3.92,0,0,1,60.33,53.44Z" transform="translate(0 -0.2)"/><path class="cls-39" d="M10.83,55.88l-.65.69c-1.12-.21-2.72.49-2.86-1.53Z" transform="translate(0 -0.2)"/><path class="cls-40" d="M105.6,35.44l-4.66.05A3.9,3.9,0,0,1,105.6,35.44Z" transform="translate(0 -0.2)"/><path class="cls-41" d="M124.39,35.42l-4.68.08A4,4,0,0,1,124.39,35.42Z" transform="translate(0 -0.2)"/><path class="cls-33" d="M109.23,42.27c-.12,1.61,1.59,1.26,2.21,2.08C110.13,44.27,107.64,45.44,109.23,42.27Z" transform="translate(0 -0.2)"/><path class="cls-42" d="M15.5,47.6l.88.75a3,3,0,0,1-2.46.54l-.83-.76A2.89,2.89,0,0,1,15.5,47.6Z" transform="translate(0 -0.2)"/><path class="cls-43" d="M110.76,11.48,106,11.41A4.53,4.53,0,0,1,110.76,11.48Z" transform="translate(0 -0.2)"/><path class="cls-44" d="M91.93,35.74c-1,1-1.83-.4-2.78-.22C90.2,34.07,91,35.64,91.93,35.74Z" transform="translate(0 -0.2)"/><path class="cls-26" d="M109.21,36.25c1.25.26,2.77-.62,3.7.91C111.74,36.61,110.14,37.79,109.21,36.25Z" transform="translate(0 -0.2)"/><path class="cls-44" d="M97.32,41.74c0-1.38,0-2.75,0-4.13A3.53,3.53,0,0,1,97.32,41.74Z" transform="translate(0 -0.2)"/><path class="cls-45" d="M39.49,54.33c-2.41,1.36-4.44,1-6.17-1.57l5.45.77C39,53.8,39.47,53.86,39.49,54.33Z" transform="translate(0 -0.2)"/><path class="cls-46" d="M41.65,50.53c.77-.21,1.51-1.21,2.32-.08.64.77,2.87.62,1.45,2.55-.51.12-1,.26-1.51.4a3.25,3.25,0,0,1-2.14-.32,2.5,2.5,0,0,1-.58-1A2.08,2.08,0,0,1,41.65,50.53Z" transform="translate(0 -0.2)"/><path class="cls-47" d="M41.65,50.53V51.9c-.76.53-1.11-.13-1.54-.54l-6.18-.69c.58-1,1.52-1,2.48-.81l4.57.53A1.12,1.12,0,0,0,41.65,50.53Z" transform="translate(0 -0.2)"/><path class="cls-48" d="M24.48,52c-.26-1.14.43-1.46,1.37-1.56.37-.35.58-.88,1.09-1.11a2.62,2.62,0,0,1,2.09.08,1.75,1.75,0,0,1,.91,1.28l-3.14.74C26.14,52.06,25.49,52.76,24.48,52Z" transform="translate(0 -0.2)"/><path class="cls-49" d="M27.47,55.69l-.66.76a6,6,0,0,1-4.47-1.18C24.06,55.21,25.81,54.44,27.47,55.69Z" transform="translate(0 -0.2)"/><path class="cls-50" d="M41.69,52.87h2.38c.24.24.75.22.74.72-1.64,1.2-3.55.42-5.32.73l-.72-.8,2.09-.07A1.43,1.43,0,0,1,41.69,52.87Z" transform="translate(0 -0.2)"/><path class="cls-51" d="M29.94,50.66l-1-.78c2.45-1.84,5-.26,7.51-.23l-.09.21c-.64.84-1.65.55-2.48.81Z" transform="translate(0 -0.2)"/><path class="cls-52" d="M24.42,49.65l-5.28.89c1.73-1.86,3.63-1.39,5.3-1.71a.53.53,0,0,1,.18.55C24.55,49.56,24.49,49.65,24.42,49.65Z" transform="translate(0 -0.2)"/><path class="cls-53" d="M44.81,53.6l-.74-.72,1.33-.24c.76-.25.18-1.94,1.6-1.48C47.93,52.91,47.67,53.2,44.81,53.6Z" transform="translate(0 -0.2)"/><path class="cls-54" d="M17.52,50.58c1.24-.31.86.86,1.22,1.34s0,.8-.49.81a1.65,1.65,0,0,1-1.79-1C16.23,51,17,50.86,17.52,50.58Z" transform="translate(0 -0.2)"/><path class="cls-55" d="M47,51.16c-.72.3-.64,1.45-1.6,1.48.74-1.52-1.9-.84-1.43-2.19C45,50.59,46.17,50.16,47,51.16Z" transform="translate(0 -0.2)"/><path class="cls-56" d="M41.69,52.87l-.83.59c-.44-1.05-1.55-.42-2.33-1l1.58-1.14,1.54.54C41.66,52.23,41.67,52.55,41.69,52.87Z" transform="translate(0 -0.2)"/><path class="cls-57" d="M24.42,49.65c0-.27,0-.54,0-.82a3.18,3.18,0,0,1-.13-.51l1-.11,1.42.12a1.31,1.31,0,0,1,.4.85,3.21,3.21,0,0,1-.43.87l-.87.36C25.66,49.63,24.92,49.87,24.42,49.65Z" transform="translate(0 -0.2)"/><path class="cls-58" d="M24.48,52l2.32-.57.76,1.07C26.43,53,25.36,53,24.48,52Z" transform="translate(0 -0.2)"/><path class="cls-59" d="M22.07,52.63c.39.32.94.56,1,.92.19.78-.52.7-.91.55a4.23,4.23,0,0,1-1-.87Z" transform="translate(0 -0.2)"/><path class="cls-60" d="M44,31.59a9.18,9.18,0,0,1-8.84,9.18,9.28,9.28,0,0,1-9.66-8.83,9.19,9.19,0,0,1,9.15-9.24C40.16,22.68,43.93,26.27,44,31.59Z" transform="translate(0 -0.2)"/><path class="cls-61" d="M108.49,17.88c.88-.29,1.51-.06,1.4.95a2,2,0,0,1-2,1.79c-.92.09-1.94-.09-1.92-1.14C106,18,107.54,18.25,108.49,17.88Z" transform="translate(0 -0.2)"/><path class="cls-62" d="M95.18,41.47c-.79,1-2,2.06-3,1.09a4.11,4.11,0,0,1-.6-4.83c.82-1.41,2.31-.9,3.47,0A7.48,7.48,0,0,1,95.18,41.47Z" transform="translate(0 -0.2)"/><path class="cls-44" d="M95.18,41.47c0-1.24-.07-2.47-.1-3.7A2.79,2.79,0,0,1,95.18,41.47Z" transform="translate(0 -0.2)"/><path class="cls-63" d="M122.37,40.23c.89,0,1.17.45,1.12.91a1.63,1.63,0,0,1-2,1.56c-.61-.08-1.32-.65-.91-1.24A5.76,5.76,0,0,1,122.37,40.23Z" transform="translate(0 -0.2)"/><path class="cls-64" d="M102.84,42.86c-.85,0-1.73-.4-1.77-1.11-.1-1.57,1.52-.75,2.24-1.3s1.26-.3,1.35.51C104.81,42.26,103.76,42.55,102.84,42.86Z" transform="translate(0 -0.2)"/><path class="cls-65" d="M26.72,50.05V49c1.36-.86,3,.19,4.38-.67,1.29-.61,2.59,1.27,3.87,0l1.53,1.39L29,49.88Z" transform="translate(0 -0.2)"/><path class="cls-66" d="M31.1,48.3c-1.29,1.3-2.92.46-4.38.67,0-.21,0-.43,0-.64Z" transform="translate(0 -0.2)"/></g></g></svg>