<?xml version="1.0" encoding="utf-8"?>
<!-- Generator: Adobe Illustrator 12.0.0, SVG Export Plug-In . SVG Version: 6.00 Build 51448)  -->
<!DOCTYPE svg PUBLIC "-//W3C//DTD SVG 1.1//EN" "http://www.w3.org/Graphics/SVG/1.1/DTD/svg11.dtd" [
	<!ENTITY ns_svg "http://www.w3.org/2000/svg">
	<!ENTITY ns_xlink "http://www.w3.org/1999/xlink">
]>
<svg  version="1.1" id="Layer_1" xmlns="&ns_svg;" xmlns:xlink="&ns_xlink;" width="496" height="260" viewBox="0 0 496 260"
	 overflow="visible" enable-background="new 0 0 496 260" xml:space="preserve">
<g>
	<rect x="12.576" y="22.179" fill="none" width="470.848" height="215.643"/>
	<rect x="12.576" y="22.179" fill="none" width="470.035" height="215.643"/>
	<rect x="12.576" y="22.179" fill="none" width="470.035" height="215.643"/>
	<path d="M419.826,229.432c0,1.896,1.795,2.492,2.811,2.492h2.305c1.891,0,1.891,3.271,0,3.271h-22.225
		c-1.889,0-1.889-3.271,0-3.271h2.303c1.02,0,2.813-0.596,2.813-2.492v-34.529c0-1.888-1.793-2.496-2.813-2.496h-2.303
		c-1.889,0-1.889-3.268,0-3.268h22.225c1.891,0,1.891,3.268,0,3.268h-2.305c-1.016,0-2.811,0.608-2.811,2.496V229.432z"/>
	<path d="M340.209,229.432c1.014,2.492-0.688,2.492-1.705,2.492h-2.307c-1.889,0-1.889,3.271,0,3.271h22.229
		c1.887,0,1.887-3.271,0-3.271h-1.568c-1.016,0-2.26,0-3.367-2.492c0,0-17.381-39.79-17.754-40.665
		c-0.363-0.872-0.871-0.731-1.244-0.731h-2.443c-0.875,0-1.15,0.731-1.33,1.012c-0.189,0.276-17.711,40.385-17.711,40.385
		c-1.291,2.492-2.074,2.492-3.09,2.492h-2.305c-1.891,0-1.891,3.271,0,3.271h16.045c1.889,0,1.889-3.271,0-3.271h-4.145
		c-1.018,0-3.002,0.367-1.895-2.492l11.344-27.479L340.209,229.432z"/>
	<polygon points="336.109,219.387 334.746,216.105 323.129,216.105 321.771,219.387 	"/>
	<path d="M288.639,194.902c-1.016-2.496,0.684-2.496,1.703-2.496h2.305c1.887,0,1.887-3.268,0-3.268h-22.225
		c-1.893,0-1.893,3.268,0,3.268h1.566c1.016,0,2.26,0,3.363,2.496c0,0,17.383,39.421,17.75,40.292
		c0.371,0.877,0.879,0.739,1.248,0.739h1.707c0.547,0,0.672,0.168,1.213-0.73c0.176-0.276,17.828-40.301,17.828-40.301
		c1.291-2.496,2.074-2.496,3.092-2.496h2.303c1.891,0,1.891-3.268,0-3.268h-13.828c-1.893,0-1.893,3.268,0,3.268h1.932
		c1.014,0,2.998-0.363,1.891,2.496l-11.338,26.375L288.639,194.902z"/>
	<path d="M263.672,229.432c1.014,2.492-0.686,2.492-1.703,2.492h-2.313c-1.881,0-1.881,3.271,0,3.271h22.23
		c1.891,0,1.891-3.271,0-3.271h-1.568c-1.012,0-2.26,0-3.367-2.492c0,0-17.381-39.79-17.744-40.665
		c-0.373-0.872-0.881-0.731-1.25-0.731h-2.447c-0.381,0-0.713-0.044-1.248,0.841c-0.174,0.289-17.792,40.556-17.792,40.556
		c-1.292,2.492-2.075,2.492-3.083,2.492h-2.312c-1.892,0-1.892,3.271,0,3.271h16.045c1.892,0,1.892-3.271,0-3.271h-4.147
		c-1.015,0-2.994,0.367-1.892-2.492l11.347-27.479L263.672,229.432z"/>
	<polygon points="259.57,219.387 258.213,216.105 246.591,216.105 245.232,219.387 	"/>
	<rect x="162.396" y="205.786" transform="matrix(0.7071 0.7071 -0.7071 0.7071 199.467 -57.2043)" width="12.778" height="12.78"/>
	<path d="M12.576,223.35c0-1.477,3.227-1.94,3.227,0c0,3.595,1.683,11.201,11.181,11.201s10.396-6.774,10.396-9.083
		c0-10.326-23.88-7.839-23.88-23.704c0-11.241,10.028-15.068,17.728-15.068c6.729,0,9.748,1.61,10.579,2.255
		c0.832,0.648,0.921,1.196,0.921,1.849v8.578c0,1.191-1.845,2.116-2.576,0c-0.739-2.123-3.231-9.599-8.946-9.599
		c-6.46,0-8.759,4.523-8.759,7.292c0,10.418,23.788,6.358,23.788,23.512c0,9.772-9.039,17.239-19.273,17.239
		c-10.238,0-13.558-4.168-14.385-5.092V223.35z"/>
	<path d="M144.441,223.936c0.74-1.476,2.487-1.2,2.487,0.731v6.091c0,0.276,0,0.829-0.455,1.195c-0.465,0.368-6,5.168-15.034,5.168
		c-13.369,0-28.586-7.839-28.586-24.717c0-14.844,15.633-24.158,28.91-24.158c3.872,0,10.927,1.563,12.219,2.114
		c1.291,0.556,1.472,1.107,1.567,1.805c0.092,0.688,0.643,5.119,0.827,6.222c0.188,1.108-1.563,2.498-2.768,0.369
		c-1.195-2.12-4.055-7.375-11.89-7.375c-7.839,0-16.509,5.995-16.509,21.209c0,15.217,9.405,21.392,16.229,21.392
		C135.96,233.981,141.49,231.953,144.441,223.936"/>
	<path d="M448.199,189.139l23.818,29.512v-23.748c0-1.888-1.801-2.496-2.816-2.496h-2.299c-1.896,0-1.896-3.268,0-3.268h14.289
		c1.893,0,1.893,3.268,0,3.268h-2.305c-1.016,0-2.811,0.608-2.811,2.496v40.892c0,0.369-0.139,0.828-0.832,0.828h-3.596
		c-0.275,0-0.508-0.091-0.783-0.363c-0.281-0.28-30.572-38.173-30.572-38.173v31.346c0,1.896,1.801,2.492,2.811,2.492h2.309
		c1.893,0,1.893,3.271,0,3.271h-14.293c-1.893,0-1.893-3.271,0-3.271h2.305c1.014,0,2.811-0.596,2.811-2.492v-33.79
		c0-2.168-1.703-3.235-3.184-3.235h-1.932c-1.893,0-1.893-3.268,0-3.268H448.199z"/>
	<path d="M67.114,189.139l23.81,29.512v-23.748c0-1.888-1.791-2.496-2.812-2.496h-2.304c-1.891,0-1.891-3.268,0-3.268h14.29
		c1.896,0,1.896,3.268,0,3.268H97.8c-1.012,0-2.815,0.608-2.815,2.496v40.892c0,0.369-0.142,0.828-0.829,0.828h-3.6
		c-0.275,0-0.503-0.091-0.783-0.363c-0.272-0.28-30.566-38.173-30.566-38.173v31.346c0,1.896,1.795,2.492,2.811,2.492h2.308
		c1.888,0,1.888,3.271,0,3.271H50.026c-1.892,0-1.892-3.271,0-3.271h2.313c1.012,0,2.812-0.596,2.812-2.492v-33.79
		c0-2.168-1.708-3.235-3.18-3.235h-1.944c-1.892,0-1.892-3.268,0-3.268H67.114z"/>
	<path d="M214.145,232.899c1.817,0,7.549-0.03,11.412-8.027c0.661-1.804,3.451-1.4,3.135,0.457l-1.457,8.622
		c-0.131,0.67-0.587,1.243-1.384,1.243h-34.578c-1.892,0-1.892-3.271,0-3.271h2.309c1.01,0,2.812-0.596,2.812-2.492v-34.529
		c0-1.888-1.802-2.496-2.812-2.496h-2.309c-1.892,0-1.892-3.268,0-3.268h22.221c1.89,0,1.89,3.268,0,3.268h-2.304
		c-1.013,0-2.816,0.608-2.816,2.496v32.689C208.373,231.841,210.844,232.899,214.145,232.899"/>
	<path d="M385.813,232.899c1.818,0,7.553-0.03,11.42-8.027c0.656-1.804,3.447-1.4,3.127,0.457l-1.453,8.622
		c-0.133,0.67-0.586,1.243-1.387,1.243h-34.574c-1.893,0-1.893-3.271,0-3.271h2.301c1.018,0,2.816-0.596,2.816-2.492v-34.529
		c0-1.888-1.799-2.496-2.816-2.496h-2.301c-1.893,0-1.893-3.268,0-3.268h22.219c1.887,0,1.887,3.268,0,3.268h-2.303
		c-1.018,0-2.811,0.608-2.811,2.496v32.689C380.051,231.841,382.52,232.899,385.813,232.899"/>
	<polygon fill="#00537B" points="103.878,82.931 136.327,115.38 168.781,82.931 136.327,50.485 	"/>
	<path fill="#00537B" d="M143.018,131.925c5.085,3.67,10.783,6.604,16.87,8.574c21.37-12.35,42.478-38.409,42.478-57.332
		c0-19.189-21.765-45.767-43.442-57.893c-5.973,2.05-11.552,4.979-16.518,8.676c15.389,6.174,45.631,37.569,45.631,49.099
		C188.036,94.439,158.578,125.221,143.018,131.925"/>
	<path fill="#00537B" d="M183.442,22.179c31.323,2.417,55.887,28.578,55.887,60.524c0,31.312-23.743,57.104-54.184,60.38
		c18.446-15.271,31.547-37.81,31.547-59.806C216.692,60.672,202.707,37.453,183.442,22.179"/>
</g>
</svg>
