<svg xmlns="http://www.w3.org/2000/svg" viewBox="0 0 174.17 107.17"><defs><style>.cls-1{fill:#f6f6f6;}.cls-2{fill:#34198a;}.cls-3{fill:#2c0f85;}.cls-4{fill:#321788;}.cls-5{fill:#3f2690;}.cls-6{fill:#4a3297;}.cls-7{fill:#503a9a;}.cls-8{fill:#270c82;}.cls-9{fill:#fefefe;}.cls-10{fill:#3b218e;}.cls-11{fill:#9bc239;}.cls-12{fill:#33188a;}.cls-13{fill:#361b8b;}.cls-14{fill:#351b8b;}.cls-15{fill:#391f8d;}.cls-16{fill:#2f1488;}.cls-17{fill:#2f1386;}.cls-18{fill:#361c8b;}.cls-19{fill:#361c8c;}.cls-20{fill:#250881;}.cls-21{fill:#2d1186;}.cls-22{fill:#290c83;}.cls-23{fill:#2b0f85;}.cls-24{fill:#3c228f;}.cls-25{fill:#2e1387;}.cls-26{fill:#2f1387;}.cls-27{fill:#280c83;}.cls-28{fill:#2b0f86;}.cls-29{fill:#2d1286;}.cls-30{fill:#2d1287;}.cls-31{fill:#98c033;}.cls-32{fill:#220781;}.cls-33{fill:#280c84;}.cls-34{fill:#98c02f;}.cls-35{fill:#f4f3f8;}.cls-36{fill:#2c1085;}.cls-37{fill:#2a0e84;}</style></defs><title>Fichier 1Tchin-lait</title><g id="Calque_2" data-name="Calque 2"><g id="Calque_1-2" data-name="Calque 1"><path class="cls-1" d="M1,108C1,73.5,1.05,39,.92,4.5c0-3,.6-3.59,3.58-3.58q83.51.16,167,0c3,0,3.6.6,3.58,3.58q-.2,50,0,100c0,3-.6,3.59-3.58,3.58Q86.26,107.92,1,108Z" transform="translate(-0.92 -0.92)"/><path class="cls-2" d="M151,29.06c7.13.83,19,12.4,20.09,21.54,1.91,16.63-4.28,29.33-17.55,38.74-16.6,11.76-35.74,15.65-55.59,16.84-5.63.33-11.31.73-16.94-.19-3-4,.38-4.4,2.76-4.11,8.47,1.05,16.83-1.33,24.46-.38a6.61,6.61,0,0,1-2.13-.23c-.21-2.87,2.15-2.41,3.68-2.63a113.14,113.14,0,0,0,35.92-11.35C161,79.44,169,64.35,165.86,48.75c-1.18-5.88-4.76-9.7-9.3-13-2-1.45-4.5-2.25-5.92-4.47A2,2,0,0,1,151,29.06Z" transform="translate(-0.92 -0.92)"/><path class="cls-2" d="M79,106c-21.51-1.06-42-5.49-59.12-19.55C9.57,78,4.82,66.94,5.77,53.39c.66-9.33,4.54-16.51,12.5-21.34A75.39,75.39,0,0,1,53,21.16a1.68,1.68,0,0,1,.05,2.17c-2.44,2-5.55,2-8.44,2.67a83.34,83.34,0,0,0-20.24,6.86c-11.63,5.92-15.45,13-13.8,25.89C12.15,71,19.06,80,29.34,86.14,40.71,93,53.29,96.66,66.4,98.53c1.76.24,3.75,0,4.81,1.93-.79,2.28-2.63.19-3.33,1-1.13-.1-.47,1-.57.3,0-.15.08-.21.31-.19,3.55.29,6.7,2.46,10.47,2C79.24,103.36,80,104.64,79,106Z" transform="translate(-0.92 -0.92)"/><path class="cls-3" d="M53,22.86v-1.7c3.9-2.6,8.78.13,12.71-2.31,2.7-.94,5.6.32,8.28-.76a218.71,218.71,0,0,1,26.11-.24,5.54,5.54,0,0,1,3.67,1,20.69,20.69,0,0,1,8.44,0C118.75,20.6,125.75,20,132,22.92c.29,1.1-.43,1.56-1.24,2-7.72.15-15.2-1.75-22.78-2.79-2.81-1-5.68-.75-8.55-.51-7,.06-13.91.08-20.86,0-3.4-.22-6.81-.53-10.18.37a19.32,19.32,0,0,1-4,.44c-2,0-4-.26-5.93.41a28.77,28.77,0,0,1-3.56.84A2.05,2.05,0,0,1,53,22.86Z" transform="translate(-0.92 -0.92)"/><path class="cls-4" d="M79,106c-.29-.54-.66-1.58-.86-1.55-3.43.56-6.56.62-9.35-2.17-1.18-1.18-2.54,1-5,1.28,2.2-3.58,5.29-2.06,7.53-2.71,1.51-1.33,3.28-1.11,5.07-.85a117.38,117.38,0,0,0,25.07.06c1.49-.24,3-.3,4.19.79l5.26.39c-8.94,1.16-17.77,3.16-26.81,1.82C82,102.74,79.85,102.7,81,106Z" transform="translate(-0.92 -0.92)"/><path class="cls-5" d="M130.88,24.06,132,22.92A30.66,30.66,0,0,1,150,28a5.21,5.21,0,0,1-3.44,1.77c-4.78-.61-9.21-2.55-13.85-3.71C131.72,25.83,130.82,25.32,130.88,24.06Z" transform="translate(-0.92 -0.92)"/><path class="cls-6" d="M74,18.09c-2.62,1.71-5.49.85-8.28.76C68.4,17.7,71.21,18,74,18.09Z" transform="translate(-0.92 -0.92)"/><path class="cls-7" d="M112.22,18.87h-8.44C106.59,17,109.41,18.3,112.22,18.87Z" transform="translate(-0.92 -0.92)"/><path class="cls-8" d="M147,28.89c.75-1.09,1.9-.82,2.95-.88l1,1v1.81C148.93,31.69,147.73,30.78,147,28.89Z" transform="translate(-0.92 -0.92)"/><path class="cls-9" d="M147,28.89l4,2c3,1.93,6.32,3.56,9,5.86,8.65,7.37,10.58,21.75,4.76,33.44-6.39,12.85-18,19-30.62,23.9-9.18,3.56-18.88,5-28.5,6.77l-3.68.28a197.12,197.12,0,0,1-25.95,0l-4.7-.32c-11.11-2-22.22-3.93-32.69-8.46C31.54,89.31,24.91,85.6,19.45,80,10,70.35,6.93,58.83,10.23,45.85c2.5-9.82,11-13.21,19.28-16.67C37.07,26,45.1,24.71,53,22.86L55,23c1.83-.76,3.86-.61,5.7-1.27,1.17-.41,2.46,0,3.59-.61L68,20.85c3.36-1,6.89.3,10.25-.72l21.42.06c2.73.84,5.61-.2,8.34.65l22.87,3.22Z" transform="translate(-0.92 -0.92)"/><path class="cls-6" d="M78.25,20.13A33,33,0,0,1,68,20.85C71.31,19.13,74.81,20,78.25,20.13Z" transform="translate(-0.92 -0.92)"/><path class="cls-7" d="M108,20.84a23.44,23.44,0,0,1-8.34-.65C102.49,19.94,105.34,19.23,108,20.84Z" transform="translate(-0.92 -0.92)"/><path class="cls-1" d="M61,22.09c-1.79,1.62-4,.71-6,.92.72-1.12,2.09-.45,3-1.07A2.39,2.39,0,0,1,61,22.09Z" transform="translate(-0.92 -0.92)"/><path class="cls-10" d="M61,22.09l-3-.15c1.92-1.68,4.16-.83,6.3-.81Z" transform="translate(-0.92 -0.92)"/><path class="cls-2" d="M76,101.16l26,0A78.75,78.75,0,0,1,76,101.16Z" transform="translate(-0.92 -0.92)"/><path class="cls-11" d="M61,95.92c-7.27-.8-14.15-3.09-20.94-5.69-.92-.35-2.09-.58-2-1.81s1.27-1.35,2.19-1.6c7.47-2.09,14.87-4.47,22.69-4.89.73.77,1.69.53,2.58.57-.89-.07-1.84.16-2.59-.56,11.28-2.72,22.75-2.22,34.2-2a146.34,146.34,0,0,1,26.7,3.3c5.34,1.1,10.58,2.65,16.13,4.07-.45.78-.58,1.39-.9,1.53-24.69,10.15-50.17,12-76.28,7.25A1.51,1.51,0,0,1,64,95.53a4.24,4.24,0,0,1,.73,0C63.58,95.57,62.25,95.16,61,95.92Z" transform="translate(-0.92 -0.92)"/><path class="cls-2" d="M123,57c2.71-6,4.68-6.83,11.35-4.75a1.93,1.93,0,0,0,1.31.06c6.32-3.47,5.55,1.22,5.61,4.88,0,3.15,0,6.3,0,9.45,0,3.53-.39,6.39-5,3.76-.53-.3-1.51.21-2.28.34-2-.32-3.93.38-5.91.17-6-3.79-7.33-7.35-5-13.93a1.67,1.67,0,0,1,.43.82,12.83,12.83,0,0,1,.09,1.75c0-.43,0-.86,0-1.29A1.76,1.76,0,0,0,123,57Z" transform="translate(-0.92 -0.92)"/><path class="cls-12" d="M59.91,70.12c-1.67-2.76-.56-5.79-.75-8.69-.18-2.7.22-5.9-3.63-5.78s-3.37,3.37-3.39,6c0,2.16,0,4.32,0,6.48,0,1.67-.6,3-2.44,3.17-2.17.14-2.86-1.35-2.86-3.22,0-7.48,0-14.95,0-22.42,0-1.69.63-3.28,2.34-3.25,1.92,0,3.17,1.34,3,3.58-.12,1.82,0,3.64,0,5.35C56.36,52,61.52,49,63.8,55.05c.11,5,.33,10,.1,14.93-1.27,2-2.6,2-4,.12,1.45-3.19,0-6.56.74-9.79C60.16,63.56,61.17,66.91,59.91,70.12Z" transform="translate(-0.92 -0.92)"/><path class="cls-12" d="M93.06,70C91.7,72,90.33,72,89,70c1.29-3.19.08-6.51.62-9.75-.38,3.25.55,6.57-.61,9.77-1.75-3.11-.57-6.48-.79-9.72C88,58,88,55.72,85,55.63c-3.17-.09-3.64,2.32-3.68,4.83s0,5.33,0,8c0,1.71-.83,3-2.69,2.91a2.66,2.66,0,0,1-2.72-3c0-4.83-.08-9.66,0-14.49,0-2,1.58-3.59,3.23-2.71,2.61,1.38,5.13.24,7.37,0,3.6-.33,5.2,1,6.44,3.76C93,60,92.94,65,93.06,70Z" transform="translate(-0.92 -0.92)"/><path class="cls-13" d="M29,59c1.7-6.57,6.12-9.41,12.44-7.86,1.6.39,3.33,1.05,3.34,3.08,0,2.74-2.47,2-3.67,1.84-3.15-.41-5.47.33-7,3.17-1.39,2.12-.58,4,.71,5.75a5.12,5.12,0,0,0,5.34,1.17c1.68-.52,3.67-1.6,4.51.91.72,2.16-.77,3.26-2.76,3.72-2.3-.3-4.6.4-6.91.07-3.15-1.29-5.47-3.29-5.94-6.89A6,6,0,0,0,29,59Z" transform="translate(-0.92 -0.92)"/><path class="cls-13" d="M107.11,47c-.14-.84-.1-1.58,1-1.76,1.31.32,2.66.38,4,.59,1.68,4.79.72,9.75.67,14.59,0,4,.5,6.4,5.24,5.5,1.48-.29,3.14,0,3.76,1.64s.19,2.94-1.77,3.31c-4-1.09-8.14.26-12.13-.78l.06,0c-.85-5.9-.15-11.84-.4-17.75C107.42,50.61,107.87,48.77,107.11,47Z" transform="translate(-0.92 -0.92)"/><path class="cls-14" d="M158.77,70c-3.24,2-4.48,1.64-4.82-1.58-.27-2.45,0-5-.11-7.43-.06-2.13.89-4.66-2.56-5.41-1-.21-1.54-2.72-.61-2.81,4.84-.43,1.16-8.07,6.62-7.52a2.12,2.12,0,0,1,1.85,2.06c.12,2.24.52,3.81,3.22,4.64,1.85.57,1.53,2.77-.21,3.89-.91.58-2.32.27-3,1.42C157.82,61.42,158.55,65.69,158.77,70Z" transform="translate(-0.92 -0.92)"/><path class="cls-2" d="M31.34,49.13c-5.06.19-5.79,3.06-5.57,7.58s1.2,9.12-.69,13.53c-1.33-6.41-.07-12.91-.6-18.39,0,4.51,0,10,0,15.44,0,1.65.25,3.64-2.54,2.84-1.07-6.31.1-12.74-.82-19.06-.32-.64-.7.42-.16,0a68.6,68.6,0,0,1,0,19c-2-5.1-.57-10.4-.81-15.61-.13-2.88.08-5-4-4.86-2.81.06-3-1.48-1.14-4.57,5.11.91,10.27.16,15.39.43,2.7,3-.42,2.55-1.54,3.06C29.52,48.56,30.55,48.18,31.34,49.13Z" transform="translate(-0.92 -0.92)"/><path class="cls-15" d="M100.1,67.17c-2.42-.29-3.77-1.62-3.52-4s1.55-4.88,4.24-4.52c2.18.29,3.23,2.75,3.18,5S102.38,67.13,100.1,67.17Z" transform="translate(-0.92 -0.92)"/><path class="cls-16" d="M147.89,52.31c2.43,5.73,1,11.66.73,17.49-.07,1.59-2.06,1.8-3.62,1.14a1.54,1.54,0,0,1-.12-1.55c1.08-3.83.58-7.77.76-11.66C145.73,55.68,145.32,53.36,147.89,52.31Z" transform="translate(-0.92 -0.92)"/><path class="cls-17" d="M71.86,52.38c2.46,5.7,1,11.62.77,17.43,0,1.54-2.07,1.8-3.63,1.13a1.13,1.13,0,0,1-.14-1.38c.92-3.86.72-7.8.83-11.72C69.74,55.82,69.24,53.44,71.86,52.38Z" transform="translate(-0.92 -0.92)"/><path class="cls-18" d="M71.86,52.38c-2,4.94-.11,10.2-1.21,15.24-.27,1.23,0,2.28-1.64,2.37-2-6-1-12.07-.29-18.13C70,50.74,71.15,50.22,71.86,52.38Z" transform="translate(-0.92 -0.92)"/><path class="cls-19" d="M147.89,52.31c-1.75,3.65-.63,7.52-.85,11.29-.14,2.34,0,4.68-2,6.39-1.05-6-.42-12.08-.29-18.12C146,50.73,147.1,50.26,147.89,52.31Z" transform="translate(-0.92 -0.92)"/><path class="cls-20" d="M68.72,51.86Q68.87,60.92,69,70c0,.32,0,.63,0,1C66.32,64.62,66.83,58.25,68.72,51.86Z" transform="translate(-0.92 -0.92)"/><path class="cls-21" d="M93.06,70A23.75,23.75,0,0,1,93,55,28.88,28.88,0,0,1,93.06,70Z" transform="translate(-0.92 -0.92)"/><path class="cls-22" d="M70.2,49c-1.84-.23-3.09-1.23-3-3.18a2.74,2.74,0,0,1,3-2.69,2.7,2.7,0,0,1,3,3.1C73.1,47.93,72,48.84,70.2,49Z" transform="translate(-0.92 -0.92)"/><path class="cls-23" d="M63.9,70a27.16,27.16,0,0,1-.1-14.93A30.79,30.79,0,0,1,63.9,70Z" transform="translate(-0.92 -0.92)"/><path class="cls-24" d="M147.3,43.87c1.13-.1,2.28.54,2,2.5a2.75,2.75,0,0,1-3,2.64,3.05,3.05,0,0,1-3.29-2.94C143,43.7,145.05,44,147.3,43.87Z" transform="translate(-0.92 -0.92)"/><path class="cls-25" d="M22,70c2.76-.51,1.94-2.72,2-4.39.08-4.79,0-9.59,1.11-14.38v19c-.77,1.33-1.84,1.4-3.08.74-.26-.22-.35-.44-.26-.66S21.91,70,22,70Z" transform="translate(-0.92 -0.92)"/><path class="cls-23" d="M107.11,47c1.92,7.66.49,15.42.79,23.13-2.12-3.8-.68-7.9-.93-11.86C106.73,54.55,107,50.78,107.11,47Z" transform="translate(-0.92 -0.92)"/><path class="cls-26" d="M22,70v1A.84.84,0,0,1,21,70.14V51.34l1.05,0Z" transform="translate(-0.92 -0.92)"/><path class="cls-20" d="M144.73,51.87q.15,9.06.29,18.12c0,.32,0,.63,0,1C142.45,64.62,143,58.25,144.73,51.87Z" transform="translate(-0.92 -0.92)"/><path class="cls-27" d="M31,46c-5.32-.44-10.74,1-16-.88a62.76,62.76,0,0,1,16,0c.27.2.35.39.27.59S31.09,46,31,46Z" transform="translate(-0.92 -0.92)"/><path class="cls-21" d="M158.77,70c-1.47-4.23-.73-8.55-.47-12.85,0-.05.27-.14.4-.12a1.63,1.63,0,0,1,.43.23C159.39,61.47,159.87,65.73,158.77,70Z" transform="translate(-0.92 -0.92)"/><path class="cls-25" d="M107.84,70.11c4,.23,8.19-1,12.13.78C115.9,71.08,111.77,72.19,107.84,70.11Z" transform="translate(-0.92 -0.92)"/><path class="cls-28" d="M35,70.86a6.79,6.79,0,0,1,6.91-.07C39.65,71.81,37.35,72.18,35,70.86Z" transform="translate(-0.92 -0.92)"/><path class="cls-29" d="M31,46c0-.3,0-.59,0-.89,2,1.19,2,2.54.34,4l-4.52-.34C28.12,47.36,31,48.75,31,46Z" transform="translate(-0.92 -0.92)"/><path class="cls-30" d="M34.85,65c-3.24-1.29-1.58-3.83-1.51-6a.71.71,0,0,1,.41-.06,1.61,1.61,0,0,1,.39.27Z" transform="translate(-0.92 -0.92)"/><path class="cls-28" d="M128,70.89a5.2,5.2,0,0,1,5.91-.17A5.25,5.25,0,0,1,128,70.89Z" transform="translate(-0.92 -0.92)"/><path class="cls-31" d="M61,95.92c1.55-1.38,3.25-1.07,6-.24l-4.23.43Z" transform="translate(-0.92 -0.92)"/><path class="cls-32" d="M112.07,45.85c-1.52,1.11-2.73.08-4-.59C109.44,45.22,111,44.11,112.07,45.85Z" transform="translate(-0.92 -0.92)"/><path class="cls-33" d="M29,59a3.47,3.47,0,0,1,.06,5A8.08,8.08,0,0,1,29,59Z" transform="translate(-0.92 -0.92)"/><path class="cls-34" d="M62.91,81.94l4.76.23c-2.26,1.07-3.56,1.12-4.75-.24Z" transform="translate(-0.92 -0.92)"/><path class="cls-35" d="M127.17,61.33c1-2.73,1.52-6.55,5.7-5,3,1.1,3.52,4.11,2.54,7.15-.55,1.71-1.59,3-3.47,3.08-3.28.14-3.8-2.62-4.76-4.86Z" transform="translate(-0.92 -0.92)"/><path class="cls-36" d="M127.17,61.33v.33c-.23.47-.56,1.6-.84,1.17-.72-1.13-.42-2.52.25-4.73C126.9,59.81,127,60.57,127.17,61.33Z" transform="translate(-0.92 -0.92)"/><path class="cls-36" d="M123,57c1.3,1.12,1.25,2.46.62,4.09-1.07-1.37-.31-2.82-.61-4.11Z" transform="translate(-0.92 -0.92)"/><path class="cls-37" d="M59.91,70.12V59.34c.6,3.6,2.16,7.25,0,10.76Z" transform="translate(-0.92 -0.92)"/><path class="cls-23" d="M89,70.06V59.34c.58,3.58,2.06,7.2,0,10.7Z" transform="translate(-0.92 -0.92)"/></g></g></svg>