<svg xmlns="http://www.w3.org/2000/svg" viewBox="0 0 182.27 83.19"><defs><style>.cls-1{fill:#fefefe;}.cls-2{fill:#104e93;}.cls-3{fill:#f9fcfc;}.cls-4{fill:#f4f7f9;}.cls-5{fill:#135194;}.cls-6{fill:#34aba2;}.cls-7{fill:#d1ddea;}.cls-8{fill:#5c86b5;}.cls-9{fill:#21a49a;}.cls-10{fill:#23a59b;}.cls-11{fill:#114f93;}.cls-12{fill:#24a59b;}.cls-13{fill:#24a49b;}.cls-14{fill:#26a59c;}.cls-15{fill:#185496;}.cls-16{fill:#28a79d;}.cls-17{fill:#175396;}.cls-18{fill:#1f5a99;}.cls-19{fill:#e8f4f4;}.cls-20{fill:#34aba3;}.cls-21{fill:#30aaa1;}.cls-22{fill:#1f599a;}.cls-23{fill:#5682b2;}.cls-24{fill:#7f9fc4;}.cls-25{fill:#3066a1;}.cls-26{fill:#5581b2;}.cls-27{fill:#3166a1;}.cls-28{fill:#5a85b4;}.cls-29{fill:#5e87b6;}.cls-30{fill:#4173a9;}.cls-31{fill:#4273a9;}.cls-32{fill:#4777ab;}.cls-33{fill:#1a5598;}.cls-34{fill:#4474aa;}.cls-35{fill:#29609e;}.cls-36{fill:#366ba4;}.cls-37{fill:#5481b1;}.cls-38{fill:#4576ab;}.cls-39{fill:#5f88b6;}.cls-40{fill:#145194;}.cls-41{fill:#1e6099;}.cls-42{fill:#4373aa;}.cls-43{fill:#6c93bd;}.cls-44{fill:#165295;}.cls-45{fill:#85a5c8;}.cls-46{fill:#b3c7dc;}.cls-47{fill:#9db6d2;}.cls-48{fill:#4eb6ae;}.cls-49{fill:#e6edf3;}.cls-50{fill:#94b0cf;}.cls-51{fill:#83a3c6;}.cls-52{fill:#6e93bd;}.cls-53{fill:#7398c0;}.cls-54{fill:#779ac1;}.cls-55{fill:#789bc2;}.cls-56{fill:#cbd8e7;}.cls-57{fill:#ebeff5;}.cls-58{fill:#d9e2ed;}.cls-59{fill:#658cb9;}.cls-60{fill:#5883b3;}.cls-61{fill:#5f87b6;}.cls-62{fill:#dde5ef;}.cls-63{fill:#f3f6f9;}.cls-64{fill:#668dba;}.cls-65{fill:#a2bbd5;}.cls-66{fill:#245d9c;}.cls-67{fill:#dfe7f0;}.cls-68{fill:#86a5c8;}.cls-69{fill:#618ab7;}.cls-70{fill:#366aa4;}.cls-71{fill:#7498c0;}.cls-72{fill:#7397bf;}.cls-73{fill:#d2ddea;}.cls-74{fill:#c3d3e4;}.cls-75{fill:#80a1c5;}.cls-76{fill:#7c9dc4;}.cls-77{fill:#4575aa;}.cls-78{fill:#d6e1ec;}.cls-79{fill:#6b91bc;}.cls-80{fill:#6f94be;}.cls-81{fill:#4f7daf;}.cls-82{fill:#507eaf;}.cls-83{fill:#cddae8;}.cls-84{fill:#5682b3;}.cls-85{fill:#88a6c8;}.cls-86{fill:#5c87b5;}.cls-87{fill:#a7bed7;}.cls-88{fill:#e0e7f0;}.cls-89{fill:#678eba;}.cls-90{fill:#527fb1;}.cls-91{fill:#c6d4e5;}.cls-92{fill:#bdcee1;}.cls-93{fill:#c5d4e5;}.cls-94{fill:#648cb8;}.cls-95{fill:#7498bf;}.cls-96{fill:#f7f9fb;}.cls-97{fill:#47b3ab;}.cls-98{fill:#e8f5f4;}.cls-99{fill:#eef8f7;}.cls-100{fill:#e0eef0;}</style></defs><title>Fichier 1Vitalcare</title><g id="Calque_2" data-name="Calque 2"><g id="Calque_1-2" data-name="Calque 1"><path class="cls-1" d="M183,58V76a1.18,1.18,0,0,1-1.16.36,29.61,29.61,0,0,0-4.16-1.72,33.35,33.35,0,0,0-5-1.48c-1.51-.35-3-.83-4.51-1.13-1.31-.33-2.58-.78-3.88-1.12-.45-.1-.89-.24-1.32-.38a70,70,0,0,0-8.25-1.4c-1.91-.34-3.78-.88-5.68-1.25a49.34,49.34,0,0,0-5-1,20,20,0,0,0-5.66-.67,9.83,9.83,0,0,1-2.09-.36c-1.1-.35-2.19-.73-3.25-1.17-.62-.27-1.21-.6-1.81-.9-1.68-.82-3.53-.45-5.29-.74a11.19,11.19,0,0,1-1.4-.28,15.22,15.22,0,0,0-5.08-.42l-4.75,0c-1.94,0-3.91.09-5.76-.67-3.52-2.3-7.46-1-11.21-1.31-5.52.06-11-.19-16.55.17-1.86.72-3.9-.46-5.74.54a4.57,4.57,0,0,1-2.15.42,72.43,72.43,0,0,0-9.66-.11c-3.12.48-6.3-.7-9.39.38a13.79,13.79,0,0,1-6.25.53c-1.66,0-3.38-.45-4.92.57a17.85,17.85,0,0,1-2,1.61,7.36,7.36,0,0,1-1.85.68,12.88,12.88,0,0,1-4.55,0c-1.22,0-2.49-.22-3.5.78a11.16,11.16,0,0,1-.86,1A4.37,4.37,0,0,1,28,68.05a20.66,20.66,0,0,1-2.61.15,4.42,4.42,0,0,0-3.81,1.66c-1.72,1.48-3.75.85-5.7.89-2.34-.5-4.64-1.26-7.09-1.09C6.31,68.14,3.61,69.06,1,69,1,47.44,1.05,25.87.93,4.31c0-2.62.32-3.46,3.24-3.4C15.77,1.13,27.39,1,39,1c3.58,1.85,4.36,5.07,4.35,8.74,0,8.51-4,15.9-6.71,23.63A51.82,51.82,0,0,1,34,39.74c-1.17,1.63-1.65,3.6-2.57,5.36-1.46,2.76-2.91,2.4-4.29.1a46.7,46.7,0,0,1-2.93-6.86c-2-4.94-4-9.86-5.95-14.8-1.06-2.66-2.14-5.3.38-8-3.52-.46-6.47-.12-10.35-.3,3.5,2.37,4.67,5.31,5.85,8.24Q19.5,36.88,24.91,50.27c.59,1.46.63,3.33,2.77,4.18,3.08-4,3.15-9.34,5.68-13.57,2.61-4.63,4.31-9.66,6.37-14.53A77.32,77.32,0,0,1,51.49,6.29,26.38,26.38,0,0,1,58,1Q118.75,1,179.5.92c3,0,3.63.59,3.59,3.58-.2,13.83-.09,27.67-.09,41.5-3.4.26-5.5-3.53-9-2.88a4.68,4.68,0,0,1-2-.72,4.14,4.14,0,0,1-.82-1.13c-.67-1.66-1.78-3.44-3.51-1.72-2.52,2.5-4.28.55-6.32-.31-2.1,1.12-.32,2.58-.34,3.87-.09,4.57,2,9.46-2,13.45-3.3.83-4.58-1.07-5.06-3.86a53.34,53.34,0,0,1-.23-6.45c-.25-5.54-1.83-6.76-7.54-5.89-1.26.93-2.85,1.47-3.87,3.2,2.14-.74,2.75-3.13,4.85-3.4,4.92.74,5.65,2,4.09,7-1.28,1.38-3.07,1.81-4.71,2.53-2.56.84-4.5,2.66-6.65,4.17-6.88,2.52-11.9,1.35-15.57-3.63-3.29-4.46-3.47-13.11-.36-17.51,2.68-3.79,7.3-5,12-3.07,1.45.59,2.69,1.92,4.72,1.58-.09-2.69-2-3-3.68-3.36C127,25.8,115.82,36.85,117.8,46.74c1.85,9.24,10.29,13.63,18.94,9.84a11.42,11.42,0,0,1,2.76-1.12c3.78,2.45,7.71,3.49,12,1.15a9.31,9.31,0,0,0,6.13.65,15.52,15.52,0,0,1,9.15.11c6,5.55,8.95,5.85,13.68,1.37C181.18,58.11,181.93,57.5,183,58Z" transform="translate(-0.82 -0.9)"/><path class="cls-1" d="M182,76h1c0,8,0,8-8,8h-9c-.82-.92-.47-1.68.33-2.38a2.68,2.68,0,0,1,1.34-.23,3.06,3.06,0,0,0,1.94-.35A12.43,12.43,0,0,1,172,80c.51-.27,1.26-.36,1.32-1s-.59-.53-1-.63a3.37,3.37,0,0,0-1.62.39c-.83.87-.94,2.41-2.45,2.64-1.2-.42-1.24-2.14-2.65-2.32a12.49,12.49,0,0,0-2.36.47,4,4,0,0,1-1.24,0,13.61,13.61,0,0,1-2.34-.76,14,14,0,0,1-1.59-.93,3.43,3.43,0,0,0-2.87-.13c-1,.28-2,.55-2.95.76a7.73,7.73,0,0,1-2.35-.16c-.38,0-.77,0-1.15,0a11.91,11.91,0,0,0-2.26.58,12,12,0,0,1-4.23.58c-.43-.07-.87-.4-1.29,0,.42.27.94.18,1.39.4a2.89,2.89,0,0,1,1.3,1.48A2.63,2.63,0,0,1,143,84c-46,0-92,0-138,.1C1.57,84.11.42,83.45.94,80A49.36,49.36,0,0,0,1,73c1.8-.6,2.64.75,3.62,1.8,1.86,2.82,3.08,6.91,7.69,5.39s4-5.45,3.3-9.18a1.66,1.66,0,0,1,.22-1c1.5-1.45,3.72,1,5.13-1a4.21,4.21,0,0,1,2.49-1.06A9.38,9.38,0,0,0,28,67,2.14,2.14,0,0,0,30,65.92c2.52-2.38,6.17.8,8.66-1.74L40.61,64c1.36.11,2.54-.55,3.81-.87s2.7-.69,4.08-1c2.24.1,4.51.35,6.43-1.24,4.55-.25,9.14.83,13.67-.4,2,.12,4-.44,5.89.51l.44-.54c2.95-.78,6,.19,8.94-.5h6.78a17.53,17.53,0,0,1,2.51.15c3.52.86,7.11.34,10.67.47,1.64.06,3.31-.09,4.82.78,2.31,1,4.75.44,7.12.6a25.53,25.53,0,0,1,3.15.13c2.21.63,4.53.51,6.78.87,1.74,0,3.38.57,5.08.78,1.77.59,3.47,1.51,5.44,1.21l1.23,0c1.75,1,3.71,1,5.63,1.2a21.16,21.16,0,0,0,5,1c1.87.69,3.87.82,5.76,1.41,3.4.44,6.69,1.61,10.17,1.41l-.09-.06c1,1.27,2.67,1.16,4,1.69,1,.41,2.21.39,3.21.94a47.81,47.81,0,0,1,6.74,2C179.27,75.14,180.83,75,182,76Z" transform="translate(-0.82 -0.9)"/><path class="cls-2" d="M32.76,39.91c2.69-7.86,6.33-15.38,8.35-23.48C42.48,11,43.15,5.67,39,1H58c-2,3.85-6,5.9-8.36,9.49-5.39,8-8.93,16.91-12.7,25.7-.77,1.77-1,3.9-2.78,5.11A1.86,1.86,0,0,1,32.76,39.91Z" transform="translate(-0.82 -0.9)"/><path class="cls-3" d="M183,58l-1.58.94c-4.89,2.82-8.93,2.2-11.41-2-1.55-2.63-2-5.3,1.49-7,3.3-.64,6.66-.08,10-.52A2.5,2.5,0,0,1,183,50Z" transform="translate(-0.82 -0.9)"/><path class="cls-4" d="M160,78a2.32,2.32,0,0,1,2.13,1c.44.64,1.24.45,1.82.78,1.32,1.18,2.1,2.5,1.06,4.26H147a1.1,1.1,0,0,1-.34-.82c0-.3.05-.46.11-.46a4.41,4.41,0,0,1,2.9-1.8c2.08,0,1.88-1.79,2.32-3.06.73-1,1.85-.84,2.88-.91,1.56.29,1.84,1.88,2.81,2.74C159.06,80,159.14,78.44,160,78Z" transform="translate(-0.82 -0.9)"/><path class="cls-5" d="M4,75.1,1,73V69c2.64-2.14,5.29-2.9,8-.06C10.56,73.9,9,75.83,4,75.1Z" transform="translate(-0.82 -0.9)"/><path class="cls-6" d="M183,50l-.4.21-.43-.13a5.16,5.16,0,0,1-4.2,0c-1.07-1.66-.73-4-2.49-5.31-.63-.82-1.92-1.3-1.45-2.71,4-1,6.37,1.72,9,3.93Z" transform="translate(-0.82 -0.9)"/><path class="cls-7" d="M165,84a5.36,5.36,0,0,0-2.06-4,.64.64,0,0,1-.21-.68c.07-.22.15-.33.22-.33.66-1.17,1.83-1,2.89-1.06,1.4,1,1.28,2.51,1.28,4A2,2,0,0,0,166,84Z" transform="translate(-0.82 -0.9)"/><path class="cls-8" d="M147.2,83l-.2,1h-4l-.18-3A3,3,0,0,1,145.6,81C146.47,81.37,147.42,81.75,147.2,83Z" transform="translate(-0.82 -0.9)"/><path class="cls-9" d="M85,40.91c1.36-1.95,5.7-1.21,4.61-5.46C88.68,32,86.91,30,83.18,30.11,82,30.51,81.79,30,82,29c8-3.75,13-.73,13.25,8,.1,3.83,0,7.67.08,11.49.06,1.81.2,4,2.68,4.07s2.62-2,2.61-4c0-9.82-.12-19.65.07-29.47.06-3.37-1.67-5-4.44-6.67l10-2.29c0,12.48,0,24.61,0,36.73,0,3.64-.71,7.59,4.41,9.09-5.66.33-11.31.7-17,.92a2.69,2.69,0,0,1-2.6-2c-.6-1.27-2.48-1.43-2.66-3.06,0-1.83.33-3.62.4-5.45.09-2.24-.89-3.41-3-3.77C85.1,42.23,84.58,41.78,85,40.91Z" transform="translate(-0.82 -0.9)"/><path class="cls-2" d="M32.76,39.91l1.4,1.39c-1.43,4.14-2.79,8.3-4.32,12.39-.49,1.3-.52,3.35-2.39,3.41-2.23.07-2.14-2.2-2.71-3.63q-5.65-14.08-11.2-28.21C11.85,21,10.6,16.36,5.22,14.57H21.74c-5.65,2.2-3.53,5.73-2,9.41,3.18,7.62,6.13,15.34,9.46,23.74Z" transform="translate(-0.82 -0.9)"/><path class="cls-10" d="M140.06,56c-7.45,4.95-15.07,4.39-20.17-1.46a15.81,15.81,0,0,1,.85-21.38c4.83-5,10.65-8,18-6.26,1.84.43,3.54,1.18,4.08,3.21a2.82,2.82,0,0,1-1.32,3c-2,1.47-3-.63-4.25-1.39-6.74-4-13.24-.9-14.25,6.87-1.49,11.52,6.18,17.94,17,14.23A2.16,2.16,0,0,1,140.06,56Z" transform="translate(-0.82 -0.9)"/><path class="cls-11" d="M75,54.94C67.56,59.27,63.15,56.88,63,48.41c-.06-5.49,0-11,0-16.45,0-4.27,0-4.27-5.59-5.64,6.93-1.14,4.84-9.31,10.85-10.51,1.15.84.69,2.14.57,3.15-.44,4,.35,6.56,5.19,5.65.9-.17,2.28-.15,2.29,1.15,0,1.66-1.55,1.62-2.62,1.43-4.67-.81-5.07,1.78-4.87,5.46.25,4.64.11,9.3.05,14,0,2.41.3,4.64,2.1,6.42C71.94,54.46,74.69,52.15,75,54.94Z" transform="translate(-0.82 -0.9)"/><path class="cls-12" d="M58.54,56.14a46.52,46.52,0,0,1-14.2.57c5.91-5,6.24-20.4.84-24.78.18-.24.32-.64.54-.7,8.39-2.19,8.4-2.18,8.4,6.46,0,3.66.11,7.32,0,11C54,52.05,54.18,55.06,58.54,56.14Z" transform="translate(-0.82 -0.9)"/><path class="cls-13" d="M4,75.1c4.17,0,5.38-2.45,5-6.16,2.57-1.36,4.67.13,6.86,1.12,1,1.9,2.07,3.8,1.66,6.07-.65,3.55-2.79,5.73-6.39,5.76C6.74,81.93,4.63,79.17,4,75.1Z" transform="translate(-0.82 -0.9)"/><path class="cls-14" d="M89,51.9c.55,1.1,2.15,1.46,2.07,3-1.54-1.58-2.92-.72-4.27.28-3.65,2.74-7.2,2.45-10.67-.34-.25-.83-1-1.34-1.39-2-1.66-7.27-.08-9.1,10.25-11.87l1.24,1.18c.08,1.62-1.32,2.1-2.28,2.89-1.46,1.21-2.68,2.54-1.83,4.58.75,1.8,2.38,2,4.1,1.87C87.16,51.35,88.15,51.15,89,51.9Z" transform="translate(-0.82 -0.9)"/><path class="cls-15" d="M150.13,47.18C152,42.45,151,41,145.92,41c-.85.27-1.12-.06-.9-.88,6.73-3.21,10.13-1.26,10.35,6,.07,2.47,0,4.95,0,7.43s1.34,3.17,3.58,2.5a29.5,29.5,0,0,0,5.28-.77,4.7,4.7,0,0,1,2.17.13c.7.84,3.4,1.43.36,2.76-3.68,0-7.42-1-10.95,1.13-2.36,1.43-3.38-1-4.83-2.13a2.27,2.27,0,0,1-.47-1.27C151,52.92,150.55,50.05,150.13,47.18Z" transform="translate(-0.82 -0.9)"/><path class="cls-16" d="M166.81,58.11c1.44-1.5-.25-1.63-1-2.19-1.37-1.69-1.19-3.64-1-5.61,1.17-2.86,1.45-6.48,5.69-6.77,1.87,1.12,1.07,2.86,1,4.42-.21,1,.94,1.88.35,2.94-2.82.46-2.27,2.43-1.63,4.11,1.16,3,3.37,4.85,6.76,4.68a34.11,34.11,0,0,0,4.33-.75C177.27,65,171.12,64.64,166.81,58.11Z" transform="translate(-0.82 -0.9)"/><path class="cls-17" d="M164.07,55.84c-1.64,1.71-3.34,1.64-5.07.15.6-5.66,2.21-11.41-1.48-17,.92-1.11,2.64-.91,4.21-1.13,3.05.49,1.39,3.94,3.26,5.17,1,3.78-.25,7.52-.13,11.29A3.73,3.73,0,0,1,164.07,55.84Z" transform="translate(-0.82 -0.9)"/><path class="cls-18" d="M151,56.31c0,.26,0,.53,0,.8-5.69,3.83-6.73,3.72-11-1.15l-.12-3.16a7.67,7.67,0,0,1,6-3.85c1-.47,1.22.14,1.4.89-1,2.77-1.71,5.42,2.72,5.55A1.42,1.42,0,0,1,151,56.31Z" transform="translate(-0.82 -0.9)"/><path class="cls-19" d="M164.14,55c-.67-4-.35-7.91-.1-11.87,1.9-3.77,4.82-3.39,8-2a3.25,3.25,0,0,1,0,.88,1.37,1.37,0,0,1,.5,1.1c-.22.65-.56,1.11-1.35.85-3.31.69-3.91,3.73-5.28,6.09C164.52,51.4,167.05,54.14,164.14,55Z" transform="translate(-0.82 -0.9)"/><path class="cls-20" d="M82,29l1.19,1.14a8.65,8.65,0,0,0-3.33,4.79c-.35,1.36-1.11,2.44-2.78,2.28a2.72,2.72,0,0,1-2.51-2.08c-.45-1.58.63-2.48,1.74-3.24C78.06,30.66,79.75,29.25,82,29Z" transform="translate(-0.82 -0.9)"/><path class="cls-21" d="M50.92,28.06c-2.13-.23-3.31-1.43-3.21-3.55a3.1,3.1,0,0,1,3.56-3.2,3,3,0,0,1,3,3.29A3.15,3.15,0,0,1,50.92,28.06Z" transform="translate(-0.82 -0.9)"/><path class="cls-22" d="M172,41.11c-2.47,1.47-6.06-1.63-8,2-1.33-1.5-.4-4-2.31-5.24,3.41-1.93,1.45,1.8,2.73,2.46,2-1,3.15-4.29,6.27-3C172.49,38,172.4,39.57,172,41.11Z" transform="translate(-0.82 -0.9)"/><path class="cls-23" d="M91.06,60.89l-7.13-.06c-1.23-.84-2.88.25-4-.88,5.85-1.64,11.82-.58,17.73-.83.67.22.78.6.35,1.15C95.81,62,93.29,59.84,91.06,60.89Z" transform="translate(-0.82 -0.9)"/><path class="cls-24" d="M68.16,61.17c-4.53,1.79-9.28-.09-13.86.88l-.37-.27.12-.44c2.72-2.66,6.08-.56,9.07-1.21C64.65,61.18,66.71,59.7,68.16,61.17Z" transform="translate(-0.82 -0.9)"/><path class="cls-25" d="M145,40.08l.9.88a1.24,1.24,0,0,1-.24.42c-1.31,1.26-.73,4.16-3.47,4.12a1.61,1.61,0,0,1-1.59-1.6C140.83,41.28,143.09,40.82,145,40.08Z" transform="translate(-0.82 -0.9)"/><path class="cls-26" d="M164.05,70c-3.64,2.43-6.81-.15-10.15-.94a1.87,1.87,0,0,1,1.06-.89A18,18,0,0,1,164.05,70Z" transform="translate(-0.82 -0.9)"/><path class="cls-27" d="M108.53,62.15l-4.53-.3c-1-.81-2.57.24-3.3-1.19a1,1,0,0,1,.79-1.1c2.56,0,5.17-.45,7.51,1.08l6,.44C113.23,63.87,110.72,62.05,108.53,62.15Z" transform="translate(-0.82 -0.9)"/><path class="cls-28" d="M147,50,145.94,49c1.17-1.12,2.71-1.37,4.19-1.77,3,2.78,2.22,5.93.87,9.13a.66.66,0,0,1-.11-.56C149.53,53.88,149.87,50.86,147,50Z" transform="translate(-0.82 -0.9)"/><path class="cls-1" d="M109,60.64a22.5,22.5,0,0,0-8-.54,2,2,0,0,1-2.84-.2,6.61,6.61,0,0,1-.52-.78C101.39,59.82,105.61,57.08,109,60.64Z" transform="translate(-0.82 -0.9)"/><path class="cls-29" d="M178,74.66c-2.63.55-4.91-.65-7.24-1.53.44-.95,1.64-.36,2.2-1.08,1.66.69,3.77.31,5,2.11Z" transform="translate(-0.82 -0.9)"/><path class="cls-30" d="M54.05,61.34a.62.62,0,0,0,.26.72c-1.87,1.84-4.23.45-6.3,1a1.64,1.64,0,0,1-.55-1,1.23,1.23,0,0,1,.66-1Z" transform="translate(-0.82 -0.9)"/><path class="cls-31" d="M108.53,62.15c2.1-.62,4.53.71,6.44-1.07l4.9,0a.74.74,0,0,1,.39.73c-.05.28-.11.42-.2.42-1.24.75-2.79-.23-4,.7C113.51,63,111,63.14,108.53,62.15Z" transform="translate(-0.82 -0.9)"/><path class="cls-32" d="M38.69,64.18C36.36,67.57,33,65.73,30,65.92a4.38,4.38,0,0,1,0-.81c1.49-1.37,3.57.11,5.1-1.07C36.32,63.82,37.45,65.45,38.69,64.18Z" transform="translate(-0.82 -0.9)"/><path class="cls-33" d="M126,63.85a11.22,11.22,0,0,1-7.29-.69c.71-.79,1.84-.9,2.62-1.57,1.26.06,2.61-.53,3.72.54l.27.18.26-.18a1.18,1.18,0,0,1,.9.7A1.15,1.15,0,0,1,126,63.85Z" transform="translate(-0.82 -0.9)"/><path class="cls-34" d="M79.89,60c1.35.27,2.91-.4,4,.88-3,.2-6,.65-9-.32C76.29,57.71,78.24,60.14,79.89,60Z" transform="translate(-0.82 -0.9)"/><path class="cls-35" d="M68.16,61.17c-1.62-.67-3.57.3-5-1,3.8.22,7.77-1.74,11.36.92Z" transform="translate(-0.82 -0.9)"/><path class="cls-36" d="M126,63.85a3.43,3.43,0,0,1,.07-1,10.12,10.12,0,0,1,5.92,0l1.31.93c-.43,1-1.64.41-2.24,1.07C129.2,65.3,127.65,64.27,126,63.85Z" transform="translate(-0.82 -0.9)"/><path class="cls-37" d="M143,67.1c-2.08-.1-4.29.14-5.54-2.13,2.28-.09,4.61-.55,6.65,1C143.93,66.53,143.3,66.66,143,67.1Z" transform="translate(-0.82 -0.9)"/><path class="cls-38" d="M155,68.17l-1.06.89L148,67.9c-.17-.86-.05-1.4,1-.93C151.17,66.62,153,67.67,155,68.17Z" transform="translate(-0.82 -0.9)"/><path class="cls-39" d="M149,67l-1,.93-5-.8L144.1,66C145.78,66.15,147.65,65.4,149,67Z" transform="translate(-0.82 -0.9)"/><path class="cls-40" d="M131,64.89l2.24-1.07c1.06.2,2.34-.17,2.94,1.18C134.45,67.33,132.76,65.07,131,64.89Z" transform="translate(-0.82 -0.9)"/><path class="cls-41" d="M74.71,52.78c.61,0,1.47-.32,1.79,0,.8.72-.22,1.37-.4,2.08L75,54.94c-.9-1.54-3.14-.28-4-1.92Z" transform="translate(-0.82 -0.9)"/><path class="cls-42" d="M173,72.05c-.46.93-1.38.9-2.2,1.08-1-.07-2.1,0-2.83-.92q-.49-.36-.33-.72c.12-.24.23-.36.35-.36C169.75,70.82,171.33,71.63,173,72.05Z" transform="translate(-0.82 -0.9)"/><path class="cls-43" d="M178,74.66a1.47,1.47,0,0,1-.08-.51c1.7-.15,3.48-.47,4.06,1.85C180.51,76,178.88,76.5,178,74.66Z" transform="translate(-0.82 -0.9)"/><path class="cls-44" d="M168,71.13l0,1.08c-1.42-.6-4,.82-4-2.27Z" transform="translate(-0.82 -0.9)"/><path class="cls-1" d="M132,62.89h-5.92c-.15-.26-.31-.52-.48-.76C127.72,62.25,130,61.24,132,62.89Z" transform="translate(-0.82 -0.9)"/><path class="cls-45" d="M24,68.9l-3,.21c.73-1.88,2.21-2.28,4-2C25.57,68.16,24.59,68.43,24,68.9Z" transform="translate(-0.82 -0.9)"/><path class="cls-46" d="M44,64c-1.14,1.31-2.27,1.23-3.39,0L42,62.14a.87.87,0,0,1,1.06-.36A2.48,2.48,0,0,1,44,64Z" transform="translate(-0.82 -0.9)"/><path class="cls-1" d="M43.18,62.17l-1.16,0c1.73-2.08,4.06-.78,6.1-1.1a4,4,0,0,0-.14.9A3.71,3.71,0,0,1,43.18,62.17Z" transform="translate(-0.82 -0.9)"/><path class="cls-47" d="M24,68.9l1-1.84,3,0C27.08,68.55,25.54,68.74,24,68.9Z" transform="translate(-0.82 -0.9)"/><path class="cls-1" d="M35.12,64c-1.55,1.08-3.4.71-5.1,1.07C31.41,63.25,33.39,64.26,35.12,64Z" transform="translate(-0.82 -0.9)"/><path class="cls-48" d="M172.06,42.88A1.15,1.15,0,0,0,172,42l2,.08,2,1.7C174.28,45.42,173,44.75,172.06,42.88Z" transform="translate(-0.82 -0.9)"/><path class="cls-1" d="M125,62.13l-4,0c-.4.37-.65.28-.74-.26a4.63,4.63,0,0,0-.37-.78C121.63,61.24,123.63,60.27,125,62.13Z" transform="translate(-0.82 -0.9)"/><path class="cls-49" d="M51.08,82c-2.51-.25-4.63-1.13-4-4.13.54-2.57,2.25-2.16,3.91-.84A7.26,7.26,0,0,1,51.08,82Z" transform="translate(-0.82 -0.9)"/><path class="cls-50" d="M37.88,76.81c.13-.81.86-2.12,1.26-1.39,1.08,2,3.81,4.44-.22,6.37a4.14,4.14,0,0,1-1.63-2.26A4.71,4.71,0,0,1,37.88,76.81Z" transform="translate(-0.82 -0.9)"/><path class="cls-51" d="M134,74.65c1.41,2.73.82,4.71.91,7.28C132.79,79.13,132.79,79.13,134,74.65Z" transform="translate(-0.82 -0.9)"/><path class="cls-52" d="M96,81.83c-2.86-1-4.25-4.7-2.17-6.23,1-.73,1,.75,1.13,1.43,1.14.93,1.27,2.27,1.44,3.58A1.9,1.9,0,0,1,96,81.83Z" transform="translate(-0.82 -0.9)"/><path class="cls-53" d="M59.1,78.08c1.44.19,3.88-1.7,3.85,1.61,0,3.83-2.83-.12-3.81,1.23A1.77,1.77,0,0,1,59.1,78.08Z" transform="translate(-0.82 -0.9)"/><path class="cls-54" d="M145.14,81.91,142.82,81l-1.23-.73a1.18,1.18,0,0,1,.42-1.24,5.61,5.61,0,0,1,5-1C148.39,80.28,146.13,80.79,145.14,81.91Z" transform="translate(-0.82 -0.9)"/><path class="cls-55" d="M172.1,77.1c1.54-.41,3.4-.44,3.5,1.37s-1.81,2.36-3.52,2.44A2.49,2.49,0,0,1,172.1,77.1Z" transform="translate(-0.82 -0.9)"/><path class="cls-56" d="M145.14,81.91c-.38-1.77,2-2.23,1.85-3.88.3-1.07,1.11-1.14,2-1,.7,1.22.36,2.79,1.33,3.91A1,1,0,0,1,150,82l-2.81,1Z" transform="translate(-0.82 -0.9)"/><path class="cls-57" d="M157,81l-2.13-4c1.42-1.35,2.79-1.47,4.08.17C158.34,78.43,160,80.87,157,81Z" transform="translate(-0.82 -0.9)"/><path class="cls-58" d="M150,82l0-1c-1.08-1.24-.81-2.52-.13-3.82l2.15.73C154.35,80.7,152.92,81.71,150,82Z" transform="translate(-0.82 -0.9)"/><path class="cls-59" d="M86.05,81c1.8-.45.53-2.33,1.48-3.22a1.83,1.83,0,0,1,1.12,3c-1,1.58-2.55,1.64-4,.32A1,1,0,0,1,86.05,81Z" transform="translate(-0.82 -0.9)"/><path class="cls-60" d="M104,81c-1.58.44-3.14,2.29-4.77.09a3.56,3.56,0,0,1,.67-1c.94-.83,1.1-2.26,2.24-2.93l1.87.74A2.16,2.16,0,0,1,104,81Z" transform="translate(-0.82 -0.9)"/><path class="cls-61" d="M127,79c-1.11,1.31-2.42,1.5-3.7.38a1.76,1.76,0,0,1,0-1.69c1.44-1.66,2.48,0,3.64.6.3.15.39.31.3.47S127.08,79,127,79Z" transform="translate(-0.82 -0.9)"/><path class="cls-62" d="M142,79.05l-.42,1.23c-.61.64-1.07,2.11-2.18,1a2.28,2.28,0,0,1,.14-3.17C140.93,76.64,141.43,78.09,142,79.05Z" transform="translate(-0.82 -0.9)"/><path class="cls-23" d="M101,61c1.06.06,2.22-.22,3,.85-3.76,0-7.58.81-11.26-.66C95.47,60,98.23,60.35,101,61Z" transform="translate(-0.82 -0.9)"/><path class="cls-63" d="M75,77c2,1.9.73,3-1,4-2-1.11-2.32-2.72-1.46-4.7C73.73,75.11,74.3,76.16,75,77Z" transform="translate(-0.82 -0.9)"/><path class="cls-64" d="M82.1,80.83a2.22,2.22,0,0,1-2-1.9c-.19-.89,0-1.71,1.06-1.87,1.35-.21,1.66.71,1.76,1.8C83,79.67,83.21,80.52,82.1,80.83Z" transform="translate(-0.82 -0.9)"/><path class="cls-65" d="M157,81c1.88-.68.16-3.16,1.95-3.88l1,.88C159.8,79.81,161.23,83.23,157,81Z" transform="translate(-0.82 -0.9)"/><path class="cls-66" d="M101,61l-8.26.19-1.68-.3c2.16-1.82,4.78-.3,7.09-1l2.84.2C101,60.4,101,60.7,101,61Z" transform="translate(-0.82 -0.9)"/><path class="cls-67" d="M59.1,78.08c0,.94,0,1.89,0,2.84L56,81A1.52,1.52,0,0,1,56,78.8C56.7,77.07,57.8,77.16,59.1,78.08Z" transform="translate(-0.82 -0.9)"/><path class="cls-68" d="M104,81c0-1,0-2.09,0-3.14.52-1,1.28-.73,2.05-.4a2.81,2.81,0,0,1,1.38,2A3.26,3.26,0,0,1,106,82Z" transform="translate(-0.82 -0.9)"/><path class="cls-69" d="M118.05,78c-1.76.37-.73,2.81-2.36,3.4-1.25-1.48-1.15-2.92,0-4a1.3,1.3,0,0,1,2.27.71Z" transform="translate(-0.82 -0.9)"/><path class="cls-54" d="M106.62,79c-.19-.52-.39-1-.58-1.55,2.13-1.39,2.86.61,4,1.64L110,79c.56,1.68-.51,2.31-1.8,2.8C106.56,81.44,108.35,79.23,106.62,79Z" transform="translate(-0.82 -0.9)"/><path class="cls-70" d="M43.18,62.17l4.8-.23L48,63c-1.13,1.16-2.69.54-4,1A1.65,1.65,0,0,1,43.18,62.17Z" transform="translate(-0.82 -0.9)"/><path class="cls-71" d="M43.55,82.32c-.47-2.53-.58-3.89,1-5C45.55,79.09,45.47,80.47,43.55,82.32Z" transform="translate(-0.82 -0.9)"/><path class="cls-72" d="M51.08,82A3.76,3.76,0,0,1,51,77h1a3.69,3.69,0,0,1,.81,1.07c.29,1.28.94,2.57,0,3.85Z" transform="translate(-0.82 -0.9)"/><path class="cls-73" d="M100,80.85a1.26,1.26,0,0,1-.8.19l-1.36-.15a5,5,0,0,1-1.33-2.84A1.39,1.39,0,0,1,97,76.94l3,.09A2.67,2.67,0,0,1,100,80.85Z" transform="translate(-0.82 -0.9)"/><path class="cls-74" d="M172.1,77.1l0,3.81-2.19,1a6.68,6.68,0,0,1,0-4.8Z" transform="translate(-0.82 -0.9)"/><path class="cls-75" d="M65.3,77.29c1.06,1.74.78,2.94.23,4.52C63.93,80.33,63.7,79.12,65.3,77.29Z" transform="translate(-0.82 -0.9)"/><path class="cls-76" d="M118,78.05c2.82.13,1.89,1.8,1.48,3.57-2.17-.78-1.13-2.47-1.39-3.66Z" transform="translate(-0.82 -0.9)"/><path class="cls-77" d="M24.08,78.18c-.36.91-1.49,2.06-1.86,1.34-.67-1.32-1.27-3.27.79-4.41C24.27,75.82,25.11,76.67,24.08,78.18Z" transform="translate(-0.82 -0.9)"/><path class="cls-78" d="M100,80.85c0-1.28,0-2.55,0-3.82l2.13,0C101.59,78.43,103,80.85,100,80.85Z" transform="translate(-0.82 -0.9)"/><path class="cls-79" d="M127,79a5.63,5.63,0,0,1,0-.71c5-2.18.62,2.81,2.83,2.76C127.34,81.79,128.36,79.17,127,79Z" transform="translate(-0.82 -0.9)"/><path class="cls-80" d="M167.12,81.89c-.43-1.32-.85-2.64-1.28-4,2.82-.65,1.45,1.94,2.22,2.88.33.25.43.48.31.71s-.24.34-.36.34l-.44.09Z" transform="translate(-0.82 -0.9)"/><path class="cls-81" d="M30.15,77.84c1.65-1.14,2.87-1.44,3.77.38.32.66-.62,1.23-.81.76C32.56,77.56,31.1,78.62,30.15,77.84Z" transform="translate(-0.82 -0.9)"/><path class="cls-82" d="M110,79c1.21-3.44,2.61-2.45,4.07,0-1.38-.24-2.79-1.51-4.13,0Z" transform="translate(-0.82 -0.9)"/><path class="cls-55" d="M78.32,77.19V80.9C76.71,79.57,76.86,78.46,78.32,77.19Z" transform="translate(-0.82 -0.9)"/><path class="cls-83" d="M97,76.94a6,6,0,0,1,0,.61A2.21,2.21,0,0,1,96,81C94.23,80,95,78.41,95,77Z" transform="translate(-0.82 -0.9)"/><path class="cls-84" d="M24.08,78.18,23,75.11c1.73-.35,2.84.35,3,2.09S24.88,78.14,24.08,78.18Z" transform="translate(-0.82 -0.9)"/><path class="cls-85" d="M149.84,77.13c0,1.27.09,2.55.13,3.82-3.14-.62-1.5-2.42-1-4A7.73,7.73,0,0,1,149.84,77.13Z" transform="translate(-0.82 -0.9)"/><path class="cls-86" d="M56,78.8c0,.73,0,1.46-.05,2.19l-1.73.87c-1.32-.93-1.19-2.27-1-3.62.32-.77.71-1.45,1.73-1.14C55.19,77.74,54.9,78.72,56,78.8Z" transform="translate(-0.82 -0.9)"/><path class="cls-87" d="M37.88,76.81l.32,3.48C36.21,82.23,36,79.77,35,79,35.33,77.46,37.35,78.08,37.88,76.81Z" transform="translate(-0.82 -0.9)"/><path class="cls-88" d="M53.7,78.07c.18,1.26.36,2.52.55,3.79l-1.45,0c-.54-1.22-1.13-2.44-.55-3.82C52.73,77.44,53.21,77.4,53.7,78.07Z" transform="translate(-0.82 -0.9)"/><path class="cls-89" d="M35,79c1.21,0,1.44,2.52,3.16,1.25.83.22.67.91.72,1.5C36.68,82.21,35,81.9,35,79Z" transform="translate(-0.82 -0.9)"/><path class="cls-68" d="M86.05,81l-1.4,0c-1.12-1.37-1.22-3.09.62-3.24C86.51,77.68,85.67,79.87,86.05,81Z" transform="translate(-0.82 -0.9)"/><path class="cls-90" d="M72.22,81.1c-2.42-1.25-.85-3.36-1.08-5.08a.77.77,0,0,1,1.26.35C72.41,77.94,72.78,79.54,72.22,81.1Z" transform="translate(-0.82 -0.9)"/><path class="cls-91" d="M72.22,81.1l0-5c.38-.4.69-.34.9.17A6.58,6.58,0,0,0,74,81Z" transform="translate(-0.82 -0.9)"/><path class="cls-89" d="M168,81.86c0-.35,0-.7.05-1,1.8-.66.06-3.07,1.85-3.73l0,4.8Z" transform="translate(-0.82 -0.9)"/><path class="cls-92" d="M106.62,79c2.4-.09.81,2,1.55,2.83L106,82C106.19,81,106.4,80,106.62,79Z" transform="translate(-0.82 -0.9)"/><path class="cls-93" d="M53.7,78.07H52.25L52,77c1-.72,2.07-2.75,2.93.12Z" transform="translate(-0.82 -0.9)"/><path class="cls-94" d="M73.08,76.23a3.05,3.05,0,0,0-.9-.17l-1,0c1.77-1.68,3.32-2.48,3.81,1Z" transform="translate(-0.82 -0.9)"/><path class="cls-11" d="M120.24,61.83a.7.7,0,0,1,.74.26l-2.29,1.07-2.64-.26C117.18,61.48,118.88,62.33,120.24,61.83Z" transform="translate(-0.82 -0.9)"/><path class="cls-95" d="M96,81c.33-1.13.65-2.26,1-3.4,1.26.86,1.09,2.1.88,3.34L96,81.83Z" transform="translate(-0.82 -0.9)"/><path class="cls-96" d="M163,79c0,.34,0,.67,0,1-.27-.35-.54-.7-.82-1C162.4,79,162.67,79,163,79Z" transform="translate(-0.82 -0.9)"/><path class="cls-97" d="M172,50.9l-1.9-2c2.68-1.72,5.34-1.89,7.95.14,1.11,1.47,2.77.73,4.16,1C178.86,51.49,175.39,51,172,50.9Z" transform="translate(-0.82 -0.9)"/><path class="cls-98" d="M178,49l-7.95-.14c.36-1.65.73-3.3,1.09-5,.3-.36.61-.71.91-1.06,1.15,1.1,2.57,1,4,.89C177.78,45.12,179.23,46.58,178,49Z" transform="translate(-0.82 -0.9)"/><path class="cls-99" d="M89,51.9c-2.83,1-5.74,2.33-7.92-1a4.33,4.33,0,0,1,1-6.18,34.53,34.53,0,0,1,4.16-2.59c2.54-1.07,4-.78,3.61,2.53C89.5,47,90.34,49.6,89,51.9Z" transform="translate(-0.82 -0.9)"/><path class="cls-100" d="M164.14,55c1.65-1.26,0-3.68,1.73-4.93,0,2,0,3.93,0,5.89l-1.78-.08A2.6,2.6,0,0,1,164.14,55Z" transform="translate(-0.82 -0.9)"/><path class="cls-63" d="M147,50c7.42-2.24,2.77,3.7,3.88,5.74-1.84.93-3.84,1.86-5.36-.27S144.94,51.42,147,50Z" transform="translate(-0.82 -0.9)"/></g></g></svg>